<?xml version="1.0" encoding="UTF-8"?>
<svg id="Layer_1" data-name="Layer 1" xmlns="http://www.w3.org/2000/svg" viewBox="0 0 2044.82 306.54">
  <defs>
    <style>
      .cls-1 {
        fill: #f3f4f0;
      }

      .cls-2 {
        fill: #d4d8ce;
        opacity: .81;
      }
    </style>
  </defs>
  <path class="cls-1" d="M374.58,220.48h-243.83l147.43-151.74c2.33-2.39,5.52-3.75,8.86-3.75h225.77c4.8,0,7.23,5.77,3.89,9.21l-142.12,146.28Z"/>
  <path class="cls-2" d="M278.28,256.41H34.45L181.88,104.67c2.33-2.39,5.52-3.75,8.86-3.75h225.77c4.8,0,7.23,5.77,3.89,9.21l-142.12,146.28Z"/>
  <path class="cls-1" d="M1683.83,266.35h-243.83l147.43-151.74c2.33-2.39,5.52-3.75,8.86-3.75h225.77c4.8,0,7.23,5.77,3.89,9.21l-142.12,146.28Z"/>
  <path class="cls-2" d="M1860.59,195.67h-226.47c-4.2,0-6.34-5.05-3.41-8.07l139.59-143.67c2.33-2.39,5.52-3.75,8.86-3.75h225.77c4.8,0,7.23,5.77,3.89,9.21l-137.86,141.89c-2.72,2.8-6.46,4.38-10.37,4.38Z"/>
</svg>