<?xml version="1.0" encoding="UTF-8"?>
<svg id="Layer_1" xmlns="http://www.w3.org/2000/svg" xmlns:xlink="http://www.w3.org/1999/xlink" version="1.1" viewBox="0 0 537.7 152.9">
  <!-- Generator: Adobe Illustrator 29.5.1, SVG Export Plug-In . SVG Version: 2.1.0 Build 141)  -->
  <defs>
    <style>
      .st0 {
        fill: none;
      }

      .st1 {
        fill-rule: evenodd;
      }

      .st1, .st2 {
        fill: #fff;
      }

      .st3 {
        clip-path: url(#clippath-1);
      }

      .st4 {
        clip-path: url(#clippath-2);
      }

      .st5 {
        clip-path: url(#clippath);
      }
    </style>
    <clipPath id="clippath">
      <rect class="st0" x="1.8" y="12.1" width="533.4" height="130.5"/>
    </clipPath>
    <clipPath id="clippath-1">
      <rect class="st0" x="1.8" y="12.1" width="533.4" height="130.5"/>
    </clipPath>
    <clipPath id="clippath-2">
      <rect class="st0" x="2.3" y="12.6" width="532.8" height="129.9"/>
    </clipPath>
  </defs>
  <g class="st5">
    <g class="st3">
      <path class="st2" d="M176.7,84.5c-.2.5-.5,1-.9,1.4-.4.4-.9.7-1.4.9-.5.2-1.1.3-1.7.3h-3.3c-.6,0-1.2-.1-1.7-.3-.5-.2-1-.5-1.4-.9-.4-.4-.7-.8-.9-1.4-.2-.5-.3-1.1-.3-1.7v-6.5c0-.6.1-1.2.3-1.7.2-.5.5-1,.9-1.4.4-.4.8-.7,1.4-.9.5-.2,1.1-.3,1.7-.3h3.3c.6,0,1.1.1,1.7.3.5.2,1,.5,1.4.9.4.4.7.8.9,1.4.2.5.3,1.1.3,1.7v6.4c0,.6,0,1.1-.3,1.7h0ZM207.5,96.2c-.3-1.1-.7-2.1-1.2-3.1-.5-.9-1.1-1.7-1.7-2.4-.2-.2-.4-.4-.5-.5.8-1,1.5-2.1,2.1-3.3.8-1.7,1.1-3.5,1.1-5.4v-4.7c0-1.8-.4-3.6-1.1-5.2-.7-1.6-1.7-3-2.9-4.3-1.2-1.2-2.7-2.2-4.3-2.9-1.6-.7-3.4-1.1-5.3-1.1h-3.3c-1.9,0-3.8.4-5.4,1.1-1.3.6-2.4,1.3-3.5,2.2-1-.9-2.2-1.7-3.5-2.2-1.7-.7-3.5-1.1-5.4-1.1h-3.3c-1.9,0-3.6.4-5.3,1.1-1.6.7-3.1,1.7-4.3,2.9-1.2,1.2-2.2,2.6-2.9,4.3-.7,1.6-1.1,3.4-1.1,5.2v5.4c0,1.8.4,3.6,1.1,5.2.7,1.6,1.7,3,2.9,4.2,1.2,1.2,2.7,2.2,4.3,2.9,1.6.7,3.4,1.1,5.3,1.1h3.3c1.9,0,3.6-.4,5.3-1.1,1.6-.7,3.1-1.7,4.3-2.9,1.2-1.2,2.2-2.6,2.9-4.2.7-1.6,1.1-3.4,1.1-5.2v-5.9c0-.6,0-1.2.3-1.7.2-.5.5-1,.9-1.4.4-.4.9-.7,1.4-.9.5-.2,1.1-.3,1.7-.3h3.3c.6,0,1.1.1,1.7.3.5.2,1,.5,1.4.9.5.5.8,1,1,1.7.1.4.2.9.2,1.4v5.8c0,.6-.1,1.1-.3,1.7-.2.5-.6,1-.9,1.4-.4.4-.8.7-1.4.9-.5.2-1.1.3-1.7.3h-4.5c-.8,0-1.4.6-1.4,1.4v5.7c0,.7.6,1.3,1.3,1.4h5.3c.6.1,1.1.2,1.7.4.5.2,1,.5,1.4.9.4.4.7.8.9,1.4.2.5.3,1.1.3,1.7v10.6c0,.6-.1,1.1-.3,1.6-.2.5-.5,1-.9,1.4-.4.4-.8.7-1.4.9-.5.2-1.1.3-1.7.3h-13.3c-.6,0-1.1-.1-1.6-.3-.5-.2-1-.5-1.4-.9-.4-.4-.7-.9-.9-1.4-.2-.5-.3-1.1-.3-1.6v-6.7c0-.8-.6-1.4-1.4-1.4h-6.4c-.8,0-1.4.6-1.4,1.4v6.2c0,1.8.4,3.6,1.1,5.2.7,1.6,1.7,3,2.9,4.3,1.2,1.2,2.6,2.2,4.3,2.9,1.6.7,3.4,1.1,5.2,1.1h13.3c1.9,0,3.6-.4,5.3-1.1,1.6-.7,3.1-1.7,4.3-2.9,1.2-1.2,2.2-2.6,2.9-4.3.7-1.6,1.1-3.4,1.1-5.2v-9.6c0-1.2-.2-2.4-.5-3.6h0Z"/>
      <path class="st2" d="M247.2,67.4c-1.2-1.2-2.6-2.2-4.3-2.9-1.6-.7-3.4-1.1-5.3-1.1h-6.6c-1.9,0-3.6.4-5.3,1.1-1.6.7-3.1,1.7-4.3,2.9-1.2,1.2-2.2,2.6-2.9,4.3-.7,1.6-1.1,3.4-1.1,5.2v43.9c0,.8.6,1.4,1.4,1.4h6.4c.8,0,1.4-.6,1.4-1.4v-44.4c0-.6.1-1.1.3-1.7.2-.5.5-1,.9-1.4.4-.4.8-.7,1.4-.9.5-.2,1.1-.3,1.7-.3h6.6c.6,0,1.1.1,1.7.3.5.2,1,.5,1.4.9.4.4.7.8.9,1.4.2.5.3,1.1.3,1.7v44.4c0,.8.6,1.4,1.4,1.4h6.4c.8,0,1.4-.6,1.4-1.4v-43.9c0-1.8-.4-3.6-1.1-5.2-.7-1.6-1.7-3-2.9-4.3h0Z"/>
      <path class="st2" d="M281.8,109.9c0,.6-.1,1.1-.3,1.6-.2.5-.5,1-.9,1.4-.4.4-.8.7-1.4.9-.5.2-1.1.3-1.7.3h-3.3c-.6,0-1.1-.1-1.7-.3-.5-.2-1-.5-1.4-.9-.4-.4-.7-.9-.9-1.4-.2-.5-.3-1.1-.3-1.6v-33.6c0-.6.1-1.2.3-1.7.2-.5.5-1,.9-1.4.4-.4.8-.7,1.4-.9.5-.2,1.1-.3,1.7-.3h3.3c.6,0,1.1.1,1.7.3.5.2,1,.5,1.4.9.4.4.7.8.9,1.4.2.5.3,1.1.3,1.7v33.6h0ZM310.9,71.6c-.7-1.6-1.7-3-2.9-4.2-1.2-1.2-2.6-2.2-4.3-2.9-1.6-.7-3.4-1.1-5.3-1.1h-3.3c-1.9,0-3.8.4-5.4,1.1-1.3.6-2.4,1.3-3.5,2.2-1-.9-2.2-1.7-3.5-2.2-1.7-.7-3.5-1.1-5.4-1.1h-3.3c-1.9,0-3.6.4-5.2,1.1-1.6.7-3.1,1.7-4.3,2.9-1.2,1.2-2.2,2.6-2.9,4.3-.7,1.6-1.1,3.4-1.1,5.2v32.5c0,1.8.4,3.6,1.1,5.2.7,1.6,1.7,3,2.9,4.3,1.2,1.2,2.7,2.2,4.3,2.9,1.6.7,3.4,1.1,5.2,1.1h3.3c1.9,0,3.6-.4,5.3-1.1,1.6-.7,3.1-1.7,4.3-2.9,1.2-1.2,2.2-2.6,2.9-4.3.7-1.6,1.1-3.4,1.1-5.2v-33.1c0-.6.1-1.2.3-1.7.2-.5.5-1,.9-1.4s.8-.7,1.4-.9c.5-.2,1.1-.3,1.7-.3h3.3c.6,0,1.1.1,1.7.3.5.2,1,.5,1.4.9.4.4.7.8.9,1.4.2.5.3,1.1.3,1.7v44.4c0,.8.6,1.4,1.4,1.4h6.4c.8,0,1.4-.6,1.4-1.4v-43.9c0-1.8-.4-3.6-1.1-5.2h0Z"/>
      <path class="st2" d="M387.3,87.6c-.1-.8-.3-1.6-.6-2.4-.3-.8-.7-1.5-1.2-2.3-.4-.6-1-1.2-1.6-1.8-.6-.5-1.3-1.1-2.1-1.7-.8-.6-1.7-1.2-2.7-1.8l-3.6-2.3c-2-1.3-3.7-2.4-4.9-3.3-1.4-1-1.9-1.6-2.2-2,0,0-.1-.2-.1-.3,0-.1-.1-.4-.2-.8,0-.4,0-.8,0-1.4,0-.6,0-1.3,0-2.2s-.5-1.2-1.2-1.2h-6.7c-.7,0-1.2.5-1.2,1.2,0,1,0,2,0,2.8,0,.9,0,1.8.2,2.6.1.8.3,1.6.6,2.4.3.8.7,1.5,1.2,2.3.5.6,1,1.3,1.6,1.8.6.5,1.3,1.1,2,1.6.7.5,1.6,1.1,2.7,1.8l3.4,2.2h.1c2.1,1.4,3.8,2.6,5,3.5,1.4,1.1,2,1.7,2.3,2,0,0,.1.2.1.3,0,.2.1.5.1.8,0,.4,0,.9,0,1.5,0,.6,0,1.3,0,2.2v16.8c0,.6-.1,1.1-.3,1.7-.2.5-.5,1-.9,1.4-.4.4-.8.7-1.4.9-.5.2-1.1.3-1.7.3h-6.5c-.6,0-1.1-.1-1.7-.3-.5-.2-1-.5-1.4-.9-.4-.4-.7-.9-.9-1.4-.2-.5-.3-1.1-.3-1.7v-12.9c0-.8-.6-1.4-1.4-1.4h-6.4c-.8,0-1.4.6-1.4,1.4v12.4c0,1.8.4,3.6,1.1,5.2.7,1.6,1.7,3.1,2.9,4.3,1.2,1.2,2.6,2.2,4.3,2.9,1.6.7,3.4,1.1,5.3,1.1h6.5c1.8,0,3.6-.4,5.3-1.1,1.6-.7,3.1-1.7,4.3-2.9,1.2-1.2,2.2-2.6,2.9-4.3.7-1.6,1.1-3.4,1.1-5.2v-16.3c0-1,0-2,0-2.9,0-.9-.1-1.8-.2-2.6h0Z"/>
      <path class="st2" d="M426.7,67.3c-1.2-1.2-2.7-2.2-4.3-2.9-1.6-.7-3.4-1.1-5.3-1.1h-1.6c-1.9,0-3.7.4-5.4,1.1-1.3.6-2.4,1.3-3.5,2.2-1-.9-2.2-1.7-3.5-2.2-1.7-.7-3.5-1.1-5.4-1.1h-4.6c-.8,0-1.4.6-1.4,1.4v5.9c0,.8.6,1.4,1.4,1.4h4.6c.6,0,1.1.1,1.7.3.5.2,1,.5,1.4.9.4.4.7.8.9,1.4.2.5.3,1.1.3,1.7v11.1c0,.8.6,1.4,1.4,1.4h6.4c.8,0,1.4-.6,1.4-1.4v-11.1c0-.6.1-1.2.3-1.7.2-.5.5-1,.9-1.4.4-.4.9-.7,1.4-.9.5-.2,1-.3,1.6-.3h1.6c.6,0,1.1.1,1.7.3.5.2,1,.5,1.4.9.4.4.7.8.9,1.4.2.5.3,1.1.3,1.7v33.6c0,.6-.1,1.1-.3,1.7-.2.5-.5,1-.9,1.4-.4.4-.8.7-1.4.9-.5.2-1.1.3-1.7.3h-6.6c-.6,0-1.1-.1-1.7-.3-.5-.2-1-.5-1.4-.9-.4-.4-.7-.9-.9-1.4-.2-.5-.3-1.1-.3-1.7v-6.7c0-.8-.6-1.4-1.4-1.4h-6.4c-.8,0-1.4.6-1.4,1.4v6.2c0,1.8.4,3.6,1.1,5.2.7,1.6,1.7,3,2.9,4.3,1.2,1.2,2.7,2.2,4.3,2.9,1.6.7,3.4,1.1,5.2,1.1h6.6c1.8,0,3.6-.4,5.3-1.1,1.6-.7,3.1-1.7,4.3-2.9,1.2-1.2,2.2-2.6,2.9-4.3.7-1.6,1.1-3.4,1.1-5.2v-32.5c0-1.8-.4-3.6-1.1-5.2-.7-1.6-1.7-3-2.9-4.3h0Z"/>
      <path class="st2" d="M461.4,109.9c0,.6-.1,1.1-.3,1.6-.2.5-.5,1-.9,1.4-.4.4-.8.7-1.4.9-.5.2-1.1.3-1.7.3h-3.3c-.6,0-1.1-.1-1.7-.3-.5-.2-1-.5-1.4-.9-.4-.4-.7-.9-.9-1.4-.2-.5-.3-1.1-.3-1.6v-33.6c0-.6.1-1.2.3-1.7.2-.5.5-1,.9-1.4.4-.4.8-.7,1.4-.9.5-.2,1.1-.3,1.7-.3h3.3c.6,0,1.1.1,1.7.3.5.2,1,.5,1.4.9.4.4.7.8.9,1.4.2.5.3,1.1.3,1.7v33.6h0ZM490.5,71.6c-.7-1.6-1.7-3-2.9-4.2-1.2-1.2-2.6-2.2-4.3-2.9-1.6-.7-3.4-1.1-5.3-1.1h-3.3c-1.9,0-3.7.4-5.4,1.1-1.3.6-2.4,1.3-3.5,2.2-1-.9-2.2-1.7-3.5-2.2-1.7-.7-3.5-1.1-5.4-1.1h-3.3c-1.9,0-3.6.4-5.3,1.1-1.6.7-3.1,1.7-4.3,2.9-1.2,1.2-2.2,2.6-2.9,4.3-.7,1.6-1.1,3.4-1.1,5.2v32.5c0,1.8.4,3.6,1.1,5.2.7,1.6,1.7,3,2.9,4.3,1.2,1.2,2.7,2.2,4.3,2.9,1.6.7,3.4,1.1,5.3,1.1h3.3c1.9,0,3.6-.4,5.3-1.1,1.6-.7,3.1-1.7,4.3-2.9,1.2-1.2,2.2-2.6,2.9-4.3.7-1.6,1.1-3.4,1.1-5.2v-33.1c0-.6.1-1.2.3-1.7.2-.5.5-1,.9-1.4s.8-.7,1.4-.9c.5-.2,1.1-.3,1.7-.3h3.3c.6,0,1.1.1,1.7.3.5.2,1,.5,1.4.9s.7.8.9,1.4c.2.5.3,1.1.3,1.7v44.4c0,.8.6,1.4,1.4,1.4h6.4c.8,0,1.4-.6,1.4-1.4v-43.9c0-1.8-.4-3.6-1.1-5.2h0Z"/>
      <path class="st2" d="M534.7,76.9v23.4l-9.1-9.8v-14.2c0-.6-.1-1.1-.3-1.7-.2-.5-.5-1-.9-1.4-.4-.4-.8-.7-1.4-.9-.5-.2-1.1-.3-1.7-.3h-6.6c-.6,0-1.1.1-1.7.3-.5.2-1,.5-1.4.9-.4.4-.7.8-.9,1.4-.2.5-.3,1.1-.3,1.7v44.4c0,.8-.6,1.4-1.4,1.4h-6.4c-.8,0-1.4-.6-1.4-1.4v-43.9c0-1.8.4-3.6,1.1-5.2.7-1.6,1.7-3,2.9-4.3,1.2-1.2,2.6-2.2,4.3-2.9,1.6-.7,3.4-1.1,5.3-1.1h6.6c1.9,0,3.6.4,5.3,1.1,1.6.7,3.1,1.7,4.2,2.9,1.2,1.2,2.2,2.6,2.9,4.3.7,1.6,1.1,3.4,1.1,5.2Z"/>
      <path class="st2" d="M525.5,97l9.1,9.8v14c0,.8-.6,1.4-1.4,1.4h-6.4c-.8,0-1.4-.6-1.4-1.4v-23.7h0Z"/>
      <path class="st2" d="M344,87.5h-21.1c-.8,0-1.4.6-1.4,1.4v8.3c0,.7.6,1.4,1.4,1.4h21.1c.7,0,1.4-.6,1.4-1.4v-8.3c0-.7-.6-1.4-1.4-1.4Z"/>
      <path class="st2" d="M157.4,36.4c0-1.6.3-3.1.8-4.4h5.3c-.2.7-.4,1.4-.4,1.9,0,.6-.1,1.2-.1,1.9,0,1.8.5,3.1,1.5,4.2,1,1,2.4,1.5,4.1,1.5s3.1-.5,4.1-1.6c1-1.1,1.5-2.5,1.5-4.3v-12.4c0-.8-.1-1.6-.3-2.3-.2-.7-.5-1.3-1-1.9-.4-.5-1-.9-1.6-1.3-.6-.3-1.4-.5-2.2-.5s-1.5.1-2.1.4c-.6.3-1.2.6-1.6,1.1-.4.5-.8,1-1,1.6-.2.6-.4,1.2-.4,1.9s0,1.5.3,2.2h-5.4c-.2-.8-.4-1.6-.4-2.5s.3-2.3.8-3.4,1.2-2,2.2-2.9c.9-.8,2-1.5,3.4-2,1.3-.5,2.8-.7,4.4-.7s3.1.3,4.5.8c1.3.5,2.5,1.2,3.4,2.1.9.9,1.6,1.9,2.1,3.2.5,1.2.7,2.5.7,3.9v12.8c0,1.5-.3,2.9-.8,4.2-.5,1.3-1.3,2.3-2.3,3.2-1,.9-2.2,1.6-3.5,2.1-1.4.5-2.9.7-4.5.7s-3.2-.2-4.6-.7-2.5-1.1-3.5-1.9c-1-.8-1.7-1.8-2.2-3-.5-1.2-.8-2.5-.8-3.9h0Z"/>
      <path class="st2" d="M187.9,40.9v-3.8h4.4v-.2c-1.1-.4-2.2-1-3.2-1.7-1-.7-1.9-1.6-2.7-2.6-.8-1-1.4-2.2-1.9-3.5-.5-1.3-.7-2.7-.7-4.2s.2-3.4.7-4.9c.4-1.5,1.1-2.7,1.9-3.7.8-1,1.8-1.8,2.9-2.4,1.1-.6,2.4-.9,3.7-.9s2.8.4,3.9,1.2c1.2.8,2,1.8,2.5,3.1h.2c.2-.6.5-1.2.9-1.8.4-.5.9-1,1.5-1.4.6-.4,1.2-.7,1.8-.9.6-.2,1.3-.3,1.9-.3s1.3,0,2,.3c.7.2,1.3.5,1.8.9.5.4,1,.8,1.4,1.4.4.5.7,1.1.9,1.8h.2c.6-1.4,1.4-2.5,2.5-3.2,1.1-.7,2.4-1.1,3.9-1.1s2.6.3,3.7.8c1.1.6,2.1,1.4,2.9,2.4.8,1,1.4,2.3,1.9,3.7.5,1.4.7,3,.7,4.7,0,3.6-.6,6.6-1.7,9.3h-5.5c1.1-2.7,1.7-5.8,1.7-9.1s-.4-4.2-1.1-5.5c-.7-1.3-1.7-1.9-2.9-1.9s-1.9.4-2.6,1.3c-.7.9-1,2-1,3.3v8.1h-5.2v-8.1c0-1.4-.3-2.5-1-3.3-.7-.8-1.5-1.2-2.6-1.2s-2,.4-2.6,1.3c-.7.9-1,1.9-1,3.3v8.1h-5.2v-8c0-1.4-.3-2.6-.9-3.4-.6-.8-1.5-1.3-2.6-1.3s-2.2.7-3,2c-.8,1.3-1.1,3.1-1.1,5.4,0,1.7.3,3.3.9,4.7.6,1.4,1.5,2.6,2.6,3.6,1.1,1,2.2,1.8,3.5,2.4,1.3.6,2.6.9,3.8,1h1.6c0,.1,2.4.4,2.4.4.6,0,1.2.1,1.7.2.6,0,1.1.1,1.6.2,1,.1,1.8.3,2.6.5,2.4.7,4.2,1.6,5.4,2.8,1.2,1.2,1.9,2.8,2,4.6h-5.9c-.3-1.5-1.3-2.6-3.3-3.3-1.9-.7-4.2-1-6.8-1h-13.4Z"/>
      <path class="st2" d="M230.8,36.4c0-1.6.3-3.1.8-4.4h5.3c-.2.7-.4,1.4-.4,1.9,0,.6-.1,1.2-.1,1.9,0,1.8.5,3.1,1.5,4.2,1,1,2.4,1.5,4.1,1.5s3.1-.5,4.1-1.6c1-1.1,1.5-2.5,1.5-4.3v-12.4c0-.8-.1-1.6-.3-2.3s-.5-1.3-1-1.9c-.4-.5-1-.9-1.6-1.3-.6-.3-1.4-.5-2.2-.5s-1.5.1-2.1.4c-.6.3-1.2.6-1.6,1.1-.4.5-.8,1-1,1.6-.2.6-.4,1.2-.4,1.9s0,1.5.3,2.2h-5.4c-.2-.8-.4-1.6-.4-2.5s.3-2.3.8-3.4c.5-1.1,1.2-2,2.2-2.9.9-.8,2-1.5,3.4-2,1.3-.5,2.8-.7,4.4-.7s3.1.3,4.5.8c1.3.5,2.5,1.2,3.4,2.1.9.9,1.6,1.9,2.1,3.2.5,1.2.7,2.5.7,3.9v12.8c0,1.5-.3,2.9-.8,4.2-.5,1.3-1.3,2.3-2.3,3.2-1,.9-2.2,1.6-3.5,2.1-1.4.5-2.9.7-4.5.7s-3.2-.2-4.6-.7c-1.3-.5-2.5-1.1-3.5-1.9-1-.8-1.7-1.8-2.3-3-.5-1.2-.8-2.5-.8-3.9h0Z"/>
      <path class="st2" d="M275,34.9c0-2.1-.6-3.7-1.7-4.9-1.2-1.2-2.7-1.8-4.5-1.8s-3.2.6-4.4,1.8c-1.1,1.2-1.7,2.8-1.7,4.9s.6,3.6,1.7,4.8c1.1,1.2,2.6,1.8,4.3,1.8s1.7-.2,2.5-.5c.8-.3,1.4-.8,2-1.3.6-.6,1-1.3,1.3-2.1.3-.8.5-1.7.5-2.8h0ZM257.2,34.7c0-1.6.3-3.1.8-4.4.5-1.3,1.2-2.5,2.1-3.4.9-.9,2-1.7,3.2-2.2,1.2-.5,2.5-.8,3.9-.8s3.1.3,4.4.9c1.3.6,2.4,1.5,3.1,2.5h0v-4.2c0-1-.2-1.8-.5-2.5-.3-.7-.7-1.3-1.2-1.8-.5-.5-1.1-.8-1.8-1.1-.7-.3-1.4-.4-2.1-.4-1.3,0-2.5.3-3.5,1-1,.7-1.6,1.6-1.7,2.6h-5.7c0-.9.3-1.9.9-2.9.6-1,1.3-1.8,2.3-2.6,1-.8,2.1-1.4,3.4-1.9,1.3-.5,2.7-.7,4.3-.7,1.7,0,3.2.2,4.6.7,1.4.5,2.6,1.1,3.6,2,1,.9,1.8,1.9,2.3,3.1.5,1.2.8,2.6.8,4.1v11.8c0,1.7-.3,3.2-.9,4.6-.6,1.4-1.4,2.5-2.4,3.5-1,1-2.3,1.7-3.7,2.3s-3,.8-4.7.8-3.2-.3-4.6-.8c-1.4-.5-2.6-1.3-3.7-2.3-1-1-1.8-2.2-2.4-3.5-.6-1.4-.9-2.9-.9-4.6h0Z"/>
      <path class="st2" d="M284.4,36.4c0-1.6.3-3.1.8-4.4h5.3c-.2.7-.4,1.4-.4,1.9,0,.6-.1,1.2-.1,1.9,0,1.8.5,3.1,1.5,4.2s2.4,1.5,4.1,1.5,3.1-.5,4.1-1.6c1-1.1,1.5-2.5,1.5-4.3v-12.4c0-.8-.1-1.6-.3-2.3-.2-.7-.5-1.3-1-1.9-.4-.5-1-.9-1.6-1.3-.6-.3-1.4-.5-2.2-.5s-1.5.1-2.1.4c-.6.3-1.2.6-1.6,1.1-.4.5-.8,1-1,1.6-.2.6-.4,1.2-.4,1.9s0,1.5.3,2.2h-5.4c-.2-.8-.4-1.6-.4-2.5s.3-2.3.8-3.4,1.2-2,2.2-2.9c.9-.8,2-1.5,3.4-2s2.8-.7,4.4-.7,3.1.3,4.5.8c1.3.5,2.5,1.2,3.4,2.1.9.9,1.6,1.9,2.1,3.2.5,1.2.7,2.5.7,3.9v12.8c0,1.5-.3,2.9-.8,4.2-.5,1.3-1.3,2.3-2.3,3.2-1,.9-2.2,1.6-3.5,2.1-1.4.5-2.9.7-4.5.7s-3.2-.2-4.6-.7c-1.3-.5-2.5-1.1-3.5-1.9-1-.8-1.7-1.8-2.3-3-.5-1.2-.8-2.5-.8-3.9h0Z"/>
      <path class="st2" d="M329.3,34.9c0-2.1-.5-3.7-1.7-4.9-1.1-1.2-2.6-1.8-4.3-1.8s-3.3.6-4.5,1.8c-1.2,1.2-1.7,2.8-1.7,4.9s.2,1.9.5,2.8c.3.8.7,1.5,1.3,2.1.6.6,1.2,1,2,1.3.8.3,1.6.5,2.5.5s1.7-.2,2.4-.5c.7-.3,1.4-.8,1.9-1.3.5-.6.9-1.3,1.2-2.1.3-.8.4-1.7.4-2.8h0ZM311.7,22.1c0-2.8.8-4.8,2.5-6.2,1.7-1.4,4.1-2.1,7.4-2.1h10.3v4.4h-10c-3.1,0-4.6,1.4-4.6,4.1v4.9h0c.7-1.1,1.7-1.9,3-2.5,1.3-.6,2.8-.9,4.4-.9s2.7.3,3.9.8c1.2.5,2.3,1.3,3.2,2.2.9,1,1.7,2.1,2.2,3.5.5,1.3.8,2.8.8,4.4s-.3,3.2-.9,4.6c-.6,1.4-1.4,2.6-2.4,3.5-1,1-2.3,1.7-3.7,2.3-1.4.5-2.9.8-4.6.8s-3.2-.3-4.7-.8-2.7-1.3-3.7-2.3c-1-1-1.8-2.1-2.4-3.5-.6-1.4-.9-2.9-.9-4.6v-12.7Z"/>
      <path class="st2" d="M362.3,30c0-3.3-.7-5.9-2-7.8-1.3-1.9-3-3.2-5.1-3.9h0c.2,1.1.3,2.3.4,3.5.1,1.3.2,2.5.2,3.6v6.2h-5.4v-6.3c0-2.7.2-5.1.6-7h0c-2.2.7-4,2-5.3,3.8-1.3,1.8-1.9,4.5-1.9,7.8s.2,3.4.7,4.8c.5,1.4,1.1,2.6,1.9,3.7.8,1,1.8,1.8,3,2.3,1.1.5,2.4.8,3.8.8s2.7-.3,3.8-.8c1.1-.5,2.1-1.3,2.9-2.3.8-1,1.5-2.2,1.9-3.6.4-1.4.7-3,.7-4.9ZM338.2,30c0-2.3.3-4.3,1-6.1.6-1.8,1.5-3.4,2.6-4.7s2.4-2.4,3.9-3.3c1.5-.8,3.1-1.4,4.8-1.7h.4c-.1-.5-.2-1.1-.2-1.6h4.6c0,.3,0,.6,0,.9,0,.3,0,.6-.1.7h.3c1.7.3,3.3.8,4.8,1.6,1.5.8,2.8,1.9,3.9,3.3,1.1,1.3,2,2.9,2.7,4.8.6,1.8,1,3.9,1,6.2s-.4,4.8-1.1,6.8c-.8,2-1.8,3.6-3.2,5-1.3,1.4-2.9,2.4-4.7,3.1-1.8.7-3.7,1.1-5.8,1.1-2.1,0-4-.3-5.8-1-1.8-.7-3.4-1.8-4.7-3.1-1.4-1.4-2.4-3-3.2-5s-1.1-4.2-1.1-6.7h0Z"/>
      <g class="st4">
        <path class="st1" d="M2.7,63.8h36.2c.8,0,1.5.7,1.5,1.5v35.5c0,.3-.1.7-.3.9L5.2,141.9c-.9,1-2.6.4-2.6-.9V63.8Z"/>
      </g>
      <path class="st1" d="M48.5,101.3l31.9-37c.3-.3.7-.5,1.1-.5h22c.8,0,1.5.7,1.5,1.5v34.6c0,.8-.6,1.4-1.5,1.4h-55Z"/>
      <path class="st2" d="M525.5,97l9.1,9.8v14c0,.8-.6,1.4-1.4,1.4h-6.4c-.8,0-1.4-.6-1.4-1.4v-23.7h0Z"/>
      <path class="st1" d="M48.5,101.3l31.9-37c.3-.3.7-.5,1.1-.5h22c.8,0,1.5.7,1.5,1.5v34.6c0,.8-.6,1.4-1.5,1.4h-55Z"/>
      <path class="st1" d="M2.7,50.1L39.9,13c.3-.3.6-.4,1-.4h85c1.2,0,1.9,1.5,1.1,2.4l-29.8,34.6c-.3.3-.7.5-1.1.5H2.7Z"/>
    </g>
  </g>
</svg>