<?xml version="1.0" encoding="UTF-8"?>
<svg id="Layer_1" xmlns="http://www.w3.org/2000/svg" xmlns:xlink="http://www.w3.org/1999/xlink" version="1.1" viewBox="0 0 107 31">
  <!-- Generator: Adobe Illustrator 29.5.1, SVG Export Plug-In . SVG Version: 2.1.0 Build 141)  -->
  <defs>
    <style>
      .st0 {
        fill: none;
      }

      .st1 {
        fill-rule: evenodd;
      }

      .st1, .st2 {
        fill: #fff;
      }

      .st3 {
        clip-path: url(#clippath-1);
      }

      .st4 {
        clip-path: url(#clippath-2);
      }

      .st5 {
        clip-path: url(#clippath);
      }
    </style>
    <clipPath id="clippath">
      <rect class="st0" x="1" y="2.5" width="105.4" height="25.8"/>
    </clipPath>
    <clipPath id="clippath-1">
      <rect class="st0" x="1" y="2.5" width="105.4" height="25.8"/>
    </clipPath>
    <clipPath id="clippath-2">
      <rect class="st0" x="1.1" y="2.6" width="105.3" height="25.7"/>
    </clipPath>
  </defs>
  <g class="st5">
    <g class="st3">
      <path class="st2" d="M35.6,16.8c0,.1-.1.2-.2.3,0,0-.2.1-.3.2-.1,0-.2,0-.3,0h-.6c-.1,0-.2,0-.3,0-.1,0-.2-.1-.3-.2,0,0-.1-.2-.2-.3,0-.1,0-.2,0-.3v-1.3c0-.1,0-.2,0-.3,0-.1.1-.2.2-.3,0,0,.2-.1.3-.2.1,0,.2,0,.3,0h.6c.1,0,.2,0,.3,0,.1,0,.2.1.3.2,0,0,.1.2.2.3,0,.1,0,.2,0,.3v1.3c0,.1,0,.2,0,.3h0ZM41.6,19.1c0-.2-.1-.4-.2-.6,0-.2-.2-.3-.3-.5,0,0,0,0-.1-.1.2-.2.3-.4.4-.6.1-.3.2-.7.2-1.1v-.9c0-.4,0-.7-.2-1-.1-.3-.3-.6-.6-.8-.2-.2-.5-.4-.8-.6-.3-.1-.7-.2-1-.2h-.6c-.4,0-.7,0-1.1.2-.3.1-.5.3-.7.4-.2-.2-.4-.3-.7-.4-.3-.1-.7-.2-1.1-.2h-.6c-.4,0-.7,0-1,.2-.3.1-.6.3-.8.6-.2.2-.4.5-.6.8-.1.3-.2.7-.2,1v1.1c0,.4,0,.7.2,1,.1.3.3.6.6.8.2.2.5.4.8.6.3.1.7.2,1,.2h.6c.4,0,.7,0,1-.2.3-.1.6-.3.8-.6.2-.2.4-.5.6-.8.1-.3.2-.7.2-1v-1.2c0-.1,0-.2,0-.3,0-.1.1-.2.2-.3,0,0,.2-.1.3-.2.1,0,.2,0,.3,0h.6c.1,0,.2,0,.3,0,.1,0,.2.1.3.2,0,0,.2.2.2.3,0,0,0,.2,0,.3v1.1c0,.1,0,.2,0,.3,0,.1-.1.2-.2.3,0,0-.2.1-.3.2-.1,0-.2,0-.3,0h-.9c-.2,0-.3.1-.3.3v1.1c0,.1.1.3.3.3h1c.1,0,.2,0,.3,0,.1,0,.2.1.3.2,0,0,.1.2.2.3,0,.1,0,.2,0,.3v2.1c0,.1,0,.2,0,.3,0,.1-.1.2-.2.3,0,0-.2.1-.3.2-.1,0-.2,0-.3,0h-2.6c-.1,0-.2,0-.3,0-.1,0-.2-.1-.3-.2,0,0-.1-.2-.2-.3,0-.1,0-.2,0-.3v-1.3c0-.1-.1-.3-.3-.3h-1.3c-.2,0-.3.1-.3.3v1.2c0,.4,0,.7.2,1,.1.3.3.6.6.8.2.2.5.4.8.6.3.1.7.2,1,.2h2.6c.4,0,.7,0,1-.2.3-.1.6-.3.8-.6.2-.2.4-.5.6-.8.1-.3.2-.7.2-1v-1.9c0-.2,0-.5,0-.7h0Z"/>
      <path class="st2" d="M49.5,13.4c-.2-.2-.5-.4-.8-.6-.3-.1-.7-.2-1-.2h-1.3c-.4,0-.7,0-1,.2-.3.1-.6.3-.8.6-.2.2-.4.5-.6.8-.1.3-.2.7-.2,1v8.7c0,.1.1.3.3.3h1.3c.1,0,.3-.1.3-.3v-8.8c0-.1,0-.2,0-.3,0-.1.1-.2.2-.3,0,0,.2-.1.3-.2.1,0,.2,0,.3,0h1.3c.1,0,.2,0,.3,0,.1,0,.2.1.3.2,0,0,.1.2.2.3,0,.1,0,.2,0,.3v8.8c0,.1.1.3.3.3h1.3c.2,0,.3-.1.3-.3v-8.7c0-.4,0-.7-.2-1-.1-.3-.3-.6-.6-.8h0Z"/>
      <path class="st2" d="M56.3,21.8c0,.1,0,.2,0,.3,0,.1-.1.2-.2.3,0,0-.2.1-.3.2-.1,0-.2,0-.3,0h-.7c-.1,0-.2,0-.3,0-.1,0-.2-.1-.3-.2,0,0-.1-.2-.2-.3,0-.1,0-.2,0-.3v-6.6c0-.1,0-.2,0-.3,0-.1.1-.2.2-.3,0,0,.2-.1.3-.2.1,0,.2,0,.3,0h.7c.1,0,.2,0,.3,0,.1,0,.2.1.3.2,0,0,.1.2.2.3,0,.1,0,.2,0,.3v6.6h0ZM62.1,14.2c-.1-.3-.3-.6-.6-.8-.2-.2-.5-.4-.8-.6-.3-.1-.7-.2-1-.2h-.6c-.4,0-.7,0-1.1.2-.3.1-.5.3-.7.4-.2-.2-.4-.3-.7-.4-.3-.1-.7-.2-1.1-.2h-.7c-.4,0-.7,0-1,.2-.3.1-.6.3-.8.6-.2.2-.4.5-.6.8-.1.3-.2.7-.2,1v6.4c0,.4,0,.7.2,1,.1.3.3.6.6.8.2.2.5.4.8.6.3.1.7.2,1,.2h.7c.4,0,.7,0,1-.2.3-.1.6-.3.8-.6.2-.2.4-.5.6-.8.1-.3.2-.7.2-1v-6.5c0-.1,0-.2,0-.3,0-.1.1-.2.2-.3s.2-.1.3-.2c.1,0,.2,0,.3,0h.6c.1,0,.2,0,.3,0,.1,0,.2.1.3.2,0,0,.1.2.2.3,0,.1,0,.2,0,.3v8.8c0,.1.1.3.3.3h1.3c.2,0,.3-.1.3-.3v-8.7c0-.4,0-.7-.2-1h0Z"/>
      <path class="st2" d="M77.2,17.4c0-.2,0-.3-.1-.5,0-.2-.1-.3-.2-.5,0-.1-.2-.2-.3-.3-.1-.1-.3-.2-.4-.3-.2-.1-.3-.2-.5-.4l-.7-.5c-.4-.3-.7-.5-1-.7-.3-.2-.4-.3-.4-.4,0,0,0,0,0,0,0,0,0,0,0-.2,0,0,0-.2,0-.3,0-.1,0-.3,0-.4s-.1-.2-.2-.2h-1.3c-.1,0-.2.1-.2.2,0,.2,0,.4,0,.6,0,.2,0,.3,0,.5,0,.2,0,.3.1.5,0,.2.1.3.2.4,0,.1.2.2.3.4.1.1.2.2.4.3.1.1.3.2.5.4l.7.4h0c.4.3.7.5,1,.7.3.2.4.3.4.4,0,0,0,0,0,0,0,0,0,0,0,.2,0,0,0,.2,0,.3,0,.1,0,.3,0,.4v3.3c0,.1,0,.2,0,.3,0,.1-.1.2-.2.3,0,0-.2.1-.3.2-.1,0-.2,0-.3,0h-1.3c-.1,0-.2,0-.3,0-.1,0-.2-.1-.3-.2,0,0-.1-.2-.2-.3,0-.1,0-.2,0-.3v-2.5c0-.1-.1-.3-.3-.3h-1.3c-.2,0-.3.1-.3.3v2.4c0,.4,0,.7.2,1,.1.3.3.6.6.8.2.2.5.4.8.6.3.1.7.2,1,.2h1.3c.4,0,.7,0,1-.2.3-.1.6-.3.8-.6.2-.2.4-.5.6-.8.1-.3.2-.7.2-1v-3.2c0-.2,0-.4,0-.6,0-.2,0-.3,0-.5h0Z"/>
      <path class="st2" d="M85,13.4c-.2-.2-.5-.4-.8-.6-.3-.1-.7-.2-1-.2h-.3c-.4,0-.7,0-1.1.2-.3.1-.5.3-.7.4-.2-.2-.4-.3-.7-.4-.3-.1-.7-.2-1.1-.2h-.9c-.2,0-.3.1-.3.3v1.2c0,.1.1.3.3.3h.9c.1,0,.2,0,.3,0,.1,0,.2.1.3.2,0,0,.1.2.2.3,0,.1,0,.2,0,.3v2.2c0,.1.1.3.3.3h1.3c.2,0,.3-.1.3-.3v-2.2c0-.1,0-.2,0-.3,0-.1.1-.2.2-.3,0,0,.2-.1.3-.2,0,0,.2,0,.3,0h.3c.1,0,.2,0,.3,0,.1,0,.2.1.3.2,0,0,.1.2.2.3,0,.1,0,.2,0,.3v6.6c0,.1,0,.2,0,.3,0,.1-.1.2-.2.3,0,0-.2.1-.3.2-.1,0-.2,0-.3,0h-1.3c-.1,0-.2,0-.3,0-.1,0-.2-.1-.3-.2,0,0-.1-.2-.2-.3,0-.1,0-.2,0-.3v-1.3c0-.1-.1-.3-.3-.3h-1.3c-.1,0-.3.1-.3.3v1.2c0,.4,0,.7.2,1,.1.3.3.6.6.8.2.2.5.4.8.6.3.1.7.2,1,.2h1.3c.4,0,.7,0,1-.2.3-.1.6-.3.8-.6.2-.2.4-.5.6-.8.1-.3.2-.7.2-1v-6.4c0-.4,0-.7-.2-1-.1-.3-.3-.6-.6-.8h0Z"/>
      <path class="st2" d="M91.8,21.8c0,.1,0,.2,0,.3,0,.1-.1.2-.2.3,0,0-.2.1-.3.2-.1,0-.2,0-.3,0h-.7c-.1,0-.2,0-.3,0-.1,0-.2-.1-.3-.2,0,0-.1-.2-.2-.3,0-.1,0-.2,0-.3v-6.6c0-.1,0-.2,0-.3,0-.1.1-.2.2-.3,0,0,.2-.1.3-.2.1,0,.2,0,.3,0h.7c.1,0,.2,0,.3,0,.1,0,.2.1.3.2,0,0,.1.2.2.3,0,.1,0,.2,0,.3v6.6h0ZM97.6,14.2c-.1-.3-.3-.6-.6-.8-.2-.2-.5-.4-.8-.6-.3-.1-.7-.2-1-.2h-.6c-.4,0-.7,0-1.1.2-.3.1-.5.3-.7.4-.2-.2-.4-.3-.7-.4-.3-.1-.7-.2-1.1-.2h-.7c-.4,0-.7,0-1,.2-.3.1-.6.3-.8.6-.2.2-.4.5-.6.8-.1.3-.2.7-.2,1v6.4c0,.4,0,.7.2,1,.1.3.3.6.6.8.2.2.5.4.8.6.3.1.7.2,1,.2h.7c.4,0,.7,0,1-.2.3-.1.6-.3.8-.6.2-.2.4-.5.6-.8.1-.3.2-.7.2-1v-6.5c0-.1,0-.2,0-.3,0-.1.1-.2.2-.3s.2-.1.3-.2c.1,0,.2,0,.3,0h.6c.1,0,.2,0,.3,0,.1,0,.2.1.3.2s.1.2.2.3c0,.1,0,.2,0,.3v8.8c0,.1.1.3.3.3h1.3c.2,0,.3-.1.3-.3v-8.7c0-.4,0-.7-.2-1h0Z"/>
      <path class="st2" d="M106.3,15.3v4.6l-1.8-1.9v-2.8c0-.1,0-.2,0-.3,0-.1-.1-.2-.2-.3,0,0-.2-.1-.3-.2-.1,0-.2,0-.3,0h-1.3c-.1,0-.2,0-.3,0-.1,0-.2.1-.3.2,0,0-.1.2-.2.3,0,.1,0,.2,0,.3v8.8c0,.1-.1.3-.3.3h-1.3c-.2,0-.3-.1-.3-.3v-8.7c0-.4,0-.7.2-1,.1-.3.3-.6.6-.8.2-.2.5-.4.8-.6.3-.1.7-.2,1-.2h1.3c.4,0,.7,0,1,.2.3.1.6.3.8.6.2.2.4.5.6.8.1.3.2.7.2,1Z"/>
      <path class="st2" d="M104.5,19.2l1.8,1.9v2.8c0,.1-.1.3-.3.3h-1.3c-.2,0-.3-.1-.3-.3v-4.7h0Z"/>
      <path class="st2" d="M64.5,17.4h4.2c.1,0,.3.1.3.3v1.6c0,.1-.1.3-.3.3h-4.2c-.1,0-.3-.1-.3-.3v-1.6c0-.1.1-.3.3-.3Z"/>
      <path class="st2" d="M31.7,7.3c0-.3,0-.6.2-.9h1c0,.1,0,.3,0,.4,0,.1,0,.2,0,.4,0,.3.1.6.3.8.2.2.5.3.8.3s.6-.1.8-.3c.2-.2.3-.5.3-.8v-2.4c0-.2,0-.3,0-.5,0-.1-.1-.3-.2-.4,0-.1-.2-.2-.3-.2-.1,0-.3,0-.4,0s-.3,0-.4,0c-.1,0-.2.1-.3.2,0,0-.2.2-.2.3,0,.1,0,.2,0,.4s0,.3,0,.4h-1.1c0-.2,0-.3,0-.5s0-.5.2-.7.2-.4.4-.6c.2-.2.4-.3.7-.4.3,0,.5-.1.9-.1s.6,0,.9.2c.3.1.5.2.7.4.2.2.3.4.4.6,0,.2.1.5.1.8v2.5c0,.3,0,.6-.2.8-.1.2-.3.5-.5.6-.2.2-.4.3-.7.4-.3,0-.6.1-.9.1s-.6,0-.9-.1-.5-.2-.7-.4c-.2-.2-.3-.4-.4-.6-.1-.2-.2-.5-.2-.8h0Z"/>
      <path class="st2" d="M37.8,8.2v-.8h.9c-.2-.1-.4-.2-.6-.4-.2-.1-.4-.3-.5-.5-.2-.2-.3-.4-.4-.7,0-.3-.1-.5-.1-.8s0-.7.1-1c0-.3.2-.5.4-.7.2-.2.4-.4.6-.5.2-.1.5-.2.7-.2s.5,0,.8.2c.2.2.4.4.5.6h0c0-.1.1-.2.2-.4,0-.1.2-.2.3-.3.1,0,.2-.1.4-.2.1,0,.2,0,.4,0s.3,0,.4,0c.1,0,.2,0,.4.2.1,0,.2.2.3.3,0,.1.1.2.2.4h0c.1-.3.3-.5.5-.6.2-.1.5-.2.8-.2s.5,0,.7.2c.2.1.4.3.6.5.2.2.3.4.4.7,0,.3.1.6.1.9,0,.7-.1,1.3-.3,1.8h-1.1c.2-.5.3-1.1.3-1.8s0-.8-.2-1.1c-.1-.3-.3-.4-.6-.4s-.4,0-.5.3c-.1.2-.2.4-.2.7v1.6h-1v-1.6c0-.3,0-.5-.2-.7-.1-.2-.3-.2-.5-.2s-.4,0-.5.3c-.1.2-.2.4-.2.7v1.6h-1v-1.6c0-.3,0-.5-.2-.7-.1-.2-.3-.2-.5-.2s-.4.1-.6.4c-.1.3-.2.6-.2,1.1,0,.3,0,.6.2.9.1.3.3.5.5.7.2.2.4.4.7.5.3.1.5.2.8.2h.3s.5,0,.5,0c.1,0,.2,0,.3,0,.1,0,.2,0,.3,0,.2,0,.4,0,.5,0,.5.1.8.3,1.1.6.2.2.4.5.4.9h-1.2c0-.3-.3-.5-.6-.7-.4-.1-.8-.2-1.4-.2h-2.7Z"/>
      <path class="st2" d="M46.3,7.3c0-.3,0-.6.2-.9h1c0,.1,0,.3,0,.4,0,.1,0,.2,0,.4,0,.3.1.6.3.8.2.2.5.3.8.3s.6-.1.8-.3c.2-.2.3-.5.3-.8v-2.4c0-.2,0-.3,0-.5s-.1-.3-.2-.4c0-.1-.2-.2-.3-.2-.1,0-.3,0-.4,0s-.3,0-.4,0c-.1,0-.2.1-.3.2,0,0-.2.2-.2.3,0,.1,0,.2,0,.4s0,.3,0,.4h-1.1c0-.2,0-.3,0-.5s0-.5.2-.7c.1-.2.2-.4.4-.6.2-.2.4-.3.7-.4.3,0,.5-.1.9-.1s.6,0,.9.2c.3.1.5.2.7.4.2.2.3.4.4.6,0,.2.1.5.1.8v2.5c0,.3,0,.6-.2.8-.1.2-.3.5-.5.6-.2.2-.4.3-.7.4-.3,0-.6.1-.9.1s-.6,0-.9-.1c-.3,0-.5-.2-.7-.4-.2-.2-.3-.4-.4-.6-.1-.2-.2-.5-.2-.8h0Z"/>
      <path class="st2" d="M55,7c0-.4-.1-.7-.3-1-.2-.2-.5-.4-.9-.4s-.6.1-.9.4c-.2.2-.3.6-.3,1s.1.7.3,1c.2.2.5.4.9.4s.3,0,.5,0c.2,0,.3-.1.4-.3.1-.1.2-.3.3-.4,0-.2,0-.3,0-.5h0ZM51.5,6.9c0-.3,0-.6.2-.9.1-.3.2-.5.4-.7.2-.2.4-.3.6-.4.2-.1.5-.2.8-.2s.6,0,.9.2c.3.1.5.3.6.5h0v-.8c0-.2,0-.4,0-.5,0-.1-.1-.3-.2-.4,0,0-.2-.2-.4-.2-.1,0-.3,0-.4,0-.3,0-.5,0-.7.2-.2.1-.3.3-.3.5h-1.1c0-.2,0-.4.2-.6.1-.2.3-.4.5-.5.2-.2.4-.3.7-.4.3,0,.5-.1.8-.1.3,0,.6,0,.9.1.3,0,.5.2.7.4.2.2.3.4.5.6.1.2.2.5.2.8v2.3c0,.3,0,.6-.2.9-.1.3-.3.5-.5.7-.2.2-.4.3-.7.4s-.6.2-.9.2-.6,0-.9-.2c-.3-.1-.5-.3-.7-.5-.2-.2-.4-.4-.5-.7-.1-.3-.2-.6-.2-.9h0Z"/>
      <path class="st2" d="M56.9,7.3c0-.3,0-.6.2-.9h1c0,.1,0,.3,0,.4,0,.1,0,.2,0,.4,0,.3.1.6.3.8s.5.3.8.3.6-.1.8-.3c.2-.2.3-.5.3-.8v-2.4c0-.2,0-.3,0-.5,0-.1-.1-.3-.2-.4,0-.1-.2-.2-.3-.2-.1,0-.3,0-.4,0s-.3,0-.4,0c-.1,0-.2.1-.3.2,0,0-.2.2-.2.3,0,.1,0,.2,0,.4s0,.3,0,.4h-1.1c0-.2,0-.3,0-.5s0-.5.2-.7.2-.4.4-.6c.2-.2.4-.3.7-.4s.5-.1.9-.1.6,0,.9.2c.3.1.5.2.7.4.2.2.3.4.4.6,0,.2.1.5.1.8v2.5c0,.3,0,.6-.2.8-.1.2-.3.5-.5.6-.2.2-.4.3-.7.4-.3,0-.6.1-.9.1s-.6,0-.9-.1c-.3,0-.5-.2-.7-.4-.2-.2-.3-.4-.4-.6-.1-.2-.2-.5-.2-.8h0Z"/>
      <path class="st2" d="M65.7,7c0-.4-.1-.7-.3-1-.2-.2-.5-.4-.9-.4s-.7.1-.9.4c-.2.2-.3.6-.3,1s0,.4,0,.5c0,.2.1.3.3.4.1.1.2.2.4.3.2,0,.3,0,.5,0s.3,0,.5,0c.1,0,.3-.1.4-.3.1-.1.2-.3.2-.4,0-.2,0-.3,0-.5h0ZM62.2,4.4c0-.5.2-1,.5-1.2.3-.3.8-.4,1.5-.4h2v.9h-2c-.6,0-.9.3-.9.8v1h0c.1-.2.3-.4.6-.5.3-.1.6-.2.9-.2s.5,0,.8.2c.2.1.5.3.6.4.2.2.3.4.4.7.1.3.2.6.2.9s0,.6-.2.9c-.1.3-.3.5-.5.7-.2.2-.4.3-.7.5-.3.1-.6.2-.9.2s-.6,0-.9-.2-.5-.3-.7-.4c-.2-.2-.4-.4-.5-.7-.1-.3-.2-.6-.2-.9v-2.5Z"/>
      <path class="st2" d="M72.2,6c0-.6-.1-1.2-.4-1.5-.3-.4-.6-.6-1-.8h0c0,.2,0,.4,0,.7,0,.3,0,.5,0,.7v1.2h-1.1v-1.2c0-.5,0-1,.1-1.4h0c-.4.1-.8.4-1,.8-.2.4-.4.9-.4,1.6s0,.7.1,1c0,.3.2.5.4.7.2.2.4.3.6.5.2.1.5.2.8.2s.5,0,.8-.2c.2-.1.4-.3.6-.5.2-.2.3-.4.4-.7,0-.3.1-.6.1-1ZM67.5,6c0-.4,0-.8.2-1.2.1-.4.3-.7.5-.9s.5-.5.8-.6c.3-.2.6-.3,1-.3h0c0-.1,0-.2,0-.3h.9c0,0,0,.1,0,.2,0,0,0,.1,0,.1h0c.3,0,.7.2,1,.3.3.2.6.4.8.6.2.3.4.6.5.9.1.4.2.8.2,1.2s0,.9-.2,1.3c-.2.4-.4.7-.6,1-.3.3-.6.5-.9.6-.4.1-.7.2-1.1.2-.4,0-.8,0-1.1-.2-.4-.1-.7-.3-.9-.6-.3-.3-.5-.6-.6-1s-.2-.8-.2-1.3h0Z"/>
      <g class="st4">
        <path class="st1" d="M1.2,12.7h7.1c.2,0,.3.1.3.3v7c0,0,0,.1,0,.2l-6.9,8c-.2.2-.5,0-.5-.2v-15.3Z"/>
      </g>
      <path class="st1" d="M10.2,20.1l6.3-7.3c0,0,.1,0,.2,0h4.4c.2,0,.3.1.3.3v6.8c0,.2-.1.3-.3.3h-10.9Z"/>
      <path class="st2" d="M104.5,19.2l1.8,1.9v2.8c0,.1-.1.3-.3.3h-1.3c-.2,0-.3-.1-.3-.3v-4.7h0Z"/>
      <path class="st1" d="M10.2,20.1l6.3-7.3c0,0,.1,0,.2,0h4.4c.2,0,.3.1.3.3v6.8c0,.2-.1.3-.3.3h-10.9Z"/>
      <path class="st1" d="M1.2,10l7.4-7.3c0,0,.1,0,.2,0h16.8c.2,0,.4.3.2.5l-5.9,6.8c0,0-.1,0-.2,0H1.2Z"/>
    </g>
  </g>
</svg>