<svg width="107" height="31" viewBox="0 0 107 31" fill="none" xmlns="http://www.w3.org/2000/svg">
<path d="M8.12 21V9.592H10.68V14.248H14.488L18.248 9.592H21.432L16.728 15.288L21.432 21H18.248L14.472 16.328H10.68V21H8.12ZM23.9937 21V9.56H26.5537V21H23.9937ZM30.0706 21V9.56H32.2146L37.5106 13.272H37.5906L42.8866 9.56H45.0306V21H42.4706V12.76L38.8386 15.192V21H36.2786V15.192L32.6306 12.76V21H30.0706ZM69.175 21V9.56H71.767L79.863 17.784V9.56H82.423V21H79.831L71.735 12.76V21H69.175ZM91.7154 21.08C89.678 21.08 88.0994 20.5947 86.9794 19.624C85.8594 18.6427 85.2994 17.192 85.2994 15.272C85.2994 13.3627 85.8594 11.9227 86.9794 10.952C88.0994 9.97067 89.7154 9.48 91.8274 9.48H94.7074C96.8194 9.48 98.4354 9.97067 99.5554 10.952C100.675 11.9227 101.235 13.3627 101.235 15.272C101.235 17.192 100.675 18.6427 99.5554 19.624C98.4354 20.5947 96.846 21.08 94.7874 21.08H91.7154ZM92.0034 11.56C90.8194 11.56 89.8967 11.7733 89.2354 12.2C88.574 12.6267 88.158 13.304 87.9874 14.232H98.5474C98.3767 13.304 97.9607 12.6267 97.2994 12.2C96.638 11.7733 95.7154 11.56 94.5314 11.56H92.0034ZM92.0514 19H94.5314C95.726 19 96.6487 18.7867 97.2994 18.36C97.9607 17.9333 98.3767 17.2507 98.5474 16.312H87.9874C88.158 17.2507 88.574 17.9333 89.2354 18.36C89.8967 18.7867 90.8354 19 92.0514 19Z" fill="white"/>
<path d="M65.8402 15.4987C65.8402 13.9749 65.4529 12.5401 64.7712 11.2873C64.7595 11.2589 64.7438 11.2315 64.7262 11.2071C63.2445 8.55169 60.4346 6.73449 57.2002 6.66309C57.1855 6.66211 57.1699 6.66113 57.1552 6.66211C57.1043 6.66113 57.0535 6.66016 57.0016 6.66016C53.823 6.66016 51.0317 8.3463 49.4746 10.8716C49.4531 10.898 49.4365 10.9264 49.4228 10.9567C48.6237 12.2849 48.1641 13.839 48.1641 15.4987C48.1641 17.0225 48.5514 18.4573 49.2331 19.7102C49.2448 19.7385 49.2604 19.7659 49.2781 19.7904C50.7559 22.4399 53.557 24.2551 56.7816 24.3343C56.7933 24.3353 56.806 24.3363 56.8178 24.3363C56.8256 24.3363 56.8344 24.3353 56.8422 24.3343C56.895 24.3353 56.9488 24.3363 57.0026 24.3363C60.1813 24.3363 62.9726 22.6502 64.5296 20.1249C64.5511 20.0984 64.5678 20.0701 64.5815 20.0398C65.3795 18.7126 65.8402 17.1585 65.8402 15.4987ZM64.2147 19.0813L62.0337 15.3031L60.0258 11.8262H64.1678C64.735 12.9284 65.0578 14.1764 65.0578 15.4987C65.0578 16.7858 64.7526 18.0015 64.2147 19.0813ZM59.122 19.1722H54.8813L52.7609 15.4997L54.8813 11.8271H59.122L61.2424 15.4997L59.122 19.1722ZM63.7091 11.0437H59.348H55.3331L57.4056 7.45335C60.0336 7.58343 62.3339 8.98007 63.7091 11.0437ZM56.498 7.46019L54.3159 11.2393L52.308 14.7163L50.2375 11.1298C51.5892 9.04658 53.8748 7.62255 56.498 7.46019ZM49.7886 11.9171L51.9696 15.6953L53.9775 19.1722H49.8355C49.2683 18.07 48.9455 16.822 48.9455 15.4997C48.9455 14.2126 49.2497 12.9969 49.7886 11.9171ZM50.2933 19.9547H54.6543H58.6692L56.5967 23.5451C53.9687 23.414 51.6684 22.0174 50.2933 19.9547ZM57.5044 23.5372L59.6864 19.7581L61.6943 16.2811L63.7648 19.8676C62.4141 21.9518 60.1275 23.3749 57.5044 23.5372Z" fill="#F85623"/>
<path d="M106.997 9.83742C106.997 9.83644 106.997 9.83546 106.997 9.83448C106.956 7.11455 105.842 4.58729 103.858 2.71923C101.877 0.852149 99.2889 -0.110243 96.569 0.0100557C96.3577 0.0198361 96.1915 0.195884 96.1954 0.40714C96.2394 3.12903 97.3544 5.65531 99.3349 7.52141C101.207 9.28482 103.621 10.2413 106.174 10.2413C106.188 10.2413 106.202 10.2404 106.215 10.2404V22.9735C106.215 26.0719 103.695 28.5923 100.597 28.5923H98.3569C98.1407 28.5923 97.9656 28.7674 97.9656 28.9836C97.9656 29.1997 98.1407 29.3748 98.3569 29.3748H100.597C104.126 29.3748 106.998 26.5032 106.998 22.9735V9.84035C106.997 9.83937 106.997 9.83839 106.997 9.83742ZM106.175 9.45891C103.821 9.45891 101.597 8.5777 99.8718 6.95219C98.1407 5.3218 97.1275 3.1437 96.9915 0.782708C99.3545 0.775862 101.59 1.65708 103.322 3.28845C105.055 4.9208 106.069 7.09988 106.201 9.45891C106.193 9.45891 106.184 9.45891 106.175 9.45891Z" fill="#F85623"/>
<path d="M7.66295 23.4784C5.7812 21.7061 3.35077 20.7496 0.782433 20.7594V8.02628C0.782433 4.92785 3.30285 2.40743 6.40128 2.40743H8.641C8.85714 2.40743 9.03221 2.23236 9.03221 2.01622C9.03221 1.80007 8.85714 1.625 8.641 1.625H6.40128C2.87153 1.625 0 4.49653 0 8.02628V21.1594C0 21.1604 0 21.1614 0 21.1624C0 21.1633 0 21.1643 0 21.1653C0.0410777 23.8852 1.15507 26.4125 3.13854 28.2805C5.00953 30.044 7.42236 30.9995 9.97504 30.9995C10.1257 30.9995 10.2773 30.9966 10.4289 30.9897C10.6401 30.9799 10.8064 30.8039 10.8025 30.5926C10.7575 27.8707 9.64251 25.3445 7.66295 23.4784ZM3.6745 27.7113C1.94141 26.079 0.928161 23.8999 0.796126 21.5409C3.16299 21.533 5.39488 22.4162 7.12601 24.0476C8.85616 25.678 9.87039 27.8561 10.0054 30.2171C7.64437 30.2229 5.40661 29.3427 3.6745 27.7113Z" fill="#F85623"/>
</svg>
