<?xml version="1.0" encoding="UTF-8"?>
<svg id="Layer_1" xmlns="http://www.w3.org/2000/svg" xmlns:xlink="http://www.w3.org/1999/xlink" version="1.1" viewBox="0 0 107 31">
  <!-- Generator: Adobe Illustrator 29.5.1, SVG Export Plug-In . SVG Version: 2.1.0 Build 141)  -->
  <defs>
    <style>
      .st0 {
        fill: none;
      }

      .st1, .st2 {
        fill-rule: evenodd;
      }

      .st1, .st3 {
        fill: #3a3b3a;
      }

      .st4 {
        clip-path: url(#clippath-1);
      }

      .st5 {
        clip-path: url(#clippath-2);
      }

      .st6, .st2 {
        fill: #4b5c3e;
      }

      .st7 {
        clip-path: url(#clippath);
      }
    </style>
    <clipPath id="clippath">
      <rect class="st0" x=".5" y="2.4" width="106.1" height="26.1"/>
    </clipPath>
    <clipPath id="clippath-1">
      <rect class="st0" x=".5" y="2.4" width="106.1" height="26.1"/>
    </clipPath>
    <clipPath id="clippath-2">
      <rect class="st0" x=".6" y="2.5" width="105.9" height="26"/>
    </clipPath>
  </defs>
  <g class="st7">
    <g class="st4">
      <path class="st3" d="M41.1,15v-2c0-.2-.1-.3-.3-.3h-9.1c-.2,0-.3.1-.3.3v12.4c0,.2.1.3.3.3h2.1c.2,0,.3-.1.3-.3v-4.9c0-.2.1-.3.3-.3h6c.2,0,.3-.1.3-.3v-2c0-.2-.1-.3-.3-.3h-6c-.2,0-.3-.1-.3-.3v-1.8c0-.2.1-.3.3-.3h6.4c.2,0,.3-.1.3-.3h0Z"/>
      <path class="st3" d="M42.7,12.7h2.1c.2,0,.3.1.3.3v12.4c0,.2-.1.3-.3.3h-2.1c-.2,0-.3-.1-.3-.3v-12.4c0-.2.1-.3.3-.3Z"/>
      <path class="st3" d="M46.4,13v2c0,.2.1.3.3.3h4.4v10.1c0,.2.1.3.3.3h2.1c.2,0,.3-.1.3-.3v-10.1h4.4c.2,0,.3-.1.3-.3v-2c0-.2-.1-.3-.3-.3h-11.4c-.2,0-.3.1-.3.3h0Z"/>
      <path class="st3" d="M58.5,19.2h4.4c.2,0,.3.1.3.3v1.7c0,.2-.1.3-.3.3h-4.4c-.2,0-.3-.1-.3-.3v-1.7c0-.2.1-.3.3-.3Z"/>
      <path class="st3" d="M76.2,22.3c-.7.7-1.7,1-3.1,1s-2.4-.3-3.1-1c-.7-.7-1-1.7-1-3.1s.3-2.5,1-3.2c.7-.7,1.7-1.1,3.1-1.1,2.8,0,4.1,1.4,4.1,4.2s-.3,2.4-1,3.1h0ZM79.1,15.5c-.6-1-1.4-1.8-2.4-2.3-1-.5-2.2-.8-3.6-.8s-2.5.3-3.6.8c-1,.5-1.8,1.3-2.4,2.3-.6,1-.9,2.2-.9,3.6s.3,2.6.9,3.6c.6,1,1.4,1.8,2.4,2.3,1,.5,2.2.8,3.6.8s2.6-.3,3.6-.8c1-.5,1.8-1.3,2.4-2.3.6-1,.8-2.2.8-3.6,0-1.4-.3-2.6-.9-3.6h0Z"/>
      <path class="st3" d="M90.4,12.7c-.2,0-.3.1-.3.3v7.4c0,.8,0,1.3-.3,1.8-.2.4-.5.7-.9.9-.4.2-1,.3-1.8.3s-1.4,0-1.8-.3c-.4-.2-.8-.5-.9-.9-.2-.4-.3-1-.3-1.8v-7.4c0-.2-.1-.3-.3-.3h-2.1c-.2,0-.3.1-.3.3v7.4c0,1.8.5,3.2,1.5,4.2,1,.9,2.4,1.4,4.2,1.4s3.2-.5,4.2-1.4c1-.9,1.5-2.3,1.5-4.1v-7.4c0-.2-.1-.3-.3-.3h-2.1,0Z"/>
      <path class="st3" d="M101.1,12.7h-6.8c-.2,0-.3.1-.3.3v2c0,.2.1.3.3.3h4.4v10.1c0,.2.1.3.3.3h2.1c.2,0,.3-.1.3-.3v-10.1h2.3l-2.6-2.6Z"/>
      <path class="st6" d="M102.4,12.7l2.6,2.6h1.2c.2,0,.3-.1.3-.3v-2c0-.2-.1-.3-.3-.3h-3.8Z"/>
      <g class="st5">
        <path class="st1" d="M.6,12.8h7.2c.2,0,.3.1.3.3v7.1c0,0,0,.1,0,.2L1.1,28.4c-.2.2-.5,0-.5-.2v-15.4Z"/>
      </g>
      <path class="st2" d="M9.7,20.3l6.4-7.4c0,0,.1-.1.2-.1h4.4c.2,0,.3.1.3.3v6.9c0,.2-.1.3-.3.3h-11,0Z"/>
      <path class="st1" d="M.6,10l7.4-7.4c0,0,.1,0,.2,0h17c.2,0,.4.3.2.5l-6,6.9c0,0-.1.1-.2.1H.6Z"/>
      <path class="st3" d="M31.6,2.6h5.1c0,0,.1,0,.1.1v.6c0,0,0,.1-.1.1h-4.2c0,0-.1,0-.1.1v1.9c0,0,0,.1.1.1h4c0,0,.1,0,.1.1v.6c0,0,0,.1-.1.1h-4c0,0-.1,0-.1.1v2.2c0,0,0,.1.1.1h4.2c0,0,.1,0,.1.1v.6c0,0,0,.1-.1.1h-5.1c0,0-.1,0-.1-.1V2.7c0,0,0-.1.1-.1h0Z"/>
      <path class="st3" d="M37.9,2.6h.6c0,0,.1,0,.1.1v7.1c0,0,0,.1-.1.1h-.6c0,0-.1,0-.1-.1V2.7c0,0,0-.1.1-.1h0Z"/>
      <path class="st3" d="M43.8,5.6c-.3-.3-.8-.4-1.4-.4s-1,.1-1.3.4c-.3.3-.5.7-.6,1.2h3.9c0-.5-.3-.9-.6-1.1h0ZM40.3,9.3c-.5-.5-.8-1.2-.8-2s.3-1.6.8-2.1c.5-.5,1.2-.7,2.1-.7s1.6.2,2.1.7c.5.5.8,1.2.8,2v.2h-4.9c0,.5.2,1,.6,1.3.3.3.8.5,1.4.5s.9-.1,1.3-.3c.3-.2.5-.5.6-.9,0,0,0,0,.1,0h.7c0,0,.1,0,.1.2-.2.6-.5,1.1-.9,1.4-.5.4-1.1.5-1.9.5s-1.6-.2-2.1-.7h0Z"/>
      <path class="st3" d="M46.5,4.6h.6c0,0,.1,0,.1.1v.7c.3-.3.5-.5.9-.7.3-.2.7-.2,1.1-.2.8,0,1.4.3,1.6,1,.3-.3.6-.6.9-.7.4-.2.7-.2,1.2-.2.6,0,1.1.2,1.4.5.3.3.5.8.5,1.4v3.6h-.9v-3.4c0-.4,0-.7-.3-.9-.2-.2-.5-.3-.9-.3s-.5,0-.8.1c-.3,0-.5.2-.7.4-.2.2-.3.4-.3.7v3.2c0,0,0,.1-.1.1h-.6c0,0-.1,0-.1-.1v-3.3c0-.4,0-.7-.3-.9-.2-.2-.5-.3-.9-.3s-.6,0-.8.2c-.3.1-.5.3-.7.5-.2.2-.3.5-.3.8v3c0,0,0,.1-.1.1h-.6c0,0-.1,0-.1-.1v-5c0,0,0-.1.1-.1h0Z"/>
      <path class="st3" d="M60,5.6c-.3-.3-.8-.4-1.4-.4s-1,.1-1.3.4c-.3.3-.5.7-.6,1.2h3.9c0-.5-.3-.9-.6-1.1h0ZM56.5,9.3c-.5-.5-.8-1.2-.8-2s.3-1.6.8-2.1,1.2-.7,2.1-.7,1.6.2,2.1.7c.5.5.8,1.2.8,2v.2h-4.9c0,.5.2,1,.6,1.3.3.3.8.5,1.4.5s.9-.1,1.3-.3c.3-.2.5-.5.6-.9,0,0,0,0,.1,0h.7c0,0,.1,0,.1.2-.2.6-.5,1.1-.9,1.4-.5.4-1.1.5-1.9.5s-1.6-.2-2.1-.7h0Z"/>
      <path class="st3" d="M62.6,4.6h.6c0,0,.1,0,.1.1v.7c.3-.3.6-.6,1-.7.4-.2.8-.2,1.2-.2.7,0,1.2.2,1.5.5.3.3.5.8.5,1.4v3.4c0,0,0,.1-.1.1h-.6c0,0-.1,0-.1-.1v-3.2c0-.5-.1-.8-.3-1-.2-.2-.6-.3-1-.3s-.6,0-.9.2c-.3.1-.6.3-.8.5-.2.2-.3.5-.3.8v3.1c0,0,0,.1-.1.1h-.6c0,0-.1,0-.1-.1v-5c0,0,0-.1.1-.1Z"/>
      <path class="st3" d="M69.7,9.5c-.2-.3-.4-.7-.4-1.3v-2.8h-.9v-.8h.9v-2h.9v2h1.8v.8h-1.8v2.9c0,.6.3.9.9.9s.4,0,.7,0c0,0,.1,0,.1,0l.2.5c0,0,0,.1,0,.2-.2,0-.3,0-.5.1-.2,0-.4,0-.6,0-.6,0-1-.1-1.3-.4h0Z"/>
    </g>
  </g>
</svg>