<svg width="186" height="54" viewBox="0 0 186 54" fill="none" xmlns="http://www.w3.org/2000/svg">
<path d="M14.0741 35.8672V16.0938H18.5113V24.164H25.1117L31.6289 16.0938H37.1477L28.9943 25.9666L37.1477 35.8672H31.6289L25.084 27.7693H18.5113V35.8672H14.0741ZM41.5879 35.8672V16.0383H46.0252V35.8672H41.5879ZM52.1209 35.8672V16.0383H55.8371L65.0166 22.4723H65.1553L74.3348 16.0383H78.051V35.8672H73.6137V21.5849L67.3184 25.8002V35.8672H62.8812V25.8002L56.5581 21.5849V35.8672H52.1209ZM119.9 35.8672V16.0383H124.393L138.426 30.2929V16.0383H142.863V35.8672H138.37L124.337 21.5849V35.8672H119.9ZM158.969 36.0059C155.438 36.0059 152.702 35.1646 150.76 33.4822C148.819 31.7812 147.848 29.2668 147.848 25.9389C147.848 22.6295 148.819 20.1335 150.76 18.4511C152.702 16.7501 155.503 15.8997 159.163 15.8997H164.155C167.816 15.8997 170.617 16.7501 172.558 18.4511C174.5 20.1335 175.47 22.6295 175.47 25.9389C175.47 29.2668 174.5 31.7812 172.558 33.4822C170.617 35.1646 167.862 36.0059 164.294 36.0059H158.969ZM159.468 19.5049C157.416 19.5049 155.817 19.8747 154.671 20.6142C153.524 21.3538 152.803 22.5278 152.508 24.1363H170.811C170.515 22.5278 169.794 21.3538 168.648 20.6142C167.502 19.8747 165.902 19.5049 163.85 19.5049H159.468ZM159.552 32.4006H163.85C165.921 32.4006 167.52 32.0308 168.648 31.2913C169.794 30.5518 170.515 29.3685 170.811 27.7415H152.508C152.803 29.3685 153.524 30.5518 154.671 31.2913C155.817 32.0308 157.444 32.4006 159.552 32.4006Z" fill="white"/>
<path d="M114.116 26.8667C114.116 24.2255 113.445 21.7386 112.264 19.567C112.243 19.5178 112.216 19.4704 112.186 19.428C109.617 14.8255 104.747 11.6757 99.1408 11.552C99.1153 11.5503 99.0882 11.5486 99.0628 11.5503C98.9746 11.5486 98.8865 11.5469 98.7966 11.5469C93.2871 11.5469 88.4489 14.4695 85.7501 18.8465C85.7128 18.8923 85.684 18.9415 85.6603 18.994C84.2753 21.2961 83.4785 23.9899 83.4785 26.8667C83.4785 29.5078 84.1498 31.9947 85.3314 34.1663C85.3517 34.2155 85.3789 34.263 85.4094 34.3053C87.9709 38.8977 92.826 42.0441 98.4152 42.1814C98.4355 42.1831 98.4576 42.1848 98.4779 42.1848C98.4915 42.1848 98.5067 42.1831 98.5203 42.1814C98.6118 42.1831 98.7051 42.1848 98.7983 42.1848C104.308 42.1848 109.146 39.2622 111.845 34.8851C111.882 34.8393 111.911 34.7902 111.935 34.7376C113.318 32.4372 114.116 29.7435 114.116 26.8667ZM111.299 33.0763L107.519 26.5276L104.038 20.5011H111.218C112.201 22.4116 112.76 24.5747 112.76 26.8667C112.76 29.0976 112.231 31.2048 111.299 33.0763ZM102.472 33.234H95.1214L91.4461 26.8684L95.1214 20.5028H102.472L106.147 26.8684L102.472 33.234ZM110.423 19.1449H102.863H95.9046L99.4967 12.9217C104.052 13.1472 108.039 15.568 110.423 19.1449ZM97.9236 12.9336L94.1415 19.4839L90.6612 25.5105L87.0724 19.2941C89.4152 15.6832 93.377 13.215 97.9236 12.9336ZM86.2943 20.6587L90.0747 27.2074L93.555 33.234H86.3757C85.3924 31.3234 84.833 29.1603 84.833 26.8684C84.833 24.6374 85.3602 22.5303 86.2943 20.6587ZM87.169 34.5901H94.7281H101.687L98.0948 40.8133C93.5397 40.5862 89.5525 38.1654 87.169 34.5901ZM99.668 40.7998L103.45 34.2494L106.93 28.2229L110.519 34.4393C108.178 38.0518 104.215 40.5184 99.668 40.7998Z" fill="white"/>
<path d="M185.461 17.0511C185.461 17.0494 185.461 17.0477 185.461 17.046C185.389 12.3316 183.458 7.95111 180.021 4.71322C176.586 1.47702 172.1 -0.191084 167.386 0.0174294C167.02 0.0343817 166.732 0.339523 166.738 0.705693C166.815 5.42352 168.747 9.8023 172.18 13.0368C175.425 16.0933 179.609 17.7512 184.035 17.7512C184.059 17.7512 184.082 17.7495 184.106 17.7495V39.8197C184.106 45.1902 179.737 49.5588 174.367 49.5588H170.485C170.11 49.5588 169.807 49.8623 169.807 50.2369C169.807 50.6116 170.11 50.915 170.485 50.915H174.367C180.485 50.915 185.462 45.9378 185.462 39.8197V17.0562C185.461 17.0545 185.461 17.0528 185.461 17.0511ZM184.037 16.3951C179.956 16.3951 176.101 14.8677 173.111 12.0502C170.11 9.22423 168.354 5.44895 168.118 1.35666C172.214 1.34479 176.089 2.8722 179.092 5.69984C182.095 8.52918 183.852 12.3062 184.081 16.3951C184.067 16.3951 184.052 16.3951 184.037 16.3951Z" fill="white"/>
<path d="M13.2821 40.6946C10.0205 37.6229 5.80786 35.9649 1.35618 35.9819V13.9117C1.35618 8.5412 5.72479 4.17259 11.0953 4.17259H14.9774C15.352 4.17259 15.6555 3.86914 15.6555 3.4945C15.6555 3.11985 15.352 2.81641 14.9774 2.81641H11.0953C4.9772 2.81641 0 7.7936 0 13.9117V36.6752C0 36.6769 0 36.6786 0 36.6803C0 36.682 0 36.6837 0 36.6854C0.0711997 41.3999 2.00207 45.7803 5.43999 49.0182C8.68297 52.0747 12.8651 53.731 17.2897 53.731C17.5507 53.731 17.8135 53.7259 18.0762 53.714C18.4424 53.6971 18.7306 53.3919 18.7238 53.0257C18.6458 48.3079 16.7133 43.9291 13.2821 40.6946ZM6.36898 48.0316C3.36503 45.2023 1.60877 41.4253 1.37992 37.3364C5.48238 37.3228 9.35089 38.8536 12.3514 41.6813C15.3503 44.5072 17.1083 48.2825 17.3422 52.3748C13.2499 52.3849 9.37123 50.8592 6.36898 48.0316Z" fill="white"/>
</svg>
