<?xml version="1.0" encoding="UTF-8"?>
<svg id="Layer_1" xmlns="http://www.w3.org/2000/svg" xmlns:xlink="http://www.w3.org/1999/xlink" version="1.1" viewBox="0 0 121 31">
  <!-- Generator: Adobe Illustrator 29.5.1, SVG Export Plug-In . SVG Version: 2.1.0 Build 141)  -->
  <defs>
    <style>
      .st0 {
        fill: none;
      }

      .st1, .st2 {
        fill-rule: evenodd;
      }

      .st1, .st3 {
        fill: #3a3b3a;
      }

      .st4 {
        clip-path: url(#clippath-1);
      }

      .st5 {
        clip-path: url(#clippath-2);
      }

      .st6, .st2 {
        fill: #4b5c3e;
      }

      .st7 {
        clip-path: url(#clippath);
      }
    </style>
    <clipPath id="clippath">
      <rect class="st0" y=".3" width="120.7" height="29.7"/>
    </clipPath>
    <clipPath id="clippath-1">
      <rect class="st0" x="0" y=".3" width="120.7" height="29.7"/>
    </clipPath>
    <clipPath id="clippath-2">
      <rect class="st0" x=".1" y=".4" width="120.6" height="29.5"/>
    </clipPath>
  </defs>
  <g class="st7">
    <g class="st4">
      <path class="st3" d="M46.2,14.5v-2.3c0-.2-.1-.3-.3-.3h-10.4c-.2,0-.3.1-.3.3v14.1c0,.2.1.3.3.3h2.4c.2,0,.3-.1.3-.3v-5.6c0-.2.1-.3.3-.3h6.8c.2,0,.3-.1.3-.3v-2.3c0-.2-.1-.3-.3-.3h-6.8c-.2,0-.3-.1-.3-.3v-2.1c0-.2.1-.3.3-.3h7.3c.2,0,.3-.1.3-.3h0Z"/>
      <path class="st3" d="M48,11.9h2.4c.2,0,.3.1.3.3v14.1c0,.2-.1.3-.3.3h-2.4c-.2,0-.3-.1-.3-.3v-14.1c0-.2.1-.3.3-.3Z"/>
      <path class="st3" d="M52.2,12.3v2.3c0,.2.1.3.3.3h5v11.5c0,.2.1.3.3.3h2.4c.2,0,.3-.1.3-.3v-11.5h5c.2,0,.3-.1.3-.3v-2.3c0-.2-.1-.3-.3-.3h-13c-.2,0-.3.1-.3.3h0Z"/>
      <path class="st3" d="M66.1,19.4h5c.2,0,.3.1.3.3v2c0,.2-.1.3-.3.3h-5c-.2,0-.3-.1-.3-.3v-2c0-.2.1-.3.3-.3Z"/>
      <path class="st3" d="M86.2,22.9c-.8.8-2,1.2-3.5,1.2s-2.8-.4-3.5-1.2c-.8-.8-1.2-2-1.2-3.6s.4-2.8,1.2-3.6c.8-.8,2-1.2,3.5-1.2,3.1,0,4.7,1.6,4.7,4.8s-.4,2.8-1.2,3.6h0ZM89.5,15.2c-.7-1.2-1.6-2-2.7-2.6-1.2-.6-2.5-.9-4.1-.9s-2.9.3-4.1.9c-1.2.6-2.1,1.5-2.7,2.7-.6,1.2-1,2.5-1,4.1s.3,2.9,1,4.1c.6,1.1,1.6,2,2.7,2.6,1.2.6,2.5.9,4.1.9s2.9-.3,4.1-.9c1.2-.6,2.1-1.5,2.7-2.6.6-1.2,1-2.5,1-4.1,0-1.6-.3-2.9-1-4.1h0Z"/>
      <path class="st3" d="M102.3,11.9c-.2,0-.3.1-.3.3v8.4c0,.9-.1,1.5-.3,2-.2.5-.6.8-1.1,1-.5.2-1.2.3-2.1.3s-1.6-.1-2.1-.3c-.5-.2-.9-.6-1.1-1.1-.2-.5-.3-1.2-.3-2v-8.4c0-.2-.1-.3-.3-.3h-2.4c-.2,0-.3.1-.3.3v8.4c0,2.1.6,3.7,1.7,4.7,1.1,1.1,2.7,1.6,4.8,1.6s3.7-.5,4.8-1.6c1.1-1,1.7-2.6,1.7-4.7v-8.4c0-.2-.1-.3-.3-.3h-2.4,0Z"/>
      <path class="st3" d="M114.5,11.9h-7.7c-.2,0-.3.1-.3.3v2.3c0,.2.1.3.3.3h5v11.5c0,.2.1.3.3.3h2.4c.2,0,.3-.1.3-.3v-11.5h2.6l-2.9-2.9Z"/>
      <path class="st6" d="M116.1,11.9l2.9,2.9h1.4c.2,0,.3-.1.3-.3v-2.3c0-.2-.1-.3-.3-.3h-4.3Z"/>
      <g class="st5">
        <path class="st1" d="M.1,12h8.2c.2,0,.3.1.3.3v8.1c0,0,0,.2,0,.2L.7,29.8c-.2.2-.6,0-.6-.2V12Z"/>
      </g>
      <path class="st2" d="M10.6,20.6l7.2-8.4c0,0,.2-.1.3-.1h5c.2,0,.3.1.3.3v7.9c0,.2-.1.3-.3.3h-12.5,0Z"/>
      <path class="st1" d="M.1,8.9L8.6.5c0,0,.1,0,.2,0h19.3c.3,0,.4.3.3.5l-6.8,7.9c0,0-.2.1-.3.1H.1Z"/>
      <path class="st3" d="M35.4.4h5.8c0,0,.1,0,.1.1v.7c0,0,0,.1-.1.1h-4.7c0,0-.1,0-.1.1v2.2c0,0,0,.1.1.1h4.5c0,0,.1,0,.1.1v.7c0,0,0,.1-.1.1h-4.5c0,0-.1,0-.1.1v2.6c0,0,0,.1.1.1h4.7c0,0,.1,0,.1.1v.7c0,0,0,.1-.1.1h-5.8c0,0-.1,0-.1-.1V.6c0,0,0-.1.1-.1h0Z"/>
      <path class="st3" d="M42.6.4h.7c0,0,.1,0,.1.1v8c0,0,0,.1-.1.1h-.7c0,0-.1,0-.1-.1V.6c0,0,0-.1.1-.1h0Z"/>
      <path class="st3" d="M49.4,3.9c-.4-.3-.9-.5-1.6-.5s-1.1.2-1.5.5c-.4.3-.6.7-.7,1.3h4.5c0-.6-.3-1-.7-1.3h0ZM45.4,8.1c-.6-.6-.9-1.3-.9-2.3s.3-1.8.9-2.3c.6-.6,1.4-.8,2.4-.8s1.8.3,2.4.8c.6.6.9,1.3.9,2.3v.2h-5.6c0,.6.3,1.1.6,1.5.4.4.9.5,1.6.5s1.1-.1,1.4-.4c.3-.2.6-.6.7-1,0,0,0,0,.1,0h.8c0,0,.2,0,.1.2-.2.7-.5,1.2-1,1.6-.6.4-1.3.6-2.2.6s-1.8-.3-2.4-.8h0Z"/>
      <path class="st3" d="M52.3,2.7h.7c0,0,.1,0,.1.1v.8c.3-.4.6-.6,1-.8.4-.2.8-.3,1.2-.3.9,0,1.6.4,1.9,1.1.3-.4.7-.6,1.1-.8.4-.2.8-.3,1.3-.3.7,0,1.3.2,1.6.5.4.4.6.9.6,1.6v4.1h-1v-3.9c0-.5-.1-.8-.3-1.1-.2-.2-.6-.3-1-.3s-.6,0-.9.2c-.3.1-.6.3-.8.5-.2.2-.3.5-.3.8v3.6c0,0,0,.1-.1.1h-.7c0,0-.1,0-.1-.1v-3.7c0-.5-.1-.8-.3-1.1-.2-.2-.6-.3-1-.3s-.6,0-1,.2c-.3.1-.6.3-.8.6-.2.3-.3.6-.3.9v3.4c0,0,0,.1-.1.1h-.7c0,0-.1,0-.1-.1V2.9c0,0,0-.1.1-.1h0Z"/>
      <path class="st3" d="M67.8,3.9c-.4-.3-.9-.5-1.6-.5s-1.1.2-1.5.5c-.4.3-.6.7-.7,1.3h4.5c0-.6-.3-1-.7-1.3h0ZM63.8,8.1c-.6-.6-.9-1.3-.9-2.3s.3-1.8.9-2.3,1.4-.8,2.4-.8,1.8.3,2.4.8c.6.6.9,1.3.9,2.3v.2h-5.6c0,.6.3,1.1.6,1.5.4.4.9.5,1.6.5s1.1-.1,1.4-.4c.3-.2.6-.6.7-1,0,0,0,0,.1,0h.8c0,0,.2,0,.1.2-.2.7-.5,1.2-1,1.6-.6.4-1.3.6-2.2.6s-1.8-.3-2.4-.8h0Z"/>
      <path class="st3" d="M70.8,2.7h.7c0,0,.1,0,.1.1v.8c.3-.4.7-.6,1.1-.8.4-.2.9-.3,1.4-.3.8,0,1.3.2,1.7.6.4.4.6.9.6,1.6v3.8c0,0,0,.1-.1.1h-.7c0,0-.1,0-.1-.1v-3.6c0-.5-.1-.9-.4-1.1-.2-.2-.6-.4-1.2-.4s-.7,0-1,.2c-.3.1-.6.3-.9.5-.2.2-.4.5-.4.9v3.5c0,0,0,.1-.1.1h-.7c0,0-.1,0-.1-.1V2.9c0,0,0-.1.1-.1Z"/>
      <path class="st3" d="M78.8,8.3c-.3-.3-.4-.8-.5-1.5v-3.1h-1.1v-.9h1.1V.5h1v2.3h2v.9h-2v3.3c0,.7.4,1,1.1,1s.5,0,.8,0c0,0,.1,0,.2,0l.2.5c0,0,0,.2,0,.2-.2,0-.4.1-.6.1-.2,0-.4,0-.6,0-.7,0-1.2-.2-1.4-.5h0Z"/>
    </g>
  </g>
</svg>