<?xml version="1.0" encoding="UTF-8"?>
<svg id="Layer_1" xmlns="http://www.w3.org/2000/svg" xmlns:xlink="http://www.w3.org/1999/xlink" version="1.1" viewBox="0 0 107 31">
  <!-- Generator: Adobe Illustrator 29.5.1, SVG Export Plug-In . SVG Version: 2.1.0 Build 141)  -->
  <defs>
    <style>
      .st0 {
        fill: none;
      }

      .st1, .st2 {
        fill-rule: evenodd;
      }

      .st1, .st3 {
        fill: #3b3c3b;
      }

      .st4, .st2 {
        fill: #4c5d3f;
      }

      .st5 {
        clip-path: url(#clippath-3);
      }

      .st6 {
        clip-path: url(#clippath-2);
      }
    </style>
    <clipPath id="clippath">
      <rect class="st0" x=".4" y="2.4" width="106.5" height="26.1"/>
    </clipPath>
    <clipPath id="clippath-1">
      <rect class="st0" x=".4" y="2.4" width="106.5" height="26.1"/>
    </clipPath>
    <clipPath id="clippath-2">
      <rect class="st0" x=".4" y="3.1" width="106.5" height="26.1"/>
    </clipPath>
    <clipPath id="clippath-3">
      <rect class="st0" x=".5" y="3.2" width="106.4" height="25.9"/>
    </clipPath>
  </defs>
  <g class="st6">
    <path class="st3" d="M35.3,17.6c0,.1-.1.2-.2.3,0,0-.2.1-.3.2s-.2,0-.3,0h-.7c-.1,0-.2,0-.3,0-.1,0-.2-.1-.3-.2,0,0-.1-.2-.2-.3,0-.1,0-.2,0-.3v-1.3c0-.1,0-.2,0-.3,0-.1.1-.2.2-.3,0,0,.2-.1.3-.2.1,0,.2,0,.3,0h.6c.1,0,.2,0,.3,0,.1,0,.2.1.3.2,0,0,.1.2.2.3,0,.1,0,.2,0,.3v1.3c0,.1,0,.2,0,.3h0ZM41.5,19.9c0-.2-.1-.4-.2-.6-.1-.2-.2-.3-.3-.5,0,0,0,0-.1-.1.2-.2.3-.4.4-.7.2-.3.2-.7.2-1.1v-.9c0-.4,0-.7-.2-1-.1-.3-.3-.6-.6-.9-.2-.2-.5-.4-.9-.6-.3-.1-.7-.2-1-.2h-.6c-.4,0-.8,0-1.1.2-.3.1-.5.3-.7.4-.2-.2-.4-.3-.7-.4-.3-.1-.7-.2-1.1-.2h-.6c-.4,0-.7,0-1,.2-.3.1-.6.3-.9.6-.2.2-.4.5-.6.9-.1.3-.2.7-.2,1v1.1c0,.4,0,.7.2,1,.1.3.3.6.6.8.2.2.5.4.9.6.3.1.7.2,1,.2h.6c.4,0,.7,0,1-.2.3-.1.6-.3.9-.6.2-.2.4-.5.6-.8.1-.3.2-.7.2-1v-1.2c0-.1,0-.2,0-.3,0-.1.1-.2.2-.3,0,0,.2-.1.3-.2.1,0,.2,0,.3,0h.6c.1,0,.2,0,.3,0,.1,0,.2.1.3.2,0,0,.2.2.2.3,0,0,0,.2,0,.3v1.2c0,.1,0,.2,0,.3,0,.1-.1.2-.2.3,0,0-.2.1-.3.2-.1,0-.2,0-.3,0h-.9c-.2,0-.3.1-.3.3v1.1c0,.1.1.3.3.3h1.1c.1,0,.2,0,.3,0,.1,0,.2.1.3.2,0,0,.1.2.2.3,0,.1,0,.2,0,.3v2.1c0,.1,0,.2,0,.3,0,.1-.1.2-.2.3,0,0-.2.1-.3.2-.1,0-.2,0-.3,0h-2.7c-.1,0-.2,0-.3,0-.1,0-.2-.1-.3-.2,0,0-.1-.2-.2-.3,0-.1,0-.2,0-.3v-1.3c0-.2-.1-.3-.3-.3h-1.3c-.2,0-.3.1-.3.3v1.2c0,.4,0,.7.2,1,.1.3.3.6.6.9.2.2.5.4.8.6.3.1.7.2,1,.2h2.7c.4,0,.7,0,1-.2.3-.1.6-.3.9-.6.2-.2.4-.5.6-.8.1-.3.2-.7.2-1v-1.9c0-.2,0-.5-.1-.7h0Z"/>
    <path class="st3" d="M49.4,14.2c-.2-.2-.5-.4-.9-.6-.3-.1-.7-.2-1-.2h-1.3c-.4,0-.7,0-1,.2-.3.1-.6.3-.8.6-.2.2-.4.5-.6.8-.1.3-.2.7-.2,1v8.8c0,.2.1.3.3.3h1.3c.2,0,.3-.1.3-.3v-8.9c0-.1,0-.2,0-.3,0-.1.1-.2.2-.3,0,0,.2-.1.3-.2.1,0,.2,0,.3,0h1.3c.1,0,.2,0,.3,0,.1,0,.2.1.3.2,0,0,.1.2.2.3,0,.1,0,.2,0,.3v8.9c0,.2.1.3.3.3h1.3c.2,0,.3-.1.3-.3v-8.8c0-.4,0-.7-.2-1-.1-.3-.3-.6-.6-.8h0Z"/>
    <path class="st3" d="M56.3,22.6c0,.1,0,.2,0,.3,0,.1-.1.2-.2.3,0,0-.2.1-.3.2-.1,0-.2,0-.3,0h-.7c-.1,0-.2,0-.3,0-.1,0-.2-.1-.3-.2,0,0-.1-.2-.2-.3,0-.1,0-.2,0-.3v-6.7c0-.1,0-.2,0-.3,0-.1.1-.2.2-.3,0,0,.2-.1.3-.2.1,0,.2,0,.3,0h.7c.1,0,.2,0,.3,0s.2.1.3.2c0,0,.1.2.2.3,0,.1,0,.2,0,.3v6.7h0ZM62.1,15c-.1-.3-.3-.6-.6-.8-.2-.2-.5-.4-.8-.6-.3-.1-.7-.2-1-.2h-.7c-.4,0-.7,0-1.1.2-.3.1-.5.3-.7.4-.2-.2-.4-.3-.7-.4-.3-.1-.7-.2-1.1-.2h-.7c-.4,0-.7,0-1,.2-.3.1-.6.3-.9.6-.2.2-.4.5-.6.9-.1.3-.2.7-.2,1v6.5c0,.4,0,.7.2,1,.1.3.3.6.6.9.2.2.5.4.9.6.3.1.7.2,1,.2h.7c.4,0,.7,0,1-.2.3-.1.6-.3.9-.6.2-.2.4-.5.6-.8.1-.3.2-.7.2-1v-6.6c0-.1,0-.2,0-.3,0-.1.1-.2.2-.3,0,0,.2-.1.3-.2.1,0,.2,0,.3,0h.7c.1,0,.2,0,.3,0,.1,0,.2.1.3.2,0,0,.1.2.2.3,0,.1,0,.2,0,.3v8.9c0,.2.1.3.3.3h1.3c.2,0,.3-.1.3-.3v-8.8c0-.4,0-.7-.2-1h0Z"/>
    <path class="st3" d="M77.4,18.2c0-.2,0-.3-.1-.5,0-.2-.1-.3-.2-.5,0-.1-.2-.2-.3-.4-.1-.1-.3-.2-.4-.3-.2-.1-.3-.2-.5-.4l-.7-.5c-.4-.3-.7-.5-1-.7-.3-.2-.4-.3-.4-.4,0,0,0,0,0,0,0,0,0,0,0-.2,0,0,0-.2,0-.3,0-.1,0-.3,0-.4s-.1-.2-.2-.2h-1.3c-.1,0-.2.1-.2.2,0,.2,0,.4,0,.6,0,.2,0,.4,0,.5,0,.2,0,.3.1.5,0,.2.1.3.2.5,0,.1.2.3.3.4.1.1.3.2.4.3.1.1.3.2.5.4l.7.4h0c.4.3.8.5,1,.7.3.2.4.3.5.4,0,0,0,0,0,0,0,0,0,0,0,.2,0,0,0,.2,0,.3,0,.1,0,.3,0,.4v3.4c0,.1,0,.2,0,.3,0,.1-.1.2-.2.3,0,0-.2.1-.3.2-.1,0-.2,0-.3,0h-1.3c-.1,0-.2,0-.3,0-.1,0-.2-.1-.3-.2s-.1-.2-.2-.3c0-.1,0-.2,0-.3v-2.6c0-.2-.1-.3-.3-.3h-1.3c-.2,0-.3.1-.3.3v2.5c0,.4,0,.7.2,1,.1.3.3.6.6.9.2.2.5.4.9.6.3.1.7.2,1,.2h1.3c.4,0,.7,0,1-.2.3-.1.6-.3.9-.6.2-.2.4-.5.6-.9.1-.3.2-.7.2-1v-3.3c0-.2,0-.4,0-.6,0-.2,0-.4,0-.5h0Z"/>
    <path class="st3" d="M85.2,14.1c-.2-.2-.5-.4-.9-.6-.3-.1-.7-.2-1-.2h-.3c-.4,0-.7,0-1.1.2-.3.1-.5.3-.7.4-.2-.2-.4-.3-.7-.4-.3-.1-.7-.2-1.1-.2h-.9c-.2,0-.3.1-.3.3v1.2c0,.2.1.3.3.3h.9c.1,0,.2,0,.3,0,.1,0,.2.1.3.2,0,0,.1.2.2.3,0,.1,0,.2,0,.3v2.2c0,.2.1.3.3.3h1.3c.2,0,.3-.1.3-.3v-2.2c0-.1,0-.2,0-.3,0-.1.1-.2.2-.3,0,0,.2-.1.3-.2,0,0,.2,0,.3,0h.3c.1,0,.2,0,.3,0,.1,0,.2.1.3.2,0,0,.1.2.2.3,0,.1,0,.2,0,.3v6.7c0,.1,0,.2,0,.3,0,.1-.1.2-.2.3,0,0-.2.1-.3.2-.1,0-.2,0-.3,0h-1.3c-.1,0-.2,0-.3,0-.1,0-.2-.1-.3-.2,0,0-.1-.2-.2-.3,0-.1,0-.2,0-.3v-1.3c0-.2-.1-.3-.3-.3h-1.3c-.2,0-.3.1-.3.3v1.2c0,.4,0,.7.2,1,.1.3.3.6.6.9.2.2.5.4.9.6.3.1.7.2,1,.2h1.3c.4,0,.7,0,1-.2.3-.1.6-.3.9-.6.2-.2.4-.5.6-.8.1-.3.2-.7.2-1v-6.5c0-.4,0-.7-.2-1-.1-.3-.3-.6-.6-.8h0Z"/>
    <path class="st3" d="M92.1,22.6c0,.1,0,.2,0,.3,0,.1-.1.2-.2.3,0,0-.2.1-.3.2-.1,0-.2,0-.3,0h-.7c-.1,0-.2,0-.3,0-.1,0-.2-.1-.3-.2,0,0-.1-.2-.2-.3,0-.1,0-.2,0-.3v-6.7c0-.1,0-.2,0-.3,0-.1.1-.2.2-.3,0,0,.2-.1.3-.2.1,0,.2,0,.3,0h.7c.1,0,.2,0,.3,0,.1,0,.2.1.3.2,0,0,.1.2.2.3,0,.1,0,.2,0,.3v6.7h0ZM98,15c-.1-.3-.3-.6-.6-.8-.2-.2-.5-.4-.8-.6-.3-.1-.7-.2-1-.2h-.7c-.4,0-.7,0-1.1.2-.3.1-.5.3-.7.4-.2-.2-.4-.3-.7-.4-.3-.1-.7-.2-1.1-.2h-.7c-.4,0-.7,0-1,.2-.3.1-.6.3-.9.6-.2.2-.4.5-.6.9-.1.3-.2.7-.2,1v6.5c0,.4,0,.7.2,1,.1.3.3.6.6.9.2.2.5.4.9.6.3.1.7.2,1,.2h.7c.4,0,.7,0,1-.2.3-.1.6-.3.8-.6.2-.2.4-.5.6-.8.1-.3.2-.7.2-1v-6.6c0-.1,0-.2,0-.3,0-.1.1-.2.2-.3,0,0,.2-.1.3-.2.1,0,.2,0,.3,0h.7c.1,0,.2,0,.3,0,.1,0,.2.1.3.2,0,0,.1.2.2.3,0,.1,0,.2,0,.3v8.9c0,.2.1.3.3.3h1.3c.2,0,.3-.1.3-.3v-8.8c0-.4,0-.7-.2-1h0Z"/>
    <path class="st3" d="M106.8,16v4.7l-1.8-1.9v-2.8c0-.1,0-.2,0-.3,0-.1-.1-.2-.2-.3,0,0-.2-.1-.3-.2-.1,0-.2,0-.3,0h-1.3c-.1,0-.2,0-.3,0-.1,0-.2.1-.3.2,0,0-.1.2-.2.3,0,.1,0,.2,0,.3v8.9c0,.2-.1.3-.3.3h-1.3c-.2,0-.3-.1-.3-.3v-8.8c0-.4,0-.7.2-1,.1-.3.3-.6.6-.9.2-.2.5-.4.9-.6.3-.1.7-.2,1-.2h1.3c.4,0,.7,0,1,.2.3.1.6.3.8.6.2.2.4.5.6.9.1.3.2.7.2,1Z"/>
    <path class="st4" d="M105,20.1l1.8,1.9v2.8c0,.2-.1.3-.3.3h-1.3c-.2,0-.3-.1-.3-.3v-4.7h0Z"/>
    <path class="st3" d="M64.5,18.2h4.2c.2,0,.3.1.3.3v1.7c0,.2-.1.3-.3.3h-4.2c-.2,0-.3-.1-.3-.3v-1.7c0-.2.1-.3.3-.3Z"/>
    <path class="st3" d="M31.5,8c0-.3,0-.6.2-.9h1.1c0,.1,0,.3,0,.4,0,.1,0,.2,0,.4,0,.4.1.6.3.8.2.2.5.3.8.3s.6-.1.8-.3c.2-.2.3-.5.3-.9v-2.5c0-.2,0-.3,0-.5,0-.1-.1-.3-.2-.4,0-.1-.2-.2-.3-.2-.1,0-.3,0-.4,0s-.3,0-.4,0c-.1,0-.2.1-.3.2,0,0-.2.2-.2.3,0,.1,0,.2,0,.4s0,.3,0,.4h-1.1c0-.2,0-.3,0-.5s0-.5.2-.7c.1-.2.2-.4.4-.6.2-.2.4-.3.7-.4.3,0,.6-.1.9-.1s.6,0,.9.2c.3.1.5.2.7.4.2.2.3.4.4.6,0,.2.1.5.1.8v2.6c0,.3,0,.6-.2.8-.1.2-.3.5-.5.6-.2.2-.4.3-.7.4-.3,0-.6.1-.9.1s-.6,0-.9-.1-.5-.2-.7-.4c-.2-.2-.3-.4-.4-.6-.1-.2-.2-.5-.2-.8h0Z"/>
    <path class="st3" d="M37.5,8.9v-.8h.9c-.2-.1-.4-.2-.6-.4-.2-.1-.4-.3-.5-.5-.2-.2-.3-.4-.4-.7,0-.3-.1-.5-.1-.8s0-.7.1-1c0-.3.2-.5.4-.7.2-.2.4-.4.6-.5.2-.1.5-.2.7-.2s.6,0,.8.2c.2.2.4.4.5.6h0c0-.1.1-.2.2-.4,0-.1.2-.2.3-.3.1,0,.2-.1.4-.2.1,0,.3,0,.4,0s.3,0,.4,0c.1,0,.3,0,.4.2.1,0,.2.2.3.3,0,.1.1.2.2.4h0c.1-.3.3-.5.5-.6.2-.1.5-.2.8-.2s.5,0,.7.2c.2.1.4.3.6.5.2.2.3.5.4.7,0,.3.1.6.1.9,0,.7-.1,1.3-.3,1.9h-1.1c.2-.5.3-1.2.3-1.8s0-.8-.2-1.1-.3-.4-.6-.4-.4,0-.5.3c-.1.2-.2.4-.2.7v1.6h-1v-1.6c0-.3,0-.5-.2-.7-.1-.2-.3-.2-.5-.2s-.4,0-.5.3c-.1.2-.2.4-.2.7v1.6h-1v-1.6c0-.3,0-.5-.2-.7-.1-.2-.3-.2-.5-.2s-.4.1-.6.4c-.2.3-.2.6-.2,1.1,0,.3,0,.7.2.9.1.3.3.5.5.7.2.2.4.4.7.5.3.1.5.2.8.2h.3s.5,0,.5,0c.1,0,.2,0,.3,0,.1,0,.2,0,.3,0,.2,0,.4,0,.5,0,.5.1.8.3,1.1.6.2.2.4.6.4.9h-1.2c0-.3-.3-.5-.7-.7-.4-.1-.8-.2-1.4-.2h-2.7Z"/>
    <path class="st3" d="M46.1,8c0-.3,0-.6.2-.9h1.1c0,.1,0,.3,0,.4,0,.1,0,.2,0,.4,0,.4.1.6.3.8.2.2.5.3.8.3s.6-.1.8-.3c.2-.2.3-.5.3-.9v-2.5c0-.2,0-.3,0-.5s-.1-.3-.2-.4c0-.1-.2-.2-.3-.2-.1,0-.3,0-.4,0s-.3,0-.4,0c-.1,0-.2.1-.3.2,0,0-.2.2-.2.3,0,.1,0,.2,0,.4s0,.3,0,.4h-1.1c0-.2,0-.3,0-.5s0-.5.2-.7c.1-.2.2-.4.4-.6.2-.2.4-.3.7-.4.3,0,.6-.1.9-.1s.6,0,.9.2c.3.1.5.2.7.4.2.2.3.4.4.6,0,.2.1.5.1.8v2.6c0,.3,0,.6-.2.8-.1.2-.3.5-.5.6-.2.2-.4.3-.7.4-.3,0-.6.1-.9.1s-.6,0-.9-.1c-.3,0-.5-.2-.7-.4-.2-.2-.3-.4-.4-.6-.1-.2-.2-.5-.2-.8h0Z"/>
    <path class="st3" d="M54.9,7.7c0-.4-.1-.7-.3-1-.2-.2-.5-.4-.9-.4s-.6.1-.9.4c-.2.2-.3.6-.3,1s.1.7.3,1c.2.2.5.4.9.4s.3,0,.5,0c.2,0,.3-.2.4-.3.1-.1.2-.3.3-.4,0-.2,0-.3,0-.5h0ZM51.4,7.6c0-.3,0-.6.2-.9.1-.3.2-.5.4-.7.2-.2.4-.3.6-.4.2-.1.5-.2.8-.2s.6,0,.9.2c.3.1.5.3.6.5h0v-.8c0-.2,0-.4,0-.5,0-.1-.1-.3-.2-.4-.1,0-.2-.2-.4-.2-.1,0-.3,0-.4,0-.3,0-.5,0-.7.2-.2.1-.3.3-.3.5h-1.1c0-.2,0-.4.2-.6.1-.2.3-.4.5-.5.2-.2.4-.3.7-.4.3,0,.5-.1.9-.1.3,0,.6,0,.9.1.3,0,.5.2.7.4.2.2.3.4.5.6.1.2.2.5.2.8v2.4c0,.3,0,.6-.2.9-.1.3-.3.5-.5.7-.2.2-.5.3-.7.5s-.6.2-.9.2-.6,0-.9-.2c-.3-.1-.5-.3-.7-.5-.2-.2-.4-.4-.5-.7-.1-.3-.2-.6-.2-.9h0Z"/>
    <path class="st3" d="M56.8,8c0-.3,0-.6.2-.9h1.1c0,.1,0,.3,0,.4,0,.1,0,.2,0,.4,0,.4.1.6.3.8.2.2.5.3.8.3s.6-.1.8-.3c.2-.2.3-.5.3-.9v-2.5c0-.2,0-.3,0-.5,0-.1-.1-.3-.2-.4,0-.1-.2-.2-.3-.2-.1,0-.3,0-.4,0s-.3,0-.4,0c-.1,0-.2.1-.3.2,0,0-.2.2-.2.3,0,.1,0,.2,0,.4s0,.3,0,.4h-1.1c0-.2,0-.3,0-.5s0-.5.2-.7c.1-.2.2-.4.4-.6.2-.2.4-.3.7-.4s.6-.1.9-.1.6,0,.9.2c.3.1.5.2.7.4.2.2.3.4.4.6,0,.2.1.5.1.8v2.6c0,.3,0,.6-.2.8-.1.2-.3.5-.5.6-.2.2-.4.3-.7.4-.3,0-.6.1-.9.1s-.6,0-.9-.1c-.3,0-.5-.2-.7-.4-.2-.2-.3-.4-.4-.6-.1-.2-.2-.5-.2-.8h0Z"/>
    <path class="st3" d="M65.8,7.7c0-.4-.1-.7-.3-1-.2-.2-.5-.4-.9-.4s-.7.1-.9.4c-.2.2-.3.6-.3,1s0,.4,0,.5c0,.2.1.3.3.4.1.1.2.2.4.3.2,0,.3,0,.5,0s.3,0,.5,0c.1,0,.3-.2.4-.3.1-.1.2-.3.2-.4,0-.2,0-.3,0-.5h0ZM62.3,5.1c0-.5.2-1,.5-1.2.3-.3.8-.4,1.5-.4h2.1v.9h-2c-.6,0-.9.3-.9.8v1h0c.1-.2.3-.4.6-.5.3-.1.6-.2.9-.2s.5,0,.8.2c.2.1.5.3.6.4.2.2.3.4.4.7.1.3.2.6.2.9s0,.6-.2.9c-.1.3-.3.5-.5.7-.2.2-.4.3-.7.5-.3.1-.6.2-.9.2s-.6,0-.9-.2-.5-.3-.7-.5c-.2-.2-.4-.4-.5-.7-.1-.3-.2-.6-.2-.9v-2.5Z"/>
    <path class="st3" d="M72.4,6.7c0-.7-.1-1.2-.4-1.6-.3-.4-.6-.6-1-.8h0c0,.2,0,.5,0,.7,0,.3,0,.5,0,.7v1.2h-1.1v-1.3c0-.5,0-1,.1-1.4h0c-.4.1-.8.4-1,.8-.3.4-.4.9-.4,1.6s0,.7.1,1c0,.3.2.5.4.7.2.2.4.4.6.5.2.1.5.2.8.2s.5,0,.8-.2c.2-.1.4-.3.6-.5.2-.2.3-.4.4-.7,0-.3.1-.6.1-1ZM67.5,6.7c0-.5,0-.9.2-1.2.1-.4.3-.7.5-.9.2-.3.5-.5.8-.6.3-.2.6-.3,1-.3h0c0-.1,0-.2,0-.3h.9c0,0,0,.1,0,.2,0,0,0,.1,0,.1h0c.3,0,.7.2,1,.3.3.2.6.4.8.7.2.3.4.6.5.9.1.4.2.8.2,1.2s0,1-.2,1.3c-.2.4-.4.7-.6,1-.3.3-.6.5-.9.6-.4.1-.7.2-1.2.2-.4,0-.8,0-1.2-.2-.4-.1-.7-.4-.9-.6-.3-.3-.5-.6-.6-1s-.2-.8-.2-1.3h0Z"/>
    <g class="st5">
      <path class="st1" d="M.6,13.4h7.2c.2,0,.3.1.3.3v7.1c0,0,0,.1,0,.2L1.1,29c-.2.2-.5,0-.5-.2v-15.4Z"/>
    </g>
    <path class="st2" d="M9.7,20.9l6.4-7.4c0,0,.1-.1.2-.1h4.4c.2,0,.3.1.3.3v6.9c0,.2-.1.3-.3.3h-11Z"/>
    <path class="st4" d="M105,20.1l1.8,1.9v2.8c0,.2-.1.3-.3.3h-1.3c-.2,0-.3-.1-.3-.3v-4.7h0Z"/>
    <path class="st2" d="M9.7,20.9l6.4-7.4c0,0,.1-.1.2-.1h4.4c.2,0,.3.1.3.3v6.9c0,.2-.1.3-.3.3h-11Z"/>
    <path class="st1" d="M.6,10.7L8,3.3c0,0,.1,0,.2,0h17c.2,0,.4.3.2.5l-6,6.9c0,0-.1.1-.2.1H.6Z"/>
  </g>
</svg>