<svg width="34" height="34" viewBox="0 0 34 34" fill="none" xmlns="http://www.w3.org/2000/svg">
<path d="M33.062 16.9719C33.062 14.1237 32.3381 11.4418 31.0639 9.1C31.042 9.04698 31.0127 8.9958 30.9798 8.95009C28.2102 3.98675 22.958 0.590109 16.9124 0.456656C16.885 0.454828 16.8558 0.452999 16.8284 0.454827C16.7333 0.452999 16.6382 0.451172 16.5413 0.451172C10.6 0.451172 5.3825 3.60285 2.47214 8.32305C2.43192 8.37241 2.40084 8.42542 2.37525 8.48209C0.881677 10.9647 0.0224609 13.8696 0.0224609 16.9719C0.0224609 19.8201 0.746396 22.5019 2.02059 24.8438C2.04253 24.8968 2.07178 24.948 2.10469 24.9937C4.86697 29.946 10.1027 33.339 16.13 33.4871C16.1519 33.4889 16.1757 33.4907 16.1977 33.4907C16.2123 33.4907 16.2287 33.4889 16.2434 33.4871C16.3421 33.4889 16.4426 33.4907 16.5432 33.4907C22.4845 33.4907 27.702 30.3391 30.6124 25.6189C30.6526 25.5695 30.6837 25.5165 30.7093 25.4598C32.201 22.9791 33.062 20.0742 33.062 16.9719ZM30.0237 23.6683L25.947 16.6063L22.1939 10.1073H29.936C30.9963 12.1676 31.5995 14.5003 31.5995 16.9719C31.5995 19.3777 31.0292 21.65 30.0237 23.6683ZM20.5047 23.8383H12.578L8.61461 16.9737L12.578 10.1091H20.5047L24.4681 16.9737L20.5047 23.8383ZM29.0786 8.6448H20.927H13.4226L17.2963 1.93378C22.2085 2.17692 26.5082 4.78747 29.0786 8.6448ZM15.5999 1.94657L11.5213 9.01042L7.7682 15.5094L3.89807 8.80567C6.42453 4.91178 10.6968 2.25004 15.5999 1.94657ZM3.05897 10.2773L7.13567 17.3393L10.8888 23.8383H3.14671C2.08641 21.778 1.48313 19.4453 1.48313 16.9737C1.48313 14.5679 2.05167 12.2955 3.05897 10.2773ZM4.00227 25.3008H12.1539H19.6583L15.7845 32.0118C10.8723 31.7668 6.57261 29.1563 4.00227 25.3008ZM17.481 31.9972L21.5595 24.9333L25.3126 18.4344L29.1828 25.1381C26.6581 29.0338 22.384 31.6937 17.481 31.9972Z" fill="#F85623"/>
</svg>
