<svg width="200" height="58" viewBox="0 0 200 58" fill="none" xmlns="http://www.w3.org/2000/svg">
<path d="M9.17 38V15.897H14.13V24.918H21.508L28.793 15.897H34.962L25.848 26.933L34.962 38H28.793L21.477 28.948H14.13V38H9.17ZM39.9254 38V15.835H44.8854V38H39.9254ZM51.6993 38V15.835H55.8533L66.1143 23.027H66.2693L76.5303 15.835H80.6843V38H75.7243V22.035L68.6873 26.747V38H63.7273V26.747L56.6593 22.035V38H51.6993ZM127.464 38V15.835H132.486L148.172 31.769V15.835H153.132V38H148.11L132.424 22.035V38H127.464ZM171.136 38.155C167.189 38.155 164.13 37.2147 161.96 35.334C159.79 33.4327 158.705 30.622 158.705 26.902C158.705 23.2027 159.79 20.4127 161.96 18.532C164.13 16.6307 167.261 15.68 171.353 15.68H176.933C181.025 15.68 184.156 16.6307 186.326 18.532C188.496 20.4127 189.581 23.2027 189.581 26.902C189.581 30.622 188.496 33.4327 186.326 35.334C184.156 37.2147 181.077 38.155 177.088 38.155H171.136ZM171.694 19.71C169.4 19.71 167.612 20.1233 166.331 20.95C165.05 21.7767 164.244 23.089 163.913 24.887H184.373C184.042 23.089 183.236 21.7767 181.955 20.95C180.674 20.1233 178.886 19.71 176.592 19.71H171.694ZM171.787 34.125H176.592C178.907 34.125 180.694 33.7117 181.955 32.885C183.236 32.0583 184.042 30.7357 184.373 28.917H163.913C164.244 30.7357 165.05 32.0583 166.331 32.885C167.612 33.7117 169.431 34.125 171.787 34.125Z" fill="white"/>
<path d="M120.062 25.9719C120.062 23.1237 119.338 20.4418 118.064 18.1C118.042 18.047 118.013 17.9958 117.98 17.9501C115.21 12.9868 109.958 9.59011 103.912 9.45666C103.885 9.45483 103.856 9.453 103.828 9.45483C103.733 9.453 103.638 9.45117 103.541 9.45117C97.6 9.45117 92.3825 12.6028 89.4721 17.323C89.4319 17.3724 89.4008 17.4254 89.3752 17.4821C87.8817 19.9647 87.0225 22.8696 87.0225 25.9719C87.0225 28.8201 87.7464 31.5019 89.0206 33.8438C89.0425 33.8968 89.0718 33.948 89.1047 33.9937C91.867 38.946 97.1027 42.339 103.13 42.4871C103.152 42.4889 103.176 42.4907 103.198 42.4907C103.212 42.4907 103.229 42.4889 103.243 42.4871C103.342 42.4889 103.443 42.4907 103.543 42.4907C109.485 42.4907 114.702 39.3391 117.612 34.6189C117.653 34.5695 117.684 34.5165 117.709 34.4598C119.201 31.9791 120.062 29.0742 120.062 25.9719ZM117.024 32.6683L112.947 25.6063L109.194 19.1073H116.936C117.996 21.1676 118.6 23.5003 118.6 25.9719C118.6 28.3777 118.029 30.65 117.024 32.6683ZM107.505 32.8383H99.578L95.6146 25.9737L99.578 19.1091H107.505L111.468 25.9737L107.505 32.8383ZM116.079 17.6448H107.927H100.423L104.296 10.9338C109.209 11.1769 113.508 13.7875 116.079 17.6448ZM102.6 10.9466L98.5213 18.0104L94.7682 24.5094L90.8981 17.8057C93.4245 13.9118 97.6968 11.25 102.6 10.9466ZM90.059 19.2773L94.1357 26.3393L97.8888 32.8383H90.1467C89.0864 30.778 88.4831 28.4453 88.4831 25.9737C88.4831 23.5679 89.0517 21.2955 90.059 19.2773ZM91.0023 34.3008H99.1539H106.658L102.784 41.0118C97.8723 40.7668 93.5726 38.1563 91.0023 34.3008ZM104.481 40.9972L108.56 33.9333L112.313 27.4344L116.183 34.1381C113.658 38.0338 109.384 40.6937 104.481 40.9972Z" fill="#F85623"/>
</svg>
