<svg width="200" height="58" viewBox="0 0 200 58" fill="none" xmlns="http://www.w3.org/2000/svg">
<path d="M12.1977 39.5234V18.1334H16.9977V26.8634H24.1377L31.1877 18.1334H37.1577L28.3377 28.8134L37.1577 39.5234H31.1877L24.1077 30.7634H16.9977V39.5234H12.1977ZM41.9609 39.5234V18.0734H46.7609V39.5234H41.9609ZM53.3551 39.5234V18.0734H57.3751L67.3051 25.0334H67.4551L77.3851 18.0734H81.4051V39.5234H76.6051V24.0734L69.7951 28.6334V39.5234H64.9951V28.6334L58.1551 24.0734V39.5234H53.3551ZM126.676 39.5234V18.0734H131.536L146.716 33.4934V18.0734H151.516V39.5234H146.656L131.476 24.0734V39.5234H126.676ZM168.939 39.6734C165.119 39.6734 162.159 38.7634 160.059 36.9434C157.959 35.1034 156.909 32.3834 156.909 28.7834C156.909 25.2034 157.959 22.5034 160.059 20.6834C162.159 18.8434 165.189 17.9234 169.149 17.9234H174.549C178.509 17.9234 181.539 18.8434 183.639 20.6834C185.739 22.5034 186.789 25.2034 186.789 28.7834C186.789 32.3834 185.739 35.1034 183.639 36.9434C181.539 38.7634 178.559 39.6734 174.699 39.6734H168.939ZM169.479 21.8234C167.259 21.8234 165.529 22.2234 164.289 23.0234C163.049 23.8234 162.269 25.0934 161.949 26.8334H181.749C181.429 25.0934 180.649 23.8234 179.409 23.0234C178.169 22.2234 176.439 21.8234 174.219 21.8234H169.479ZM169.569 35.7734H174.219C176.459 35.7734 178.189 35.3734 179.409 34.5734C180.649 33.7734 181.429 32.4934 181.749 30.7334H161.949C162.269 32.4934 163.049 33.7734 164.289 34.5734C165.529 35.3734 167.289 35.7734 169.569 35.7734Z" fill="#151515"/>
<path d="M199.998 18.4054C199.998 18.4035 199.998 18.4017 199.998 18.3999C199.922 13.311 197.839 8.58261 194.132 5.08755C190.428 1.59433 185.591 -0.20626 180.507 0.0188137C180.112 0.0371124 179.801 0.366489 179.809 0.761741C179.891 5.85427 181.975 10.5808 185.677 14.0722C189.176 17.3715 193.688 19.1611 198.461 19.1611C198.487 19.1611 198.512 19.1593 198.538 19.1593V42.9823C198.538 48.7794 193.827 53.4949 188.035 53.4949H183.849C183.445 53.4949 183.118 53.8225 183.118 54.2269C183.118 54.6313 183.445 54.9588 183.849 54.9588H188.035C194.633 54.9588 200 49.5863 200 42.9823V18.4108C199.998 18.409 199.998 18.4072 199.998 18.4054ZM198.463 17.6972C194.063 17.6972 189.905 16.0485 186.681 13.0072C183.445 9.95684 181.551 5.88172 181.297 1.46441C185.714 1.4516 189.893 3.10032 193.13 6.15254C196.37 9.20659 198.264 13.2835 198.51 17.6972C198.496 17.6972 198.479 17.6972 198.463 17.6972Z" fill="#F85623"/>
<path d="M14.3233 43.9296C10.806 40.6139 6.26313 38.8243 1.46249 38.8426V15.0195C1.46249 9.22244 6.17355 4.50687 11.965 4.50687H16.1514C16.5554 4.50687 16.8827 4.17932 16.8827 3.77492C16.8827 3.37052 16.5554 3.04297 16.1514 3.04297H11.965C5.36735 3.04297 0 8.41547 0 15.0195V39.591C0 39.5928 0 39.5946 0 39.5965C0 39.5983 0 39.6001 0 39.602C0.076781 44.6908 2.15901 49.4192 5.86643 52.9143C9.36362 56.2135 13.8736 58.0013 18.645 58.0013C18.9265 58.0013 19.2099 57.9958 19.4932 57.983C19.8881 57.9647 20.1989 57.6353 20.1916 57.2401C20.1075 52.1475 18.0234 47.421 14.3233 43.9296ZM6.86824 51.8493C3.62881 48.7952 1.73488 44.7183 1.48809 40.3046C5.91213 40.29 10.0839 41.9424 13.3197 44.9946C16.5536 48.045 18.4494 52.1201 18.7017 56.5374C14.2886 56.5484 10.1058 54.9015 6.86824 51.8493Z" fill="#F85623"/>
</svg>
