<svg width="56" height="56" viewBox="0 0 56 56" fill="none" xmlns="http://www.w3.org/2000/svg">
<g clip-path="url(#clip0_97_24316)">
<path d="M55.7826 46.3663C55.9213 46.2366 56 46.0545 56 45.8641L56 41.468C56 41.1838 55.8255 40.9284 55.5605 40.8249L50.6953 38.9267L50.6953 36.1605L55.5605 34.2623C55.8255 34.1588 56 33.9042 56 33.6192L56 23.2265C56 22.9422 55.8255 22.6869 55.5605 22.5834L50.6953 20.6852L50.6953 17.919L55.5605 16.0206C55.8255 15.9171 56 15.6619 56 15.3777L56 10.9327C56 10.7423 55.9213 10.5601 55.7833 10.4297C55.6446 10.2993 55.4576 10.2318 55.2678 10.2435L44.0345 10.9335C43.6709 10.9556 43.3872 11.2577 43.3872 11.6222L43.3872 11.923L14.0221 11.9229C13.6406 11.9229 13.3321 12.2321 13.3321 12.613L13.3321 13.9129L6.73908 13.9129C6.35756 13.9129 6.04908 14.2221 6.04908 14.6029L6.04908 15.5019L4.8498 15.5019C2.61632 15.5026 0.799537 17.3194 0.799537 19.553L0.799536 37.2447C0.799536 39.4775 2.61631 41.2943 4.84912 41.2943L6.0484 41.2943L6.0484 42.1941C6.0484 42.575 6.35688 42.8841 6.73841 42.8841L13.3314 42.8841L13.3314 44.1834C13.3314 44.5642 13.6399 44.8734 14.0214 44.8734L43.3867 44.8734L43.3867 45.1742C43.3867 45.5385 43.6702 45.8408 44.034 45.8629L55.2673 46.5529C55.457 46.5643 55.6439 46.4968 55.7826 46.3663ZM4.84939 39.9141C3.37694 39.9141 2.17981 38.7163 2.17981 37.2446L2.17981 19.5529C2.17981 18.0804 3.37694 16.8826 4.84939 16.8826L6.04868 16.8826L6.04867 39.9143L4.84939 39.9143L4.84939 39.9141ZM7.42868 41.5038L7.42868 15.2934L13.3317 15.2934L13.3317 41.5038L7.42868 41.5038ZM14.7116 43.4931L14.7116 13.3035L24.7843 13.3035L24.7843 43.4931L14.7116 43.4931ZM26.1636 43.4931L26.1636 13.3035L29.6501 13.3035L29.6501 43.4931L26.1636 43.4931ZM31.0301 43.4931L31.0301 13.3035L38.4008 13.3035L38.4008 43.4931L31.0301 43.4931ZM39.7808 43.4931L39.7808 13.3035L43.3867 13.3035L43.3867 43.4931L39.7808 43.4931ZM44.7667 44.5254L44.7667 12.2712L54.62 11.6668L54.62 14.9063L49.7548 16.8044C49.4899 16.9079 49.3153 17.1632 49.3153 17.4476L49.3153 21.1563C49.3153 21.4405 49.4899 21.6959 49.7548 21.7994L54.62 23.6976L54.62 33.1479L49.7548 35.0461C49.4899 35.1496 49.3153 35.4049 49.3153 35.6892L49.3153 39.398C49.3153 39.6822 49.4899 39.9376 49.7548 40.0411L54.62 41.9399L54.62 45.1305L44.7667 44.5254Z" fill="white"/>
<path d="M37.3086 16.065C37.3086 15.6842 37.0001 15.375 36.6186 15.375L32.8139 15.375C32.433 15.375 32.1239 15.6842 32.1239 16.065C32.1239 16.4459 32.4324 16.755 32.8139 16.755L36.6186 16.755C37.0002 16.755 37.3086 16.446 37.3086 16.065Z" fill="white"/>
<path d="M23.4805 16.065C23.4805 15.6842 23.172 15.375 22.7905 15.375L16.6446 15.375C16.2631 15.375 15.9546 15.6842 15.9546 16.065C15.9546 16.4459 16.2631 16.755 16.6446 16.755L22.7905 16.755C23.172 16.755 23.4805 16.446 23.4805 16.065Z" fill="white"/>
<path d="M37.3086 19.5943C37.3086 19.2135 37.0001 18.9043 36.6186 18.9043L32.8139 18.9043C32.433 18.9043 32.1239 19.2135 32.1239 19.5943C32.1239 19.9751 32.4324 20.2843 32.8139 20.2843L36.6186 20.2843C37.0002 20.2843 37.3086 19.9751 37.3086 19.5943Z" fill="white"/>
<path d="M23.4805 19.5943C23.4805 19.2135 23.172 18.9043 22.7905 18.9043L16.6446 18.9043C16.2631 18.9043 15.9546 19.2135 15.9546 19.5943C15.9546 19.9751 16.2631 20.2843 16.6446 20.2843L22.7905 20.2843C23.172 20.2843 23.4805 19.9758 23.4805 19.5943Z" fill="white"/>
<path d="M37.3086 23.1138C37.3086 22.733 37.0001 22.4238 36.6186 22.4238L32.8139 22.4238C32.433 22.4238 32.1239 22.733 32.1239 23.1138C32.1239 23.4947 32.4324 23.8038 32.8139 23.8038L36.6186 23.8038C37.0002 23.8038 37.3086 23.4947 37.3086 23.1138Z" fill="white"/>
<path d="M23.4805 23.1138C23.4805 22.733 23.172 22.4238 22.7905 22.4238L16.6446 22.4238C16.2631 22.4238 15.9546 22.733 15.9546 23.1138C15.9546 23.4947 16.2631 23.8038 16.6446 23.8038L22.7905 23.8038C23.172 23.8038 23.4805 23.4947 23.4805 23.1138Z" fill="white"/>
<path d="M37.3086 26.6353C37.3086 26.2545 37.0001 25.9453 36.6186 25.9453L32.8139 25.9453C32.433 25.9453 32.1239 26.2545 32.1239 26.6353C32.1239 27.0162 32.4324 27.3253 32.8139 27.3253L36.6186 27.3253C37.0002 27.3253 37.3086 27.0162 37.3086 26.6353Z" fill="white"/>
<path d="M23.4805 26.6353C23.4805 26.2545 23.172 25.9453 22.7905 25.9453L16.6446 25.9453C16.2631 25.9453 15.9546 26.2545 15.9546 26.6353C15.9546 27.0162 16.2631 27.3253 16.6446 27.3253L22.7905 27.3253C23.172 27.3253 23.4805 27.0168 23.4805 26.6353Z" fill="white"/>
<path d="M37.3086 30.1627C37.3086 29.7818 37.0001 29.4727 36.6186 29.4727L32.8139 29.4727C32.433 29.4727 32.1239 29.7818 32.1239 30.1627C32.1239 30.5435 32.4324 30.8527 32.8139 30.8527L36.6186 30.8527C37.0002 30.8527 37.3086 30.5436 37.3086 30.1627Z" fill="white"/>
<path d="M23.4805 30.1627C23.4805 29.7818 23.172 29.4727 22.7905 29.4727L16.6446 29.4727C16.2631 29.4727 15.9546 29.7818 15.9546 30.1627C15.9546 30.5435 16.2631 30.8527 16.6446 30.8527L22.7905 30.8527C23.172 30.8527 23.4805 30.5436 23.4805 30.1627Z" fill="white"/>
<path d="M37.3086 33.6822C37.3086 33.3013 37.0001 32.9922 36.6186 32.9922L32.8139 32.9922C32.433 32.9922 32.1239 33.3013 32.1239 33.6822C32.1239 34.063 32.4324 34.3722 32.8139 34.3722L36.6186 34.3722C37.0002 34.3722 37.3086 34.063 37.3086 33.6822Z" fill="white"/>
<path d="M23.4805 33.6822C23.4805 33.3013 23.172 32.9922 22.7905 32.9922L16.6446 32.9922C16.2631 32.9922 15.9546 33.3013 15.9546 33.6822C15.9546 34.063 16.2631 34.3722 16.6446 34.3722L22.7905 34.3722C23.172 34.3722 23.4805 34.063 23.4805 33.6822Z" fill="white"/>
<path d="M37.3086 37.2076C37.3086 36.8267 37.0001 36.5176 36.6186 36.5176L32.8139 36.5176C32.433 36.5176 32.1239 36.8261 32.1239 37.2076C32.1239 37.5884 32.4324 37.8976 32.8139 37.8976L36.6186 37.8976C37.0002 37.8976 37.3086 37.5884 37.3086 37.2076Z" fill="white"/>
<path d="M23.4805 37.2076C23.4805 36.8267 23.172 36.5176 22.7905 36.5176L16.6446 36.5176C16.2631 36.5176 15.9546 36.8267 15.9546 37.2076C15.9546 37.5884 16.2631 37.8976 16.6446 37.8976L22.7905 37.8976C23.172 37.8976 23.4805 37.5884 23.4805 37.2076Z" fill="white"/>
<path d="M37.3086 40.731C37.3086 40.3502 37.0001 40.041 36.6186 40.041L32.8139 40.041C32.433 40.041 32.1239 40.3502 32.1239 40.731C32.1239 41.1119 32.4324 41.421 32.8139 41.421L36.6186 41.421C37.0002 41.421 37.3086 41.1119 37.3086 40.731Z" fill="white"/>
<path d="M23.4805 40.731C23.4805 40.3502 23.172 40.041 22.7905 40.041L16.6446 40.041C16.2631 40.041 15.9546 40.3502 15.9546 40.731C15.9546 41.1119 16.2631 41.421 16.6446 41.421L22.7905 41.421C23.172 41.421 23.4805 41.1119 23.4805 40.731Z" fill="white"/>
</g>
<defs>
<clipPath id="clip0_97_24316">
<rect width="55.2002" height="55.2002" fill="white" transform="translate(56 0.800781) rotate(90)"/>
</clipPath>
</defs>
</svg>
