<svg width="58" height="43" viewBox="0 0 58 43" fill="none" xmlns="http://www.w3.org/2000/svg">
<g clip-path="url(#clip0_97_20701)">
<path d="M33.0411 42.2831H24.9637C24.6317 42.2831 24.3641 42.014 24.3641 41.6834V38.7468L1.64419 38.8023C1.32098 38.8096 1.03579 38.5259 1.04311 38.2012V8.41017C1.04311 8.07818 1.31221 7.81055 1.64273 7.81055C1.97472 7.81055 2.24382 8.07965 2.24382 8.41017V37.6002L24.9637 37.546C25.2869 37.5387 25.5721 37.8225 25.5648 38.1457V41.0824H32.4415V37.957C32.4356 37.6338 32.7193 37.3501 33.0411 37.3574L55.7625 37.3618V8.41017C55.7625 8.07818 56.0316 7.81055 56.3621 7.81055C56.6941 7.81055 56.9617 8.07965 56.9617 8.41017V37.9629C56.9676 38.2861 56.6838 38.5698 56.3621 38.5625L33.6407 38.5581V41.6849C33.6407 42.014 33.3731 42.2831 33.0411 42.2831Z" fill="#57E2D0"/>
<path d="M51.782 0.293441H31.4299C30.491 0.289053 29.5959 0.739502 29.0329 1.48976C28.4844 0.758515 27.6128 0.283203 26.63 0.283203H6.27931C5.94732 0.283203 5.67969 0.552303 5.67969 0.882827V33.4439C5.67969 33.7759 5.95025 34.0435 6.28077 34.0435C6.33489 34.0435 24.1671 34.0318 24.1671 34.0318C25.8636 34.0333 27.4899 34.8332 28.5283 36.1729C28.733 36.5166 29.2698 36.5444 29.5082 36.2153C30.5436 34.8683 32.1743 34.064 33.8737 34.064H33.8766L51.782 34.0727C52.1038 34.0786 52.3889 33.7949 52.3831 33.4731V0.894527C52.3816 0.56254 52.114 0.293441 51.782 0.293441ZM28.4303 34.3623C27.2384 33.3868 25.7276 32.8325 24.1671 32.8311L6.87894 32.8238V1.48391H26.63C27.623 1.48391 28.4303 2.29121 28.4303 3.28278V34.3623ZM51.1824 32.8735L33.8781 32.8647C33.8766 32.8647 33.8752 32.8647 33.8752 32.8647C32.3249 32.8647 30.8215 33.4146 29.6339 34.3799L29.631 3.29449C29.6105 2.32631 30.4632 1.47368 31.4299 1.49415H51.1809V32.8735H51.1824Z" fill="#57E2D0"/>
<path d="M33.0559 14.3383V5.62625H47.754V14.3383H33.0559Z" fill="#57E2D0" stroke="#57E2D0" stroke-width="0.877499"/>
<path d="M33.0559 28.7212V20.0091H47.754V28.7212H33.0559Z" fill="#57E2D0" stroke="#57E2D0" stroke-width="0.877499"/>
<path d="M25.4408 6.49414H9.86525C9.53326 6.49414 9.26562 6.76324 9.26562 7.09376V27.2309C9.26562 27.5614 9.53472 27.8305 9.86525 27.8305H25.4408C25.7728 27.8305 26.0405 27.5614 26.0405 27.2309V7.09376C26.0419 6.76324 25.7728 6.49414 25.4408 6.49414ZM18.9152 26.6313L18.0699 25.002L20.6804 20.8398L24.3513 26.6327H18.9152V26.6313ZM24.8412 25.1644L21.185 19.3934C20.9671 19.0248 20.3865 19.0263 20.17 19.3963L17.4293 23.7662L14.9299 18.9444C14.731 18.5276 14.0904 18.5159 13.8754 18.9254L10.4663 24.9538V7.69631H24.8427V25.1644H24.8412Z" fill="#57E2D0"/>
<path d="M20.1835 13.7587C20.1835 14.9507 19.2168 15.9159 18.0234 15.9159C16.83 15.9159 15.8633 14.9507 15.8633 13.7587C15.8633 12.5668 16.83 11.6016 18.0234 11.6016C19.2168 11.6016 20.1835 12.5668 20.1835 13.7587Z" fill="#57E2D0"/>
<path d="M57.08 5.18722C57.08 5.61866 56.7305 5.9682 56.3005 5.9682C55.8691 5.9682 55.5195 5.61866 55.5195 5.18722C55.5195 4.75579 55.8691 4.40625 56.3005 4.40625C56.7305 4.40771 57.08 4.75725 57.08 5.18722Z" fill="#57E2D0"/>
<path d="M2.48236 5.18722C2.48236 5.61866 2.13282 5.9682 1.70139 5.9682C1.26995 5.9682 0.921875 5.61866 0.921875 5.18722C0.921875 4.75579 1.27141 4.40625 1.70139 4.40625C2.13136 4.40625 2.48236 4.75725 2.48236 5.18722Z" fill="#57E2D0"/>
</g>
<defs>
<clipPath id="clip0_97_20701">
<rect width="56.1599" height="42" fill="white" transform="translate(0.921875 0.285156)"/>
</clipPath>
</defs>
</svg>
