<svg width="63" height="63" viewBox="0 0 63 63" fill="none" xmlns="http://www.w3.org/2000/svg">
<path d="M60.5626 52.0975H2.43756C2.24565 52.095 2.0623 52.0176 1.92658 51.8819C1.79087 51.7462 1.71351 51.5628 1.711 51.3709V11.6522C1.70972 11.5555 1.7275 11.4595 1.76332 11.3697C1.79914 11.2799 1.85231 11.198 1.91978 11.1287C1.98724 11.0595 2.0677 11.0042 2.15654 10.966C2.24538 10.9278 2.34088 10.9075 2.43756 10.9062H60.5626C60.7545 10.9088 60.9378 10.9861 61.0735 11.1218C61.2093 11.2575 61.2866 11.4409 61.2891 11.6328V51.3516C61.2904 51.4482 61.2726 51.5442 61.2368 51.6341C61.201 51.7239 61.1478 51.8058 61.0804 51.875C61.0129 51.9443 60.9324 51.9996 60.8436 52.0378C60.7547 52.0759 60.6593 52.0962 60.5626 52.0975ZM54.9632 50.6444H59.8069V45.8006H54.9632V50.6444ZM43.5998 50.6444H53.5101V45.8006H43.5998V50.6444ZM32.2266 50.6444H42.1563V45.8006H32.2266V50.6444ZM20.8438 50.6444H30.7735V45.8006H20.8438V50.6444ZM9.48038 50.6444H19.4004V45.8006H9.49006L9.48038 50.6444ZM3.15444 50.6444H7.99819V45.8006H3.15444V50.6444ZM3.15444 44.3184H59.8263V41.4122H50.7588C50.5661 41.4122 50.3813 41.3356 50.2451 41.1994C50.1088 41.0631 50.0323 40.8783 50.0323 40.6856V22.3569C50.0323 22.1642 50.1088 21.9794 50.2451 21.8431C50.3813 21.7069 50.5661 21.6303 50.7588 21.6303H59.836V18.7241H3.16413V21.6303H12.2413C12.434 21.6303 12.6188 21.7069 12.7551 21.8431C12.8913 21.9794 12.9679 22.1642 12.9679 22.3569V40.6469C12.9679 40.8396 12.8913 41.0244 12.7551 41.1606C12.6188 41.2969 12.434 41.3734 12.2413 41.3734H3.16413L3.15444 44.3184ZM51.4757 39.9203H59.8263V23.0834H51.4854L51.4757 39.9203ZM3.15444 39.9203H11.5051V23.0834H3.16413L3.15444 39.9203ZM54.9632 17.2322H59.8069V12.3884H54.9632V17.2322ZM43.5998 17.2322H53.5101V12.3884H43.5998V17.2322ZM32.2266 17.2322H42.1563V12.3884H32.2266V17.2322ZM20.8438 17.2322H30.7735V12.3884H20.8438V17.2322ZM9.48038 17.2322H19.4004V12.3884H9.49006L9.48038 17.2322ZM3.15444 17.2322H7.99819V12.3884H3.15444V17.2322ZM46.351 41.3734H16.6491C16.4564 41.3734 16.2716 41.2969 16.1354 41.1606C15.9991 41.0244 15.9226 40.8396 15.9226 40.6469V22.3569C15.9226 22.1642 15.9991 21.9794 16.1354 21.8431C16.2716 21.7069 16.4564 21.6303 16.6491 21.6303H46.351C46.5437 21.6303 46.7285 21.7069 46.8648 21.8431C47.001 21.9794 47.0776 22.1642 47.0776 22.3569V40.6469C47.0776 40.8396 47.001 41.0244 46.8648 41.1606C46.7285 41.2969 46.5437 41.3734 46.351 41.3734ZM17.3757 39.9203H45.6244V23.0834H17.3757V39.9203ZM26.7241 37.6825C26.5323 37.6783 26.3491 37.6023 26.2107 37.4694L21.5801 32.8387C20.5765 31.9174 19.9285 30.6727 19.7491 29.3222C19.6828 28.7817 19.7407 28.2333 19.9186 27.7186C20.0965 27.204 20.3897 26.7368 20.7756 26.3527C21.1616 25.9686 21.6302 25.6777 22.1457 25.5024C22.6612 25.327 23.2099 25.2716 23.7501 25.3406C24.8494 25.4672 25.8838 25.9269 26.7144 26.6581C27.3322 26.0501 28.1089 25.6285 28.9554 25.4418C29.8018 25.255 30.6838 25.3106 31.5001 25.6022C32.314 25.3168 33.1915 25.2645 34.0336 25.451C34.8758 25.6376 35.649 26.0557 36.2663 26.6581C38.5138 24.7787 40.9163 25.0209 42.2241 26.3191C43.5319 27.6172 43.8129 30.4072 41.4298 32.8L36.7798 37.4306C36.6435 37.5667 36.4589 37.6431 36.2663 37.6431C36.0738 37.6431 35.8891 37.5667 35.7529 37.4306L31.5001 33.2262L27.2376 37.4694C27.0992 37.6023 26.9159 37.6783 26.7241 37.6825ZM32.5366 32.1606L36.3148 35.9291L40.4513 31.8119C42.2435 30.01 42.1176 28.2566 41.2457 27.3944C40.3738 26.5322 38.6204 26.4256 36.8282 28.1887C36.7614 28.2573 36.6816 28.3118 36.5934 28.349C36.5052 28.3862 36.4105 28.4053 36.3148 28.4053C36.219 28.4053 36.1243 28.3862 36.0361 28.349C35.9479 28.3118 35.8681 28.2573 35.8013 28.1887C35.0986 27.3987 34.1295 26.8952 33.0791 26.7744C33.4067 27.2325 33.6254 27.7593 33.7185 28.3147C33.7996 29.0079 33.7299 29.7105 33.5142 30.3743C33.2985 31.0381 32.9419 31.6475 32.4688 32.1606H32.5366ZM23.4013 26.7744C23.1145 26.7675 22.8292 26.8189 22.5628 26.9255C22.2964 27.0321 22.0543 27.1916 21.8513 27.3944C21.6225 27.6288 21.449 27.9114 21.3434 28.2214C21.2378 28.5315 21.2028 28.8612 21.241 29.1866C21.3931 30.1994 21.8932 31.1277 22.6554 31.8119L26.7726 35.9291L31.0351 31.6859C31.4391 31.3083 31.7599 30.8504 31.9767 30.3416C32.1936 29.8328 32.3018 29.2843 32.2944 28.7312C32.2991 28.6765 32.2991 28.6214 32.2944 28.5666C32.2474 28.2846 32.1453 28.0147 31.9941 27.7722C31.9092 27.6294 31.8012 27.5018 31.6744 27.3944C30.7057 26.5031 28.9232 26.5031 27.3054 28.1984C27.2398 28.269 27.1604 28.3253 27.072 28.3636C26.9836 28.4019 26.8883 28.4216 26.7919 28.4212C26.6945 28.4254 26.5974 28.4085 26.5071 28.3717C26.4169 28.335 26.3356 28.2792 26.2688 28.2081C25.5876 27.4489 24.6623 26.952 23.6532 26.8034L23.4013 26.7744Z" fill="#F85623"/>
</svg>
