<svg width="63" height="63" viewBox="0 0 63 63" fill="none" xmlns="http://www.w3.org/2000/svg">
<path d="M61.0293 11.2172H54.975V10.8066C54.975 10.4669 54.6996 10.1914 54.3598 10.1914C54.0199 10.1914 53.7446 10.4669 53.7446 10.8066V11.2172H47.6903C47.3504 11.2172 47.075 11.4927 47.075 11.8325C47.075 12.1722 47.3504 12.4477 47.6903 12.4477H53.7446V14.7932H52.2321C51.8922 14.7932 51.6168 15.0687 51.6168 15.4085V18.1751H43.1329C42.71 14.8469 39.8627 12.2646 36.4215 12.2646H26.5748C23.1337 12.2646 20.2863 14.8469 19.8635 18.1751H11.3794V15.4085C11.3794 15.0687 11.104 14.7932 10.7642 14.7932H9.25166V12.4477H15.3059C15.6458 12.4477 15.9212 12.1722 15.9212 11.8325C15.9212 11.4927 15.6458 11.2172 15.3059 11.2172H9.25166V10.8066C9.25166 10.4669 8.97629 10.1914 8.63643 10.1914C8.29657 10.1914 8.0212 10.4669 8.0212 10.8066V11.2172H1.9668C1.62694 11.2172 1.35156 11.4927 1.35156 11.8325C1.35156 12.1722 1.62694 12.4477 1.9668 12.4477H8.02107V14.7932H6.50858C6.16872 14.7932 5.89335 15.0687 5.89335 15.4085V24.8148C5.89335 26.3273 7.12394 27.5577 8.63643 27.5577C10.1489 27.5577 11.3794 26.3273 11.3794 24.8148V23.3815H21.5055C15.6294 26.6436 11.685 32.5905 11.0042 39.3001H8.96004C7.80229 39.3001 6.86037 40.242 6.86037 41.3998C6.86037 42.5575 7.80229 43.4993 8.96004 43.4993H12.9977C14.1555 43.4993 15.0973 42.5575 15.0973 41.3998C15.0973 35.2468 18.5877 29.5776 24.0403 26.7872L24.7087 28.2047C25.2294 29.3094 26.2697 29.969 27.491 29.969H29.3157V31.1918H28.3915C27.3738 31.1918 26.5458 32.0198 26.5458 33.0375V36.5914C26.5458 37.6091 27.3738 38.4371 28.3915 38.4371H34.604C35.6217 38.4371 36.4497 37.6091 36.4497 36.5914V33.0375C36.4497 32.0198 35.6217 31.1918 34.604 31.1918H33.6798V29.969H35.5046C36.7258 29.969 37.7659 29.3094 38.2869 28.2047L38.9564 26.7848C44.4113 29.574 47.904 35.246 47.904 41.3998C47.904 42.5575 48.8459 43.4995 50.0045 43.4995L54.0413 43.4937C55.196 43.4937 56.1354 42.5543 56.1354 41.3997C56.1354 40.2451 55.196 39.3058 54.0413 39.3058H51.998C51.3187 32.5934 47.3742 26.6446 41.4961 23.3814H51.6163V24.8147C51.6163 26.3272 52.8468 27.5576 54.3593 27.5576C55.8718 27.5576 57.1024 26.3272 57.1024 24.8147V15.4083C57.1024 15.0686 56.827 14.7931 56.4871 14.7931H54.9745V12.4476H61.0293C61.3692 12.4476 61.6445 12.1721 61.6445 11.8324C61.6445 11.4926 61.369 11.2172 61.0293 11.2172ZM10.1489 24.8149C10.1489 25.6489 9.47044 26.3274 8.63643 26.3274C7.80242 26.3274 7.12381 25.6489 7.12381 24.8149V16.0238H10.1489V24.8149ZM21.0376 19.0323C21.0376 15.9792 23.5215 13.4952 26.5747 13.4952H36.4214C39.4746 13.4952 41.9585 15.9792 41.9585 19.0323V20.9207C41.9585 21.5992 41.4065 22.1512 40.728 22.1512H22.2681C21.5896 22.1512 21.0376 21.5992 21.0376 20.9207V19.0323ZM11.3794 19.4055H19.8071V20.9206C19.8071 21.3691 19.9297 21.7886 20.1401 22.1511H11.3794V19.4055ZM16.6755 31.8484C14.8381 34.6974 13.867 38.0004 13.867 41.3999C13.867 41.8792 13.4771 42.269 12.9979 42.269H8.96004C8.48065 42.269 8.09084 41.8791 8.09084 41.3999C8.09084 40.9205 8.48078 40.5307 8.96004 40.5307H11.5678C11.89 40.5307 12.1578 40.282 12.1813 39.9605C12.6791 33.1805 16.7184 27.1588 22.7737 24.1011L23.5151 25.6737C20.7306 27.0892 18.3745 29.2137 16.6755 31.8484ZM35.2196 33.0375V36.5914C35.2196 36.9306 34.9436 37.2066 34.6044 37.2066H28.3919C28.0526 37.2066 27.7766 36.9306 27.7766 36.5914V33.0375C27.7766 32.6983 28.0526 32.4223 28.3919 32.4223H34.6044C34.9435 32.4223 35.2196 32.6983 35.2196 33.0375ZM32.4497 31.1918H30.5464V29.969H32.4497V31.1918ZM37.1743 27.6801C36.8618 28.3429 36.2377 28.7386 35.5049 28.7386H27.4913C26.7584 28.7386 26.1344 28.3429 25.8219 27.6801L23.7949 23.3815H39.2012L37.1743 27.6801ZM50.821 39.966C50.8443 40.2876 51.1121 40.5365 51.4345 40.5365H54.0417C54.5178 40.5365 54.9053 40.9237 54.9053 41.3999C54.9053 41.8761 54.5179 42.2635 54.041 42.2635L50.0042 42.2692C49.5248 42.2692 49.135 41.8793 49.135 41.4C49.135 38.0026 48.1647 34.7012 46.3293 31.8531C44.6292 29.2151 42.2702 27.0882 39.4818 25.6718L40.2234 24.0989C46.2834 27.1567 50.3247 33.1816 50.821 39.966ZM42.856 22.1512C43.0664 21.7887 43.189 21.3692 43.189 20.9207V19.4055H51.6167V22.1511H42.856V22.1512ZM55.8723 24.8149C55.8723 25.6489 55.1937 26.3274 54.3597 26.3274C53.5257 26.3274 52.8472 25.6489 52.8472 24.8149V16.0238H55.8723V24.8149ZM39.6514 48.5663C39.8917 48.8065 39.8917 49.196 39.6514 49.4362C37.4034 51.6843 34.4507 52.8081 31.498 52.8081C28.5453 52.8081 25.5925 51.6842 23.3446 49.4362C23.1043 49.196 23.1043 48.8065 23.3446 48.5663C23.5847 48.326 23.9745 48.326 24.2145 48.5663C26.1603 50.5118 28.7467 51.5831 31.498 51.5831C34.2494 51.5831 36.8359 50.5118 38.7814 48.5663C39.0215 48.326 39.4113 48.326 39.6514 48.5663ZM27.5827 45.1984C29.7417 47.3569 33.2542 47.3571 35.4134 45.1984C35.6535 44.9581 36.0433 44.9581 36.2833 45.1984C36.5237 45.4386 36.5237 45.8281 36.2833 46.0684C34.964 47.3876 33.231 48.0473 31.4979 48.0473C29.7649 48.0473 28.0319 47.3876 26.7126 46.0684C26.4723 45.8281 26.4723 45.4386 26.7125 45.1984C26.9529 44.9581 27.3426 44.9581 27.5827 45.1984ZM31.498 42.2674C30.9559 42.2674 30.5137 41.8252 30.5137 41.283C30.5137 40.7409 30.9559 40.2986 31.498 40.2986C32.0402 40.2986 32.4824 40.7409 32.4824 41.283C32.4824 41.8252 32.0403 42.2674 31.498 42.2674ZM31.498 36.7155C32.5464 36.7155 33.3991 35.8627 33.3991 34.8144C33.3991 33.7662 32.5463 32.9135 31.498 32.9135C30.4498 32.9135 29.597 33.7663 29.597 34.8144C29.597 35.8627 30.4498 36.7155 31.498 36.7155ZM31.498 34.144C31.8678 34.144 32.1687 34.4447 32.1687 34.8144C32.1687 35.1842 31.8678 35.485 31.498 35.485C31.1283 35.485 30.8274 35.1842 30.8274 34.8144C30.8274 34.4447 31.1284 34.144 31.498 34.144Z" fill="#F85623"/>
</svg>
