<svg width="92" height="92" viewBox="0 0 92 92" fill="none" xmlns="http://www.w3.org/2000/svg">
<g clip-path="url(#clip0_97_3289)">
<g clip-path="url(#clip1_97_3289)">
<path d="M32.002 46L25.502 57H40.002L32.002 46Z" fill="#B90808"/>
<rect x="53.002" y="22" width="24" height="14" fill="#B90808"/>
<path d="M52.6179 82.687H39.3857C38.8418 82.687 38.4034 82.2462 38.4034 81.7047V76.8939L1.18413 76.9849C0.654653 76.9969 0.187465 76.5321 0.199444 76.0002V27.1971C0.199444 26.6533 0.640278 26.2148 1.18174 26.2148C1.72559 26.2148 2.16642 26.6557 2.16642 27.1971V75.0156L39.3857 74.9269C39.9152 74.9149 40.3824 75.3797 40.3704 75.9092V80.72H51.6356V75.6001C51.626 75.0707 52.0908 74.6059 52.6179 74.6179L89.8396 74.625V27.1971C89.8396 26.6533 90.2804 26.2148 90.8218 26.2148C91.3657 26.2148 91.8041 26.6557 91.8041 27.1971V75.6097C91.8137 76.1392 91.3489 76.604 90.8218 76.592L53.6002 76.5848V81.7071C53.6002 82.2462 53.1617 82.687 52.6179 82.687Z" fill="white"/>
<path d="M83.3207 13.8996H49.9803C48.4422 13.8924 46.9759 14.6303 46.0535 15.8594C45.1551 14.6615 43.7272 13.8828 42.1172 13.8828H8.77917C8.23531 13.8828 7.79688 14.3236 7.79688 14.8651V68.2059C7.79688 68.7498 8.2401 69.1882 8.78156 69.1882C8.87021 69.1882 38.0826 69.169 38.0826 69.169C40.8618 69.1714 43.5259 70.482 45.227 72.6765C45.5624 73.2396 46.4417 73.2851 46.8322 72.746C48.5284 70.5395 51.1998 69.2218 53.9838 69.2218H53.9885L83.3207 69.2361C83.8478 69.2457 84.315 68.7809 84.3054 68.2538V14.8843C84.303 14.3404 83.8646 13.8996 83.3207 13.8996ZM45.0665 69.7105C43.1139 68.1125 40.639 67.2045 38.0826 67.2021L9.76146 67.1901V15.8498H42.1172C43.744 15.8498 45.0665 17.1723 45.0665 18.7967V69.7105ZM82.3384 67.2715L53.9909 67.2572C53.9885 67.2572 53.9861 67.2572 53.9861 67.2572C51.4466 67.2572 48.9837 68.158 47.0382 69.7393L47.0334 18.8158C46.9999 17.2298 48.3967 15.833 49.9803 15.8666H82.336V67.2715H82.3384Z" fill="white"/>
<path d="M52.6465 36.9067V22.6348H76.7246V36.9067H52.6465Z" stroke="white" stroke-width="1.4375"/>
<path d="M52.6465 60.4692V46.1973H76.7246V60.4692H52.6465Z" stroke="white" stroke-width="1.4375"/>
<path d="M40.1698 24.0586H14.6542C14.1103 24.0586 13.6719 24.4994 13.6719 25.0409V58.0291C13.6719 58.5706 14.1127 59.0114 14.6542 59.0114H40.1698C40.7136 59.0114 41.1521 58.5706 41.1521 58.0291V25.0409C41.1545 24.4994 40.7136 24.0586 40.1698 24.0586ZM29.4796 57.0468L28.0948 54.3779L32.3714 47.5593L38.3849 57.0492H29.4796V57.0468ZM39.1875 54.6438L33.1979 45.1898C32.8409 44.5861 31.8898 44.5885 31.5352 45.1946L27.0454 52.3534L22.9509 44.4543C22.6251 43.7715 21.5757 43.7523 21.2235 44.4232L15.6389 54.2988V26.028H39.1899V54.6438H39.1875Z" fill="white"/>
<path d="M31.5578 35.9577C31.5578 37.9103 29.9741 39.4915 28.0191 39.4915C26.0641 39.4915 24.4805 37.9103 24.4805 35.9577C24.4805 34.0051 26.0641 32.4238 28.0191 32.4238C29.9741 32.4238 31.5578 34.0051 31.5578 35.9577Z" fill="white"/>
<path d="M92.0017 21.9161C92.0017 22.6229 91.4291 23.1955 90.7247 23.1955C90.0179 23.1955 89.4453 22.6229 89.4453 21.9161C89.4453 21.2093 90.0179 20.6367 90.7247 20.6367C91.4291 20.6391 92.0017 21.2117 92.0017 21.9161Z" fill="white"/>
<path d="M2.55831 21.9161C2.55831 22.6229 1.9857 23.1955 1.27893 23.1955C0.572161 23.1955 0.00195312 22.6229 0.00195312 21.9161C0.00195312 21.2093 0.574557 20.6367 1.27893 20.6367C1.98331 20.6367 2.55831 21.2117 2.55831 21.9161Z" fill="white"/>
</g>
</g>
<defs>
<clipPath id="clip0_97_3289">
<rect width="92" height="92" fill="white" transform="translate(0.00195312)"/>
</clipPath>
<clipPath id="clip1_97_3289">
<rect width="92" height="68.8035" fill="white" transform="translate(0.00195312 13.8828)"/>
</clipPath>
</defs>
</svg>
