<svg width="62" height="43" viewBox="0 0 62 43" fill="none" xmlns="http://www.w3.org/2000/svg">
<path fill-rule="evenodd" clip-rule="evenodd" d="M1.66048 41.2871H60.6464V6.89835H1.66048V41.2871ZM61.1827 42.3964H1.12419C0.828187 42.3964 0.587891 42.1482 0.587891 41.8418V6.34378C0.587891 6.03747 0.827905 5.78921 1.12405 5.78921L61.1827 5.78906C61.4787 5.78906 61.7186 6.03761 61.7186 6.34378L61.7187 41.8418C61.7187 42.1481 61.4785 42.3965 61.1827 42.3964Z" fill="#A6A182"/>
<path fill-rule="evenodd" clip-rule="evenodd" d="M16.7357 22.1795H1.12419C0.828187 22.1795 0.587891 21.9312 0.587891 21.6249C0.587891 21.3186 0.827905 21.0703 1.12405 21.0703H16.7357C17.0317 21.0703 17.2717 21.3187 17.2717 21.6249C17.272 21.9312 17.0316 22.1796 16.7357 22.1795ZM61.1827 22.1795H45.5712C45.2752 22.1795 45.0346 21.9312 45.0346 21.6249C45.0348 21.3186 45.2749 21.0703 45.5709 21.0703H61.1827C61.4787 21.0703 61.7186 21.3187 61.7186 21.6249C61.7187 21.9312 61.4785 22.1796 61.1827 22.1795ZM16.7357 27.1222H1.12419C0.828187 27.1222 0.587891 26.8739 0.587891 26.5678C0.587891 26.2613 0.827905 26.0132 1.12405 26.0132L16.7357 26.013C17.0317 26.013 17.2717 26.2614 17.2717 26.5678C17.272 26.8739 17.0316 27.1222 16.7357 27.1222ZM61.1827 27.1222H45.5712C45.2752 27.1222 45.0346 26.8739 45.0346 26.5678C45.0348 26.2613 45.2749 26.0132 45.5709 26.0132L61.1827 26.013C61.4787 26.013 61.7186 26.2614 61.7186 26.5678C61.7187 26.8739 61.4785 27.1222 61.1827 27.1222Z" fill="#A6A182"/>
<path fill-rule="evenodd" clip-rule="evenodd" d="M8.32641 6.89653C8.03041 6.89653 7.79025 6.64827 7.79025 6.34196L7.79039 1.50382H4.88286V6.34196C4.88286 6.64827 4.6427 6.89667 4.3467 6.89667C4.05098 6.89653 3.81055 6.64827 3.81055 6.34196V0.949103C3.81055 0.642936 4.0507 0.394531 4.3467 0.394531H8.32641C8.62396 0.394531 8.86256 0.643082 8.86256 0.949249L8.8627 6.34196C8.8627 6.64827 8.62382 6.89667 8.32641 6.89653Z" fill="#A6A182"/>
<path fill-rule="evenodd" clip-rule="evenodd" d="M31.1535 9.53688C23.3925 9.53688 17.0764 16.0685 17.0764 24.0968C17.0764 32.125 23.3923 38.6564 31.1533 38.6564C38.9146 38.6564 45.2289 32.125 45.2289 24.0968C45.229 16.0685 38.9143 9.53702 31.1535 9.53688ZM31.1535 39.7657C22.8002 39.7657 16.0039 32.7367 16.0039 24.0968C16.004 15.4567 22.8 8.42773 31.1533 8.42773C39.5067 8.42759 46.3013 15.4567 46.3013 24.0968C46.3013 32.7366 39.5065 39.7657 31.1535 39.7657Z" fill="#A6A182"/>
<path fill-rule="evenodd" clip-rule="evenodd" d="M31.1541 14.4607C26.0181 14.4607 21.84 18.7822 21.84 24.0941C21.84 29.4056 26.018 33.7272 31.1539 33.7272C36.2886 33.7272 40.4664 29.4057 40.4664 24.0941C40.4666 18.782 36.2884 14.4609 31.1541 14.4607ZM31.1541 34.8365C25.4274 34.8365 20.7676 30.0175 20.7676 24.0941C20.7677 18.1704 25.4274 13.3516 31.1539 13.3516C36.8804 13.3516 41.5389 18.1706 41.5389 24.0941C41.5389 30.0173 36.8804 34.8365 31.1541 34.8365Z" fill="#A6A182"/>
<path fill-rule="evenodd" clip-rule="evenodd" d="M31.1539 19.6404C28.7787 19.6404 26.8459 21.6392 26.8459 24.0961C26.8462 26.5527 28.7784 28.5515 31.1537 28.5515C33.5292 28.5515 35.4616 26.5527 35.4616 24.0961C35.4617 21.6392 33.5289 19.6404 31.1539 19.6404ZM31.1539 29.6608C28.1864 29.6608 25.7734 27.1643 25.7734 24.0961C25.7734 21.0274 28.1864 18.5313 31.1537 18.5313C34.1198 18.5311 36.5341 21.0276 36.5341 24.0961C36.5341 27.1643 34.1197 29.6608 31.1539 29.6608Z" fill="#A6A182"/>
<path fill-rule="evenodd" clip-rule="evenodd" d="M58.2887 6.89776C57.9927 6.89776 57.7521 6.6495 57.7521 6.34319L57.7522 3.62882H51.6486V6.34319C51.6486 6.6495 51.4083 6.89791 51.1123 6.89791C50.8166 6.89776 50.5762 6.6495 50.5762 6.34319L50.5763 3.0741C50.5763 2.76779 50.8163 2.51953 51.1123 2.51953H58.2887C58.5845 2.51953 58.8245 2.76779 58.8245 3.07425V6.34319C58.8245 6.6495 58.5844 6.89791 58.2887 6.89776Z" fill="#A6A182"/>
<path fill-rule="evenodd" clip-rule="evenodd" d="M55.7371 9.60704C55.0628 9.60704 54.5139 10.1749 54.5139 10.8726C54.514 11.5702 55.0626 12.1379 55.7371 12.1379C56.4117 12.1378 56.9603 11.5704 56.9603 10.8726C56.9605 10.1747 56.4116 9.60719 55.7371 9.60704ZM55.7371 13.2472C54.4706 13.2472 53.4414 12.182 53.4414 10.8726C53.4417 9.56314 54.4706 8.49805 55.7371 8.49805C57.0023 8.4979 58.0327 9.56329 58.0327 10.8726C58.0329 12.1818 57.0021 13.2472 55.7371 13.2472Z" fill="#A6A182"/>
<path fill-rule="evenodd" clip-rule="evenodd" d="M12.0841 9.90797H3.84684C3.55084 9.90797 3.31055 9.65971 3.31055 9.35355C3.31083 9.04709 3.5507 8.79897 3.8467 8.79897L12.0841 8.79883C12.3801 8.79883 12.6202 9.04723 12.6202 9.35355C12.6205 9.65971 12.3801 9.90797 12.0841 9.90797Z" fill="#A6A182"/>
<path fill-rule="evenodd" clip-rule="evenodd" d="M12.0841 12.8552H3.84684C3.55084 12.8552 3.31055 12.607 3.31055 12.3007C3.31083 11.9944 3.5507 11.7462 3.8467 11.7462L12.0841 11.7461C12.3801 11.7461 12.6202 11.9945 12.6202 12.3007C12.6205 12.607 12.3801 12.8554 12.0841 12.8552Z" fill="#A6A182"/>
</svg>
