<svg width="93" height="92" viewBox="0 0 93 92" fill="none" xmlns="http://www.w3.org/2000/svg">
<g clip-path="url(#clip0_97_9387)">
<g clip-path="url(#clip1_97_9387)">
<g clip-path="url(#clip2_97_9387)">
<path d="M32.7207 46L26.2207 57H40.7207L32.7207 46Z" fill="#B90808"/>
<rect x="53.7207" y="22" width="24" height="14" fill="#B90808"/>
<path d="M53.3366 82.687H40.1044C39.5606 82.687 39.1222 82.2462 39.1222 81.7047V76.8939L1.90288 76.9849C1.3734 76.9969 0.906215 76.5321 0.918194 76.0002V27.1971C0.918194 26.6533 1.35903 26.2148 1.90049 26.2148C2.44434 26.2148 2.88517 26.6557 2.88517 27.1971V75.0156L40.1044 74.9269C40.6339 74.9149 41.1011 75.3797 41.0891 75.9092V80.72H52.3543V75.6001C52.3448 75.0707 52.8096 74.6059 53.3366 74.6179L90.5583 74.625V27.1971C90.5583 26.6533 90.9991 26.2148 91.5406 26.2148C92.0844 26.2148 92.5229 26.6557 92.5229 27.1971V75.6097C92.5325 76.1392 92.0677 76.604 91.5406 76.592L54.3189 76.5848V81.7071C54.3189 82.2462 53.8805 82.687 53.3366 82.687Z" fill="#151515"/>
<path d="M84.0395 13.8996H50.6991C49.1609 13.8924 47.6947 14.6303 46.7723 15.8594C45.8739 14.6615 44.4459 13.8828 42.8359 13.8828H9.49792C8.95406 13.8828 8.51562 14.3236 8.51562 14.8651V68.2059C8.51562 68.7498 8.95885 69.1882 9.50031 69.1882C9.58896 69.1882 38.8014 69.169 38.8014 69.169C41.5805 69.1714 44.2447 70.482 45.9457 72.6765C46.2811 73.2396 47.1604 73.2851 47.5509 72.746C49.2472 70.5395 51.9185 69.2218 54.7025 69.2218H54.7073L84.0395 69.2361C84.5666 69.2457 85.0338 68.7809 85.0242 68.2538V14.8843C85.0218 14.3404 84.5833 13.8996 84.0395 13.8996ZM45.7852 69.7105C43.8326 68.1125 41.3577 67.2045 38.8014 67.2021L10.4802 67.1901V15.8498H42.8359C44.4627 15.8498 45.7852 17.1723 45.7852 18.7967V69.7105ZM83.0572 67.2715L54.7097 67.2572C54.7073 67.2572 54.7049 67.2572 54.7049 67.2572C52.1653 67.2572 49.7024 68.158 47.757 69.7393L47.7522 18.8158C47.7186 17.2298 49.1154 15.833 50.6991 15.8666H83.0548V67.2715H83.0572Z" fill="#151515"/>
<path d="M53.3652 36.9067V22.6348H77.4434V36.9067H53.3652Z" stroke="#151515" stroke-width="1.4375"/>
<path d="M53.3652 60.4692V46.1973H77.4434V60.4692H53.3652Z" stroke="#151515" stroke-width="1.4375"/>
<path d="M40.8885 24.0586H15.3729C14.8291 24.0586 14.3906 24.4994 14.3906 25.0409V58.0291C14.3906 58.5706 14.8315 59.0114 15.3729 59.0114H40.8885C41.4324 59.0114 41.8708 58.5706 41.8708 58.0291V25.0409C41.8732 24.4994 41.4324 24.0586 40.8885 24.0586ZM30.1983 57.0468L28.8135 54.3779L33.0901 47.5593L39.1036 57.0492H30.1983V57.0468ZM39.9062 54.6438L33.9167 45.1898C33.5597 44.5861 32.6085 44.5885 32.254 45.1946L27.7642 52.3534L23.6697 44.4543C23.3439 43.7715 22.2945 43.7523 21.9423 44.4232L16.3576 54.2988V26.028H39.9086V54.6438H39.9062Z" fill="#151515"/>
<path d="M32.2765 35.9577C32.2765 37.9103 30.6929 39.4915 28.7379 39.4915C26.7829 39.4915 25.1992 37.9103 25.1992 35.9577C25.1992 34.0051 26.7829 32.4238 28.7379 32.4238C30.6929 32.4238 32.2765 34.0051 32.2765 35.9577Z" fill="#151515"/>
<path d="M92.7204 21.9161C92.7204 22.6229 92.1478 23.1955 91.4434 23.1955C90.7367 23.1955 90.1641 22.6229 90.1641 21.9161C90.1641 21.2093 90.7367 20.6367 91.4434 20.6367C92.1478 20.6391 92.7204 21.2117 92.7204 21.9161Z" fill="#151515"/>
<path d="M3.27706 21.9161C3.27706 22.6229 2.70445 23.1955 1.99768 23.1955C1.29091 23.1955 0.720703 22.6229 0.720703 21.9161C0.720703 21.2093 1.29331 20.6367 1.99768 20.6367C2.70206 20.6367 3.27706 21.2117 3.27706 21.9161Z" fill="#151515"/>
</g>
</g>
</g>
<defs>
<clipPath id="clip0_97_9387">
<rect width="92" height="92" fill="white" transform="translate(0.720703)"/>
</clipPath>
<clipPath id="clip1_97_9387">
<rect width="92" height="92" fill="white" transform="translate(0.720703)"/>
</clipPath>
<clipPath id="clip2_97_9387">
<rect width="92" height="68.8035" fill="white" transform="translate(0.720703 13.8828)"/>
</clipPath>
</defs>
</svg>
