<svg width="61" height="43" viewBox="0 0 61 43" fill="none" xmlns="http://www.w3.org/2000/svg">
<path d="M59.5626 42.0975H1.43756C1.24565 42.095 1.0623 42.0176 0.926582 41.8819C0.790865 41.7462 0.713511 41.5628 0.711002 41.3709V1.65219C0.709721 1.5555 0.7275 1.45951 0.763321 1.36969C0.799143 1.27987 0.852306 1.19799 0.919776 1.12872C0.987245 1.05946 1.0677 1.00416 1.15654 0.965984C1.24538 0.927811 1.34088 0.907514 1.43756 0.90625H59.5626C59.7545 0.908759 59.9378 0.986113 60.0735 1.12183C60.2093 1.25755 60.2866 1.4409 60.2891 1.63281V41.3516C60.2904 41.4482 60.2726 41.5442 60.2368 41.6341C60.201 41.7239 60.1478 41.8058 60.0804 41.875C60.0129 41.9443 59.9324 41.9996 59.8436 42.0378C59.7547 42.0759 59.6593 42.0962 59.5626 42.0975ZM53.9632 40.6444H58.8069V35.8006H53.9632V40.6444ZM42.5998 40.6444H52.5101V35.8006H42.5998V40.6444ZM31.2266 40.6444H41.1563V35.8006H31.2266V40.6444ZM19.8438 40.6444H29.7735V35.8006H19.8438V40.6444ZM8.48038 40.6444H18.4004V35.8006H8.49006L8.48038 40.6444ZM2.15444 40.6444H6.99819V35.8006H2.15444V40.6444ZM2.15444 34.3184H58.8263V31.4122H49.7588C49.5661 31.4122 49.3813 31.3356 49.2451 31.1994C49.1088 31.0631 49.0323 30.8783 49.0323 30.6856V12.3569C49.0323 12.1642 49.1088 11.9794 49.2451 11.8431C49.3813 11.7069 49.5661 11.6303 49.7588 11.6303H58.836V8.72406H2.16413V11.6303H11.2413C11.434 11.6303 11.6188 11.7069 11.7551 11.8431C11.8913 11.9794 11.9679 12.1642 11.9679 12.3569V30.6469C11.9679 30.8396 11.8913 31.0244 11.7551 31.1606C11.6188 31.2969 11.434 31.3734 11.2413 31.3734H2.16413L2.15444 34.3184ZM50.4757 29.9203H58.8263V13.0834H50.4854L50.4757 29.9203ZM2.15444 29.9203H10.5051V13.0834H2.16413L2.15444 29.9203ZM53.9632 7.23219H58.8069V2.38844H53.9632V7.23219ZM42.5998 7.23219H52.5101V2.38844H42.5998V7.23219ZM31.2266 7.23219H41.1563V2.38844H31.2266V7.23219ZM19.8438 7.23219H29.7735V2.38844H19.8438V7.23219ZM8.48038 7.23219H18.4004V2.38844H8.49006L8.48038 7.23219ZM2.15444 7.23219H6.99819V2.38844H2.15444V7.23219ZM45.351 31.3734H15.6491C15.4564 31.3734 15.2716 31.2969 15.1354 31.1606C14.9991 31.0244 14.9226 30.8396 14.9226 30.6469V12.3569C14.9226 12.1642 14.9991 11.9794 15.1354 11.8431C15.2716 11.7069 15.4564 11.6303 15.6491 11.6303H45.351C45.5437 11.6303 45.7285 11.7069 45.8648 11.8431C46.001 11.9794 46.0776 12.1642 46.0776 12.3569V30.6469C46.0776 30.8396 46.001 31.0244 45.8648 31.1606C45.7285 31.2969 45.5437 31.3734 45.351 31.3734ZM16.3757 29.9203H44.6244V13.0834H16.3757V29.9203ZM25.7241 27.6825C25.5323 27.6783 25.3491 27.6023 25.2107 27.4694L20.5801 22.8387C19.5765 21.9174 18.9285 20.6727 18.7491 19.3222C18.6828 18.7817 18.7407 18.2333 18.9186 17.7186C19.0965 17.204 19.3897 16.7368 19.7756 16.3527C20.1616 15.9686 20.6302 15.6777 21.1457 15.5024C21.6612 15.327 22.2099 15.2716 22.7501 15.3406C23.8494 15.4672 24.8838 15.9269 25.7144 16.6581C26.3322 16.0501 27.1089 15.6285 27.9554 15.4418C28.8018 15.255 29.6838 15.3106 30.5001 15.6022C31.314 15.3168 32.1915 15.2645 33.0336 15.451C33.8758 15.6376 34.649 16.0557 35.2663 16.6581C37.5138 14.7787 39.9163 15.0209 41.2241 16.3191C42.5319 17.6172 42.8129 20.4072 40.4298 22.8L35.7798 27.4306C35.6435 27.5667 35.4589 27.6431 35.2663 27.6431C35.0738 27.6431 34.8891 27.5667 34.7529 27.4306L30.5001 23.2262L26.2376 27.4694C26.0992 27.6023 25.9159 27.6783 25.7241 27.6825ZM31.5366 22.1606L35.3148 25.9291L39.4513 21.8119C41.2435 20.01 41.1176 18.2566 40.2457 17.3944C39.3738 16.5322 37.6204 16.4256 35.8282 18.1887C35.7614 18.2573 35.6816 18.3118 35.5934 18.349C35.5052 18.3862 35.4105 18.4053 35.3148 18.4053C35.219 18.4053 35.1243 18.3862 35.0361 18.349C34.9479 18.3118 34.8681 18.2573 34.8013 18.1887C34.0986 17.3987 33.1295 16.8952 32.0791 16.7744C32.4067 17.2325 32.6254 17.7593 32.7185 18.3147C32.7996 19.0079 32.7299 19.7105 32.5142 20.3743C32.2985 21.0381 31.9419 21.6475 31.4688 22.1606H31.5366ZM22.4013 16.7744C22.1145 16.7675 21.8292 16.8189 21.5628 16.9255C21.2964 17.0321 21.0543 17.1916 20.8513 17.3944C20.6225 17.6288 20.449 17.9114 20.3434 18.2214C20.2378 18.5315 20.2028 18.8612 20.241 19.1866C20.3931 20.1994 20.8932 21.1277 21.6554 21.8119L25.7726 25.9291L30.0351 21.6859C30.4391 21.3083 30.7599 20.8504 30.9767 20.3416C31.1936 19.8328 31.3018 19.2843 31.2944 18.7312C31.2991 18.6765 31.2991 18.6214 31.2944 18.5666C31.2474 18.2846 31.1453 18.0147 30.9941 17.7722C30.9092 17.6294 30.8012 17.5018 30.6744 17.3944C29.7057 16.5031 27.9232 16.5031 26.3054 18.1984C26.2398 18.269 26.1604 18.3253 26.072 18.3636C25.9836 18.4019 25.8883 18.4216 25.7919 18.4212C25.6945 18.4254 25.5974 18.4085 25.5071 18.3717C25.4169 18.335 25.3356 18.2792 25.2688 18.2081C24.5876 17.4489 23.6623 16.952 22.6532 16.8034L22.4013 16.7744Z" fill="white"/>
</svg>
