<svg width="110" height="110" viewBox="0 0 110 110" fill="none" xmlns="http://www.w3.org/2000/svg">
<g clip-path="url(#clip0_97_3266)">
<rect x="47.002" y="55" width="16" height="11" fill="#B90808"/>
<rect x="91.002" y="27" width="7" height="19" fill="#B90808"/>
<rect x="11.002" y="27" width="7" height="19" fill="#B90808"/>
<path d="M106.564 19.5861H95.9935V18.8691C95.9935 18.276 95.5127 17.7949 94.9193 17.7949C94.3259 17.7949 93.8451 18.276 93.8451 18.8691V19.5861H83.2741C82.6807 19.5861 82.1999 20.0671 82.1999 20.6603C82.1999 21.2535 82.6807 21.7345 83.2741 21.7345H93.8451V25.8299H91.2042C90.6108 25.8299 90.13 26.3109 90.13 26.9041V31.7346H75.3167C74.5783 25.9235 69.6068 21.4148 63.5985 21.4148H46.4058C40.3975 21.4148 35.4258 25.9235 34.6876 31.7346H19.8741V26.9041C19.8741 26.3109 19.3933 25.8299 18.7999 25.8299H16.1591V21.7345H26.73C27.3234 21.7345 27.8042 21.2535 27.8042 20.6603C27.8042 20.0671 27.3234 19.5861 26.73 19.5861H16.1591V18.8691C16.1591 18.276 15.6782 17.7949 15.0848 17.7949C14.4914 17.7949 14.0106 18.276 14.0106 18.8691V19.5861H3.43945C2.84605 19.5861 2.36523 20.0671 2.36523 20.6603C2.36523 21.2535 2.84605 21.7345 3.43945 21.7345H14.0104V25.8299H11.3696C10.7762 25.8299 10.2953 26.3109 10.2953 26.9041V43.3278C10.2953 45.9687 12.444 48.1171 15.0848 48.1171C17.7257 48.1171 19.8741 45.9687 19.8741 43.3278V40.8253H37.5547C27.2948 46.521 20.4078 56.9044 19.2191 68.6197H15.6499C13.6284 68.6197 11.9838 70.2643 11.9838 72.2857C11.9838 74.3072 13.6284 75.9516 15.6499 75.9516H22.6998C24.7212 75.9516 26.3656 74.3072 26.3656 72.2857C26.3656 61.5425 32.4601 51.6438 41.9805 46.7718L43.1475 49.2468C44.0567 51.1756 45.873 52.3272 48.0056 52.3272H51.1915V54.4623H49.5778C47.8008 54.4623 46.3551 55.908 46.3551 57.685V63.8901C46.3551 65.667 47.8008 67.1127 49.5778 67.1127H60.425C62.202 67.1127 63.6477 65.667 63.6477 63.8901V57.685C63.6477 55.908 62.202 54.4623 60.425 54.4623H58.8113V52.3272H61.9975C64.1298 52.3272 65.9459 51.1756 66.8555 49.2468L68.0245 46.7675C77.549 51.6375 83.6473 61.541 83.6473 72.2857C83.6473 74.3072 85.2919 75.9518 87.3149 75.9518L94.3633 75.9417C96.3794 75.9417 98.0195 74.3016 98.0195 72.2855C98.0195 70.2696 96.3794 68.6295 94.3633 68.6295H90.7956C89.6094 56.9096 82.7222 46.5228 72.4589 40.8251H90.1291V43.3276C90.1291 45.9685 92.2776 48.1169 94.9184 48.1169C97.5593 48.1169 99.7079 45.9685 99.7079 43.3276V26.9039C99.7079 26.3107 99.2271 25.8296 98.6337 25.8296H95.9926V21.7343H106.564C107.158 21.7343 107.639 21.2533 107.639 20.6601C107.639 20.0669 107.158 19.5861 106.564 19.5861ZM17.7257 43.328C17.7257 44.7842 16.5411 45.9689 15.0848 45.9689C13.6286 45.9689 12.4438 44.7842 12.4438 43.328V27.9785H17.7257V43.328ZM36.7377 33.2314C36.7377 27.9005 41.0747 23.5635 46.4056 23.5635H63.5983C68.9292 23.5635 73.2663 27.9005 73.2663 33.2314V36.5287C73.2663 37.7133 72.3025 38.6771 71.1178 38.6771H38.8861C37.7014 38.6771 36.7377 37.7133 36.7377 36.5287V33.2314ZM19.8741 33.8831H34.5892V36.5284C34.5892 37.3115 34.8032 38.0439 35.1706 38.6769H19.8741V33.8831ZM29.1212 55.6087C25.9132 60.5832 24.2176 66.3503 24.2176 72.286C24.2176 73.1228 23.5368 73.8034 22.7002 73.8034H15.6499C14.8129 73.8034 14.1322 73.1226 14.1322 72.286C14.1322 71.4489 14.8131 70.7683 15.6499 70.7683H20.2031C20.7657 70.7683 21.2332 70.3341 21.2743 69.7727C22.1435 57.9346 29.1962 47.4206 39.7689 42.0817L41.0635 44.8274C36.2016 47.299 32.0878 51.0085 29.1212 55.6087ZM61.4999 57.685V63.8901C61.4999 64.4824 61.018 64.9643 60.4257 64.9643H49.5784C48.9861 64.9643 48.5042 64.4824 48.5042 63.8901V57.685C48.5042 57.0926 48.9861 56.6107 49.5784 56.6107H60.4257C61.0178 56.6107 61.4999 57.0926 61.4999 57.685ZM56.6636 54.4623H53.3404V52.3272H56.6636V54.4623ZM64.9129 48.3307C64.3672 49.488 63.2775 50.179 61.9981 50.179H48.006C46.7264 50.179 45.6369 49.488 45.0912 48.3307L41.5521 40.8253H68.4518L64.9129 48.3307ZM88.7404 69.7824C88.7812 70.3438 89.2487 70.7784 89.8116 70.7784H94.3639C95.1951 70.7784 95.8717 71.4545 95.8717 72.286C95.8717 73.1174 95.1954 73.7937 94.3626 73.7937L87.3142 73.8038C86.4772 73.8038 85.7966 73.123 85.7966 72.2862C85.7966 66.3541 84.1025 60.5899 80.8977 55.6169C77.9294 51.0108 73.8104 47.2973 68.9419 44.8242L70.2367 42.0779C80.8176 47.4169 87.8739 57.9365 88.7404 69.7824ZM74.8333 38.6771C75.2007 38.0442 75.4147 37.3118 75.4147 36.5287V33.8831H90.1298V38.6769H74.8333V38.6771ZM97.5601 43.328C97.5601 44.7842 96.3753 45.9689 94.9191 45.9689C93.4629 45.9689 92.2782 44.7842 92.2782 43.328V27.9785H97.5601V43.328ZM69.2379 84.7987C69.6575 85.218 69.6575 85.8982 69.2379 86.3176C65.3129 90.2428 60.1573 92.205 55.002 92.205C49.8463 92.205 44.6907 90.2426 40.7658 86.3176C40.3462 85.8982 40.3462 85.218 40.7658 84.7987C41.1849 84.3791 41.8655 84.3791 42.2847 84.7987C45.682 88.1956 50.198 90.0662 55.002 90.0662C59.8059 90.0662 64.3221 88.1956 67.719 84.7987C68.1381 84.3791 68.8188 84.3791 69.2379 84.7987ZM48.1656 78.9182C51.9353 82.687 58.0682 82.6874 61.8383 78.9182C62.2574 78.4986 62.9381 78.4986 63.3572 78.9182C63.7768 79.3376 63.7768 80.0178 63.3572 80.4373C61.0537 82.7407 58.0278 83.8925 55.0017 83.8925C51.9759 83.8925 48.95 82.7407 46.6465 80.4373C46.2269 80.0178 46.2269 79.3376 46.6463 78.9182C47.0661 78.4986 47.7465 78.4986 48.1656 78.9182ZM55.002 73.8006C54.0554 73.8006 53.2832 73.0285 53.2832 72.0819C53.2832 71.1353 54.0554 70.3631 55.002 70.3631C55.9486 70.3631 56.7207 71.1353 56.7207 72.0819C56.7207 73.0285 55.9488 73.8006 55.002 73.8006ZM55.002 64.1069C56.8324 64.1069 58.3213 62.6178 58.3213 60.7875C58.3213 58.9573 56.8322 57.4684 55.002 57.4684C53.1717 57.4684 51.6826 58.9575 51.6826 60.7875C51.6826 62.6178 53.1717 64.1069 55.002 64.1069ZM55.002 59.6168C55.6476 59.6168 56.1729 60.1419 56.1729 60.7875C56.1729 61.4331 55.6476 61.9584 55.002 61.9584C54.3563 61.9584 53.8311 61.4331 53.8311 60.7875C53.8311 60.1419 54.3566 59.6168 55.002 59.6168Z" fill="white"/>
</g>
<defs>
<clipPath id="clip0_97_3266">
<rect width="110" height="110" fill="white" transform="translate(0.00195312)"/>
</clipPath>
</defs>
</svg>
