<svg width="106" height="106" viewBox="0 0 106 106" fill="none" xmlns="http://www.w3.org/2000/svg">
<g clip-path="url(#clip0_97_3242)">
<path fill-rule="evenodd" clip-rule="evenodd" d="M1.86182 86.345H104.143V28.6956H1.86182V86.345ZM105.073 88.2046H0.931885C0.418625 88.2046 0.00195312 87.7887 0.00195312 87.2749V27.7659C0.00195312 27.2524 0.418136 26.8362 0.93164 26.8362L105.073 26.8359C105.586 26.8359 106.002 27.2526 106.002 27.7659L106.002 87.2749C106.002 87.7884 105.586 88.2048 105.073 88.2046Z" fill="white"/>
<circle cx="53.0011" cy="57.2394" r="9.18667" fill="#B90808"/>
<circle cx="96.1079" cy="34.7544" r="2.82667" fill="#B90808"/>
<path fill-rule="evenodd" clip-rule="evenodd" d="M28.0021 54.3145H0.931885C0.418625 54.3145 0.00195312 53.8983 0.00195312 53.3848C0.00195312 52.8713 0.418136 52.4551 0.93164 52.4551H28.0021C28.5154 52.4551 28.9316 52.8715 28.9316 53.3848C28.9321 53.8983 28.5151 54.3147 28.0021 54.3145ZM105.073 54.3145H78.0025C77.4893 54.3145 77.0721 53.8983 77.0721 53.3848C77.0723 52.8713 77.4888 52.4551 78.002 52.4551H105.073C105.586 52.4551 106.002 52.8715 106.002 53.3848C106.002 53.8983 105.586 54.3147 105.073 54.3145ZM28.0021 62.6005H0.931885C0.418625 62.6005 0.00195313 62.1843 0.00195313 61.671C0.00195313 61.1573 0.418136 60.7413 0.93164 60.7413L28.0021 60.7411C28.5154 60.7411 28.9316 61.1575 28.9316 61.671C28.9321 62.1843 28.5151 62.6005 28.0021 62.6005ZM105.073 62.6005H78.0025C77.4893 62.6005 77.0721 62.1843 77.0721 61.671C77.0723 61.1573 77.4888 60.7413 78.002 60.7413L105.073 60.7411C105.586 60.7411 106.002 61.1575 106.002 61.671C106.002 62.1843 105.586 62.6005 105.073 62.6005Z" fill="white"/>
<path fill-rule="evenodd" clip-rule="evenodd" d="M13.4222 28.6949C12.909 28.6949 12.4926 28.2787 12.4926 27.7652L12.4928 19.6545H7.45117V27.7652C7.45117 28.2787 7.03474 28.6951 6.52148 28.6951C6.00871 28.6949 5.5918 28.2787 5.5918 27.7652V18.7246C5.5918 18.2113 6.00822 17.7949 6.52148 17.7949H13.4222C13.9382 17.7949 14.3519 18.2116 14.3519 18.7249L14.3522 27.7652C14.3522 28.2787 13.938 28.6951 13.4222 28.6949Z" fill="white"/>
<path fill-rule="evenodd" clip-rule="evenodd" d="M53.0016 33.1191C39.5441 33.1191 28.592 44.0688 28.592 57.5275C28.592 70.9859 39.5439 81.9353 53.0013 81.9353C66.4593 81.9353 77.4082 70.9859 77.4082 57.5275C77.4084 44.0688 66.4588 33.1194 53.0016 33.1191ZM53.0016 83.7949C38.5171 83.7949 26.7324 72.0115 26.7324 57.5275C26.7327 43.0432 38.5169 31.2598 53.0013 31.2598C67.4861 31.2595 79.2678 43.0432 79.2678 57.5275C79.2678 72.0112 67.4856 83.7949 53.0016 83.7949Z" fill="white"/>
<path fill-rule="evenodd" clip-rule="evenodd" d="M53.0022 41.377C44.0966 41.377 36.8518 48.6215 36.8518 57.5264C36.8518 66.4306 44.0964 73.6754 53.002 73.6754C61.9054 73.6754 69.1498 66.4308 69.1498 57.5264C69.15 48.6213 61.9052 41.3772 53.0022 41.377ZM53.0022 75.535C43.0723 75.535 34.9922 67.4564 34.9922 57.5264C34.9924 47.596 43.0723 39.5176 53.002 39.5176C62.9317 39.5176 71.0094 47.5962 71.0094 57.5264C71.0094 67.4561 62.9317 75.535 53.0022 75.535Z" fill="white"/>
<path fill-rule="evenodd" clip-rule="evenodd" d="M53.0035 50.0566C48.8849 50.0566 45.5334 53.4074 45.5334 57.5262C45.5339 61.6445 48.8844 64.9952 53.0032 64.9952C57.1223 64.9952 60.473 61.6445 60.473 57.5262C60.4732 53.4074 57.1218 50.0566 53.0035 50.0566ZM53.0035 66.8548C47.8579 66.8548 43.6738 62.6698 43.6738 57.5262C43.6738 52.3818 47.8579 48.1973 53.0032 48.1973C58.1463 48.197 62.3326 52.3821 62.3326 57.5262C62.3326 62.6698 58.1461 66.8548 53.0035 66.8548Z" fill="white"/>
<path fill-rule="evenodd" clip-rule="evenodd" d="M100.055 28.6952C99.5417 28.6952 99.1246 28.279 99.1246 27.7655L99.1248 23.2151H88.5413V27.7655C88.5413 28.279 88.1246 28.6954 87.6113 28.6954C87.0986 28.6952 86.6816 28.279 86.6816 27.7655L86.6819 22.2852C86.6819 21.7717 87.0981 21.3555 87.6113 21.3555H100.055C100.568 21.3555 100.984 21.7717 100.984 22.2854V27.7655C100.984 28.279 100.568 28.6954 100.055 28.6952Z" fill="white"/>
<path fill-rule="evenodd" clip-rule="evenodd" d="M95.6291 33.24C94.46 33.24 93.5081 34.1919 93.5081 35.3615C93.5083 36.5311 94.4595 37.4828 95.6291 37.4828C96.7989 37.4825 97.7501 36.5313 97.7501 35.3615C97.7506 34.1917 96.7986 33.2402 95.6291 33.24ZM95.6291 39.3424C93.433 39.3424 91.6484 37.5566 91.6484 35.3615C91.6489 33.1664 93.433 31.3809 95.6291 31.3809C97.823 31.3806 99.6097 33.1666 99.6097 35.3615C99.61 37.5564 97.8227 39.3424 95.6291 39.3424Z" fill="white"/>
<path fill-rule="evenodd" clip-rule="evenodd" d="M19.9339 33.7441H5.65063C5.13737 33.7441 4.7207 33.328 4.7207 32.8147C4.72119 32.3009 5.13713 31.885 5.65039 31.885L19.9339 31.8848C20.4471 31.8848 20.8636 32.3012 20.8636 32.8147C20.8641 33.328 20.4471 33.7441 19.9339 33.7441Z" fill="white"/>
<path fill-rule="evenodd" clip-rule="evenodd" d="M19.9339 38.6836H5.65063C5.13737 38.6836 4.7207 38.2674 4.7207 37.7539C4.72119 37.2404 5.13713 36.8245 5.65039 36.8245L19.9339 36.8242C20.4471 36.8242 20.8636 37.2406 20.8636 37.7539C20.8641 38.2674 20.4471 38.6838 19.9339 38.6836Z" fill="white"/>
</g>
<defs>
<clipPath id="clip0_97_3242">
<rect width="106" height="106" fill="white" transform="translate(0.00195312)"/>
</clipPath>
</defs>
</svg>
