<svg width="62" height="43" viewBox="0 0 62 43" fill="none" xmlns="http://www.w3.org/2000/svg">
<path fill-rule="evenodd" clip-rule="evenodd" d="M1.93978 41.2871H60.9257V6.89835H1.93978V41.2871ZM61.462 42.3964H1.40348C1.10748 42.3964 0.867188 42.1482 0.867188 41.8418V6.34378C0.867188 6.03747 1.1072 5.78921 1.40334 5.78921L61.462 5.78906C61.758 5.78906 61.9979 6.03761 61.9979 6.34378L61.998 41.8418C61.998 42.1481 61.7577 42.3965 61.462 42.3964Z" fill="#57E2D0"/>
<path fill-rule="evenodd" clip-rule="evenodd" d="M17.015 22.1795H1.40348C1.10748 22.1795 0.867188 21.9312 0.867188 21.6249C0.867188 21.3186 1.1072 21.0703 1.40334 21.0703H17.015C17.311 21.0703 17.551 21.3187 17.551 21.6249C17.5513 21.9312 17.3109 22.1796 17.015 22.1795ZM61.462 22.1795H45.8505C45.5545 22.1795 45.3139 21.9312 45.3139 21.6249C45.3141 21.3186 45.5542 21.0703 45.8502 21.0703H61.462C61.758 21.0703 61.9979 21.3187 61.9979 21.6249C61.998 21.9312 61.7577 22.1796 61.462 22.1795ZM17.015 27.1222H1.40348C1.10748 27.1222 0.867188 26.8739 0.867188 26.5678C0.867188 26.2613 1.1072 26.0132 1.40334 26.0132L17.015 26.013C17.311 26.013 17.551 26.2614 17.551 26.5678C17.5513 26.8739 17.3109 27.1222 17.015 27.1222ZM61.462 27.1222H45.8505C45.5545 27.1222 45.3139 26.8739 45.3139 26.5678C45.3141 26.2613 45.5542 26.0132 45.8502 26.0132L61.462 26.013C61.758 26.013 61.9979 26.2614 61.9979 26.5678C61.998 26.8739 61.7577 27.1222 61.462 27.1222Z" fill="#57E2D0"/>
<path fill-rule="evenodd" clip-rule="evenodd" d="M8.6057 6.89653C8.3097 6.89653 8.06955 6.64827 8.06955 6.34196L8.06969 1.50382H5.16215V6.34196C5.16215 6.64827 4.922 6.89667 4.626 6.89667C4.33028 6.89653 4.08984 6.64827 4.08984 6.34196V0.949103C4.08984 0.642936 4.33 0.394531 4.626 0.394531H8.6057C8.90325 0.394531 9.14186 0.643082 9.14186 0.949249L9.142 6.34196C9.142 6.64827 8.90311 6.89667 8.6057 6.89653Z" fill="#57E2D0"/>
<path fill-rule="evenodd" clip-rule="evenodd" d="M31.4347 9.53688C23.6737 9.53688 17.3576 16.0685 17.3576 24.0968C17.3576 32.125 23.6736 38.6564 31.4346 38.6564C39.1959 38.6564 45.5101 32.125 45.5101 24.0968C45.5103 16.0685 39.1956 9.53702 31.4347 9.53688ZM31.4347 39.7657C23.0814 39.7657 16.2852 32.7367 16.2852 24.0968C16.2853 15.4567 23.0813 8.42773 31.4346 8.42773C39.788 8.42759 46.5826 15.4567 46.5826 24.0968C46.5826 32.7366 39.7877 39.7657 31.4347 39.7657Z" fill="#57E2D0"/>
<path fill-rule="evenodd" clip-rule="evenodd" d="M31.4334 14.4607C26.2974 14.4607 22.1193 18.7822 22.1193 24.0941C22.1193 29.4056 26.2973 33.7272 31.4332 33.7272C36.5679 33.7272 40.7457 29.4057 40.7457 24.0941C40.7459 18.782 36.5677 14.4609 31.4334 14.4607ZM31.4334 34.8365C25.7067 34.8365 21.0469 30.0175 21.0469 24.0941C21.047 18.1704 25.7067 13.3516 31.4332 13.3516C37.1597 13.3516 41.8182 18.1706 41.8182 24.0941C41.8182 30.0173 37.1597 34.8365 31.4334 34.8365Z" fill="#57E2D0"/>
<path fill-rule="evenodd" clip-rule="evenodd" d="M31.4351 19.6404C29.0599 19.6404 27.1271 21.6392 27.1271 24.0961C27.1274 26.5527 29.0597 28.5515 31.435 28.5515C33.8105 28.5515 35.7429 26.5527 35.7429 24.0961C35.743 21.6392 33.8102 19.6404 31.4351 19.6404ZM31.4351 29.6608C28.4677 29.6608 26.0547 27.1643 26.0547 24.0961C26.0547 21.0274 28.4677 18.5313 31.435 18.5313C34.4011 18.5311 36.8153 21.0276 36.8153 24.0961C36.8153 27.1643 34.4009 29.6608 31.4351 29.6608Z" fill="#57E2D0"/>
<path fill-rule="evenodd" clip-rule="evenodd" d="M58.568 6.89776C58.272 6.89776 58.0314 6.6495 58.0314 6.34319L58.0315 3.62882H51.9279V6.34319C51.9279 6.6495 51.6876 6.89791 51.3916 6.89791C51.0959 6.89776 50.8555 6.6495 50.8555 6.34319L50.8556 3.0741C50.8556 2.76779 51.0956 2.51953 51.3916 2.51953H58.568C58.8638 2.51953 59.1038 2.76779 59.1038 3.07425V6.34319C59.1038 6.6495 58.8637 6.89791 58.568 6.89776Z" fill="#57E2D0"/>
<path fill-rule="evenodd" clip-rule="evenodd" d="M56.0144 9.60704C55.3402 9.60704 54.7912 10.1749 54.7912 10.8726C54.7913 11.5702 55.3399 12.1379 56.0144 12.1379C56.689 12.1378 57.2376 11.5704 57.2376 10.8726C57.2379 10.1747 56.6889 9.60719 56.0144 9.60704ZM56.0144 13.2472C54.7479 13.2472 53.7188 12.182 53.7188 10.8726C53.719 9.56314 54.7479 8.49805 56.0144 8.49805C57.2796 8.4979 58.3101 9.56329 58.3101 10.8726C58.3102 12.1818 57.2795 13.2472 56.0144 13.2472Z" fill="#57E2D0"/>
<path fill-rule="evenodd" clip-rule="evenodd" d="M12.3634 9.90797H4.12614C3.83014 9.90797 3.58984 9.65971 3.58984 9.35355C3.59013 9.04709 3.83 8.79897 4.126 8.79897L12.3634 8.79883C12.6594 8.79883 12.8995 9.04723 12.8995 9.35355C12.8998 9.65971 12.6594 9.90797 12.3634 9.90797Z" fill="#57E2D0"/>
<path fill-rule="evenodd" clip-rule="evenodd" d="M12.3634 12.8552H4.12614C3.83014 12.8552 3.58984 12.607 3.58984 12.3007C3.59013 11.9944 3.83 11.7462 4.126 11.7462L12.3634 11.7461C12.6594 11.7461 12.8995 11.9945 12.8995 12.3007C12.8998 12.607 12.6594 12.8554 12.3634 12.8552Z" fill="#57E2D0"/>
</svg>
