<svg width="92" height="67" viewBox="0 0 92 67" fill="none" xmlns="http://www.w3.org/2000/svg">
<rect x="11" y="7" width="12" height="4" fill="#B90808"/>
<path d="M86.5012 66.0402H5.60249C2.9856 66.0402 0.859375 63.914 0.859375 61.2971V15.1336C0.859375 12.5167 2.9856 10.3904 5.60249 10.3904H31.342L33.1003 3.48022C33.6114 1.45622 34.8994 0.25 36.5349 0.25H55.5074C57.1429 0.25 58.4309 1.45622 58.942 3.48022L60.7003 10.3904H86.4398C89.0567 10.3904 91.1829 12.5167 91.1829 15.1336V61.3176C91.2443 63.914 89.118 66.0402 86.5012 66.0402ZM5.60249 12.4349C4.11004 12.4349 2.90382 13.6411 2.90382 15.1336V61.3176C2.90382 62.81 4.11004 64.0162 5.60249 64.0162H86.4807C87.9732 64.0162 89.1794 62.81 89.1794 61.3176V15.1336C89.1794 13.6411 87.9732 12.4349 86.4807 12.4349H59.9643C59.494 12.4349 59.0852 12.1282 58.9829 11.658L57.0203 3.97089C56.8567 3.33711 56.4478 2.29444 55.5483 2.29444H36.5758C35.6763 2.29444 35.2674 3.35755 35.1038 3.97089L33.1412 11.658C33.0185 12.1078 32.6096 12.4349 32.1598 12.4349H5.60249Z" fill="white"/>
<path d="M39 42V33.5H40L46 30.5L53 34V42L46 46L39 42Z" fill="#B90808"/>
<path d="M90.2211 26.1516H69.4496C68.8771 26.1516 68.4274 25.7019 68.4274 25.1294C68.4274 24.557 68.8771 24.1072 69.4496 24.1072H90.2211C90.7936 24.1072 91.2434 24.557 91.2434 25.1294C91.2434 25.7019 90.7731 26.1516 90.2211 26.1516ZM22.6522 26.1516H1.90113C1.32868 26.1516 0.878906 25.7019 0.878906 25.1294C0.878906 24.557 1.32868 24.1072 1.90113 24.1072H22.6727C23.2451 24.1072 23.6949 24.557 23.6949 25.1294C23.6949 25.7019 23.2247 26.1516 22.6522 26.1516ZM90.2211 21.0405H65.7287C65.1562 21.0405 64.7065 20.5908 64.7065 20.0183C64.7065 19.4459 65.1562 18.9961 65.7287 18.9961H90.2211C90.7936 18.9961 91.2434 19.4459 91.2434 20.0183C91.2434 20.5908 90.7731 21.0405 90.2211 21.0405ZM26.3731 21.0405H1.90113C1.32868 21.0405 0.878906 20.5908 0.878906 20.0183C0.878906 19.4459 1.32868 18.9961 1.90113 18.9961H26.3731C26.9456 18.9961 27.3954 19.4459 27.3954 20.0183C27.3954 20.5908 26.9456 21.0405 26.3731 21.0405Z" fill="white"/>
<path d="M46.0621 61.0295C33.4888 61.0295 23.2461 50.8073 23.2461 38.2135C23.2461 25.6197 33.4683 15.418 46.0621 15.418C58.6559 15.418 68.8781 25.6402 68.8781 38.234C68.8781 50.8277 58.6354 61.0295 46.0621 61.0295ZM46.0621 17.4624C34.6132 17.4624 25.2905 26.7851 25.2905 38.234C25.2905 49.6829 34.6132 59.0055 46.0621 59.0055C57.511 59.0055 66.8336 49.6829 66.8336 38.234C66.8132 26.7646 57.511 17.4624 46.0621 17.4624Z" fill="white"/>
<path d="M46.0598 47.0874C45.8758 47.0874 45.7122 47.0465 45.5487 46.9443L38.7611 43.019C38.4544 42.835 38.25 42.5079 38.25 42.1399V34.3096C38.25 33.9416 38.4544 33.6145 38.7611 33.4305L45.5487 29.5052C45.8553 29.3212 46.2642 29.3212 46.5709 29.5052L53.3584 33.4101C53.6651 33.5941 53.8696 33.9212 53.8696 34.2892V42.1194C53.8696 42.4874 53.6651 42.8145 53.3584 42.9985L46.5709 46.9239C46.4073 47.0465 46.2233 47.0874 46.0598 47.0874ZM40.2944 41.547L46.0598 44.8794L51.8251 41.547V34.8821L46.0598 31.5701L40.2944 34.9025V41.547Z" fill="white"/>
<path d="M46.0619 31.4084C45.7961 31.4084 45.5099 31.3062 45.3259 31.0813C44.9374 30.6724 44.9579 30.0182 45.3668 29.6298L56.6317 18.9782C57.0405 18.5898 57.6948 18.6102 58.0832 19.0191C58.4717 19.428 58.4512 20.0822 58.0423 20.4707L46.7774 31.1222C46.5525 31.3062 46.3072 31.4084 46.0619 31.4084Z" fill="white"/>
<path d="M67.6915 39.747C67.5892 39.747 67.487 39.7266 67.4052 39.7061L52.5421 35.2901C52.0106 35.1266 51.6835 34.5541 51.847 34.0226C52.0106 33.491 52.583 33.1639 53.1146 33.3275L67.9572 37.7639C68.4888 37.9275 68.8159 38.4999 68.6523 39.0315C68.5297 39.4608 68.1208 39.747 67.6915 39.747Z" fill="white"/>
<path d="M56.4256 58.2296C55.9553 58.2296 55.5464 57.923 55.4238 57.4527L51.846 42.3852C51.7233 41.8332 52.0504 41.2812 52.6024 41.1585C53.1544 41.0358 53.7064 41.363 53.8291 41.915L57.4069 56.9825C57.5296 57.5345 57.2024 58.0865 56.6504 58.2092C56.5891 58.2296 56.5073 58.2296 56.4256 58.2296Z" fill="white"/>
<path d="M34.7962 57.7209C34.5305 57.7209 34.2442 57.6187 34.0602 57.3938C33.6718 56.9849 33.6922 56.3307 34.1011 55.9423L45.366 45.2907C45.7749 44.9023 46.4291 44.9227 46.8176 45.3316C47.206 45.7405 47.1856 46.3947 46.7767 46.7832L35.5118 57.4347C35.3074 57.6392 35.0416 57.7209 34.7962 57.7209Z" fill="white"/>
<path d="M39.2735 43.162C39.1713 43.162 39.069 43.1416 38.9873 43.1211L24.1242 38.6847C23.5926 38.5211 23.2655 37.9487 23.429 37.4171C23.5926 36.8856 24.165 36.5585 24.6966 36.722L39.5393 41.1585C40.0708 41.322 40.3979 41.8945 40.2344 42.426C40.1117 42.8758 39.7028 43.162 39.2735 43.162Z" fill="white"/>
<path d="M39.2537 35.3312C38.7835 35.3312 38.3746 35.0245 38.2519 34.5543L34.6741 19.4867C34.5515 18.9347 34.8786 18.3827 35.4306 18.2601C35.9826 18.1374 36.5346 18.4645 36.6572 19.0165L40.235 34.0841C40.3577 34.6361 40.0306 35.1881 39.4786 35.3107C39.4172 35.3107 39.3355 35.3312 39.2537 35.3312Z" fill="white"/>
<path d="M46.0593 66.0404C30.7055 66.0404 18.2344 53.5488 18.2344 38.2155C18.2344 22.8822 30.7259 10.3906 46.0593 10.3906C61.413 10.3906 73.8842 22.8822 73.8842 38.2155C73.8842 53.5488 61.3926 66.0404 46.0593 66.0404ZM46.0593 12.4351C31.8504 12.4351 20.2788 24.0066 20.2788 38.2155C20.2788 52.4244 31.8504 63.996 46.0593 63.996C60.2682 63.996 71.8397 52.4244 71.8397 38.2155C71.8397 24.0066 60.2682 12.4351 46.0593 12.4351Z" fill="white"/>
<path d="M23.6939 12.4342C23.1214 12.4342 22.6716 11.9844 22.6716 11.4119V7.7115H12.0405V11.4119C12.0405 11.9844 11.5908 12.4342 11.0183 12.4342C10.4459 12.4342 9.99609 11.9844 9.99609 11.4119V6.70972C9.99609 6.13728 10.4459 5.6875 11.0183 5.6875H23.6939C24.2663 5.6875 24.7161 6.13728 24.7161 6.70972V11.4324C24.7161 11.9844 24.2459 12.4342 23.6939 12.4342Z" fill="white"/>
<path d="M81.0806 12.4342H68.405C67.8326 12.4342 67.3828 11.9844 67.3828 11.4119V6.70972C67.3828 6.13728 67.8326 5.6875 68.405 5.6875H81.0806C81.653 5.6875 82.1028 6.13728 82.1028 6.70972V11.4324C82.1028 11.9844 81.653 12.4342 81.0806 12.4342ZM69.4273 10.3897H80.0584V7.7115H69.4273V10.3897Z" fill="white"/>
</svg>
