<svg width="97" height="97" viewBox="0 0 97 97" fill="none" xmlns="http://www.w3.org/2000/svg">
<g clip-path="url(#clip0_97_3278)">
<path d="M32.0025 41.9995C35.6025 38.3995 39.1692 40.4995 40.5025 41.9995L43.0025 40.4995H45.5025H48.0025L51.0025 43.4995V46.9995L48.0025 50.4995L43.0025 54.4995L40.5025 56.9995L33.5025 49.4995C32.0025 47.6662 29.6025 43.5995 32.0025 41.9995Z" fill="#B90808"/>
<path d="M93.9708 80.7217H3.0333C2.73305 80.7178 2.44619 80.5968 2.23386 80.3844C2.02153 80.1721 1.90051 79.8852 1.89659 79.585V17.4444C1.89458 17.2931 1.9224 17.1429 1.97844 17.0024C2.03448 16.8619 2.11766 16.7338 2.22322 16.6254C2.32877 16.517 2.45464 16.4305 2.59364 16.3708C2.73263 16.3111 2.88203 16.2793 3.0333 16.2773H93.9708C94.2711 16.2813 94.5579 16.4023 94.7702 16.6146C94.9826 16.827 95.1036 17.1138 95.1075 17.4141V79.5547C95.1095 79.706 95.0817 79.8561 95.0257 79.9967C94.9696 80.1372 94.8865 80.2653 94.7809 80.3736C94.6753 80.482 94.5495 80.5685 94.4105 80.6283C94.2715 80.688 94.1221 80.7197 93.9708 80.7217ZM85.2105 78.4483H92.7886V70.8701H85.2105V78.4483ZM67.4322 78.4483H82.937V70.8701H67.4322V78.4483ZM49.6388 78.4483H65.1739V70.8701H49.6388V78.4483ZM31.8302 78.4483H47.3653V70.8701H31.8302V78.4483ZM14.0519 78.4483H29.5719V70.8701H14.0671L14.0519 78.4483ZM4.15487 78.4483H11.733V70.8701H4.15487V78.4483ZM4.15487 68.5512H92.8189V64.0044H78.6327C78.3312 64.0044 78.0421 63.8846 77.8289 63.6714C77.6157 63.4583 77.496 63.1691 77.496 62.8677V34.192C77.496 33.8906 77.6157 33.6014 77.8289 33.3883C78.0421 33.1751 78.3312 33.0553 78.6327 33.0553H92.8341V28.5084H4.17002V33.0553H18.3714C18.6729 33.0553 18.962 33.1751 19.1752 33.3883C19.3884 33.6014 19.5081 33.8906 19.5081 34.192V62.807C19.5081 63.1085 19.3884 63.3976 19.1752 63.6108C18.962 63.824 18.6729 63.9437 18.3714 63.9437H4.17002L4.15487 68.5512ZM79.7542 61.6703H92.8189V35.3287H79.7694L79.7542 61.6703ZM4.15487 61.6703H17.2196V35.3287H4.17002L4.15487 61.6703ZM85.2105 26.1744H92.7886V18.5963H85.2105V26.1744ZM67.4322 26.1744H82.937V18.5963H67.4322V26.1744ZM49.6388 26.1744H65.1739V18.5963H49.6388V26.1744ZM31.8302 26.1744H47.3653V18.5963H31.8302V26.1744ZM14.0519 26.1744H29.5719V18.5963H14.0671L14.0519 26.1744ZM4.15487 26.1744H11.733V18.5963H4.15487V26.1744ZM71.7366 63.9437H25.2675C24.966 63.9437 24.6769 63.824 24.4637 63.6108C24.2506 63.3976 24.1308 63.1085 24.1308 62.807V34.192C24.1308 33.8906 24.2506 33.6014 24.4637 33.3883C24.6769 33.1751 24.966 33.0553 25.2675 33.0553H71.7366C72.0381 33.0553 72.3272 33.1751 72.5404 33.3883C72.7535 33.6014 72.8733 33.8906 72.8733 34.192V62.807C72.8733 63.1085 72.7535 63.3976 72.5404 63.6108C72.3272 63.824 72.0381 63.9437 71.7366 63.9437ZM26.4042 61.6703H70.5999V35.3287H26.4042V61.6703ZM41.03 58.1692C40.7299 58.1627 40.4432 58.0437 40.2267 57.8358L32.9821 50.5911C31.4119 49.1496 30.3981 47.2023 30.1175 45.0894C30.0137 44.2438 30.1044 43.3857 30.3827 42.5806C30.6611 41.7754 31.1196 41.0445 31.7235 40.4436C32.3273 39.8426 33.0605 39.3876 33.867 39.1132C34.6735 38.8388 35.532 38.7522 36.3771 38.8602C38.097 39.0581 39.7153 39.7774 41.0149 40.9214C41.9814 39.9702 43.1965 39.3106 44.5208 39.0184C45.8451 38.7262 47.2249 38.8132 48.5021 39.2694C49.7755 38.8229 51.1484 38.741 52.4659 39.0329C53.7834 39.3248 54.9932 39.9789 55.9589 40.9214C59.4752 37.9811 63.2339 38.36 65.28 40.3909C67.3261 42.4219 67.7656 46.7869 64.0372 50.5305L56.7622 57.7752C56.5491 57.988 56.2602 58.1076 55.9589 58.1076C55.6577 58.1076 55.3688 57.988 55.1556 57.7752L48.5021 51.1973L41.8333 57.8358C41.6168 58.0437 41.3301 58.1627 41.03 58.1692ZM50.1238 49.5302L56.0347 55.4259L62.5064 48.9845C65.3103 46.1655 65.1133 43.4222 63.7492 42.0733C62.3852 40.7244 59.6419 40.5577 56.838 43.3161C56.7335 43.4233 56.6086 43.5086 56.4706 43.5668C56.3327 43.625 56.1844 43.6549 56.0347 43.6549C55.885 43.6549 55.7368 43.625 55.5988 43.5668C55.4608 43.5086 55.3359 43.4233 55.2314 43.3161C54.132 42.0801 52.6159 41.2924 50.9725 41.1033C51.485 41.82 51.8271 42.6442 51.9728 43.5131C52.0997 44.5977 51.9907 45.6969 51.6532 46.7354C51.3158 47.774 50.7578 48.7273 50.0177 49.5302H50.1238ZM35.8314 41.1033C35.3826 41.0926 34.9363 41.173 34.5195 41.3397C34.1027 41.5065 33.724 41.756 33.4064 42.0733C33.0485 42.44 32.777 42.8821 32.6118 43.3672C32.4466 43.8523 32.3919 44.3682 32.4516 44.8772C32.6896 46.4618 33.472 47.9141 34.6644 48.9845L41.1058 55.4259L47.7746 48.7875C48.4067 48.1966 48.9085 47.4802 49.2478 46.6842C49.5871 45.8882 49.7564 45.0301 49.7449 44.1648C49.7522 44.0791 49.7522 43.9929 49.7449 43.9072C49.6712 43.4661 49.5116 43.0438 49.275 42.6644C49.1421 42.441 48.9731 42.2413 48.7749 42.0733C47.2592 40.6789 44.4705 40.6789 41.9394 43.3312C41.8368 43.4417 41.7125 43.5297 41.5743 43.5897C41.436 43.6496 41.2868 43.6804 41.1361 43.6798C40.9837 43.6864 40.8318 43.6599 40.6905 43.6024C40.5493 43.5449 40.4221 43.4575 40.3177 43.3464C39.252 42.1586 37.8043 41.3812 36.2255 41.1487L35.8314 41.1033Z" fill="white"/>
</g>
<defs>
<clipPath id="clip0_97_3278">
<rect width="97" height="97" fill="white" transform="translate(0.00195312)"/>
</clipPath>
</defs>
</svg>
