<svg width="107" height="106" viewBox="0 0 107 106" fill="none" xmlns="http://www.w3.org/2000/svg">
<g clip-path="url(#clip0_97_9342)">
<path fill-rule="evenodd" clip-rule="evenodd" d="M2.58057 86.345H104.862V28.6956H2.58057V86.345ZM105.791 88.2046H1.65063C1.13738 88.2046 0.720703 87.7887 0.720703 87.2749V27.7659C0.720703 27.2524 1.13689 26.8362 1.65039 26.8362L105.791 26.8359C106.305 26.8359 106.721 27.2526 106.721 27.7659L106.721 87.2749C106.721 87.7884 106.304 88.2048 105.791 88.2046Z" fill="#151515"/>
<circle cx="53.7199" cy="57.2394" r="9.18667" fill="#B90808"/>
<circle cx="96.8267" cy="34.7544" r="2.82667" fill="#B90808"/>
<path fill-rule="evenodd" clip-rule="evenodd" d="M28.7209 54.3145H1.65063C1.13738 54.3145 0.720703 53.8983 0.720703 53.3848C0.720703 52.8713 1.13689 52.4551 1.65039 52.4551H28.7209C29.2341 52.4551 29.6503 52.8715 29.6503 53.3848C29.6508 53.8983 29.2339 54.3147 28.7209 54.3145ZM105.791 54.3145H78.7213C78.208 54.3145 77.7908 53.8983 77.7908 53.3848C77.7911 52.8713 78.2075 52.4551 78.7208 52.4551H105.791C106.305 52.4551 106.721 52.8715 106.721 53.3848C106.721 53.8983 106.304 54.3147 105.791 54.3145ZM28.7209 62.6005H1.65063C1.13738 62.6005 0.720703 62.1843 0.720703 61.671C0.720703 61.1573 1.13689 60.7413 1.65039 60.7413L28.7209 60.7411C29.2341 60.7411 29.6503 61.1575 29.6503 61.671C29.6508 62.1843 29.2339 62.6005 28.7209 62.6005ZM105.791 62.6005H78.7213C78.208 62.6005 77.7908 62.1843 77.7908 61.671C77.7911 61.1573 78.2075 60.7413 78.7208 60.7413L105.791 60.7411C106.305 60.7411 106.721 61.1575 106.721 61.671C106.721 62.1843 106.304 62.6005 105.791 62.6005Z" fill="#151515"/>
<path fill-rule="evenodd" clip-rule="evenodd" d="M14.141 28.6949C13.6277 28.6949 13.2113 28.2787 13.2113 27.7652L13.2116 19.6545H8.16992V27.7652C8.16992 28.2787 7.75349 28.6951 7.24023 28.6951C6.72746 28.6949 6.31055 28.2787 6.31055 27.7652V18.7246C6.31055 18.2113 6.72697 17.7949 7.24023 17.7949H14.141C14.6569 17.7949 15.0707 18.2116 15.0707 18.7249L15.0709 27.7652C15.0709 28.2787 14.6567 28.6951 14.141 28.6949Z" fill="#151515"/>
<path fill-rule="evenodd" clip-rule="evenodd" d="M53.7203 33.1191C40.2629 33.1191 29.3108 44.0688 29.3108 57.5275C29.3108 70.9859 40.2626 81.9353 53.7201 81.9353C67.1781 81.9353 78.127 70.9859 78.127 57.5275C78.1272 44.0688 67.1776 33.1194 53.7203 33.1191ZM53.7203 83.7949C39.2359 83.7949 27.4512 72.0115 27.4512 57.5275C27.4514 43.0432 39.2356 31.2598 53.7201 31.2598C68.2048 31.2595 79.9866 43.0432 79.9866 57.5275C79.9866 72.0112 68.2043 83.7949 53.7203 83.7949Z" fill="#151515"/>
<path fill-rule="evenodd" clip-rule="evenodd" d="M53.721 41.377C44.8154 41.377 37.5706 48.6215 37.5706 57.5264C37.5706 66.4306 44.8151 73.6754 53.7208 73.6754C62.6242 73.6754 69.8685 66.4308 69.8685 57.5264C69.8688 48.6213 62.6239 41.3772 53.721 41.377ZM53.721 75.535C43.791 75.535 35.7109 67.4564 35.7109 57.5264C35.7112 47.596 43.7911 39.5176 53.7208 39.5176C63.6505 39.5176 71.7281 47.5962 71.7281 57.5264C71.7281 67.4561 63.6505 75.535 53.721 75.535Z" fill="#151515"/>
<path fill-rule="evenodd" clip-rule="evenodd" d="M53.7222 50.0566C49.6037 50.0566 46.2522 53.4074 46.2522 57.5262C46.2527 61.6445 49.6032 64.9952 53.722 64.9952C57.841 64.9952 61.1917 61.6445 61.1917 57.5262C61.192 53.4074 57.8405 50.0566 53.7222 50.0566ZM53.7222 66.8548C48.5767 66.8548 44.3926 62.6698 44.3926 57.5262C44.3926 52.3818 48.5767 48.1973 53.722 48.1973C58.8651 48.197 63.0514 52.3821 63.0514 57.5262C63.0514 62.6698 58.8648 66.8548 53.7222 66.8548Z" fill="#151515"/>
<path fill-rule="evenodd" clip-rule="evenodd" d="M100.774 28.6952C100.26 28.6952 99.8433 28.279 99.8433 27.7655L99.8436 23.2151H89.26V27.7655C89.26 28.279 88.8433 28.6954 88.3301 28.6954C87.8173 28.6952 87.4004 28.279 87.4004 27.7655L87.4006 22.2852C87.4006 21.7717 87.8168 21.3555 88.3301 21.3555H100.774C101.287 21.3555 101.703 21.7717 101.703 22.2854V27.7655C101.703 28.279 101.287 28.6954 100.774 28.6952Z" fill="#151515"/>
<path fill-rule="evenodd" clip-rule="evenodd" d="M96.3478 33.24C95.1787 33.24 94.2268 34.1919 94.2268 35.3615C94.227 36.5311 95.1783 37.4828 96.3478 37.4828C97.5176 37.4825 98.4688 36.5313 98.4688 35.3615C98.4693 34.1917 97.5174 33.2402 96.3478 33.24ZM96.3478 39.3424C94.1517 39.3424 92.3672 37.5566 92.3672 35.3615C92.3677 33.1664 94.1517 31.3809 96.3478 31.3809C98.5417 31.3806 100.328 33.1666 100.328 35.3615C100.329 37.5564 98.5415 39.3424 96.3478 39.3424Z" fill="#151515"/>
<path fill-rule="evenodd" clip-rule="evenodd" d="M20.6526 33.7441H6.36938C5.85612 33.7441 5.43945 33.328 5.43945 32.8147C5.43994 32.3009 5.85588 31.885 6.36914 31.885L20.6526 31.8848C21.1659 31.8848 21.5823 32.3012 21.5823 32.8147C21.5828 33.328 21.1659 33.7441 20.6526 33.7441Z" fill="#151515"/>
<path fill-rule="evenodd" clip-rule="evenodd" d="M20.6526 38.6836H6.36938C5.85612 38.6836 5.43945 38.2674 5.43945 37.7539C5.43994 37.2404 5.85588 36.8245 6.36914 36.8245L20.6526 36.8242C21.1659 36.8242 21.5823 37.2406 21.5823 37.7539C21.5828 38.2674 21.1659 38.6838 20.6526 38.6836Z" fill="#151515"/>
</g>
<defs>
<clipPath id="clip0_97_9342">
<rect width="106" height="106" fill="white" transform="translate(0.720703)"/>
</clipPath>
</defs>
</svg>
