<svg width="111" height="110" viewBox="0 0 111 110" fill="none" xmlns="http://www.w3.org/2000/svg">
<g clip-path="url(#clip0_97_9365)">
<rect x="47.7207" y="55" width="16" height="11" fill="#B90808"/>
<rect x="91.7207" y="27" width="7" height="19" fill="#B90808"/>
<rect x="11.7207" y="27" width="7" height="19" fill="#B90808"/>
<path d="M107.283 19.5861H96.7122V18.8691C96.7122 18.276 96.2314 17.7949 95.638 17.7949C95.0446 17.7949 94.5638 18.276 94.5638 18.8691V19.5861H83.9929C83.3995 19.5861 82.9186 20.0671 82.9186 20.6603C82.9186 21.2535 83.3995 21.7345 83.9929 21.7345H94.5638V25.8299H91.923C91.3296 25.8299 90.8487 26.3109 90.8487 26.9041V31.7346H76.0355C75.2971 25.9235 70.3256 21.4148 64.3172 21.4148H47.1246C41.1163 21.4148 36.1446 25.9235 35.4064 31.7346H20.5929V26.9041C20.5929 26.3109 20.1121 25.8299 19.5187 25.8299H16.8778V21.7345H27.4488C28.0422 21.7345 28.523 21.2535 28.523 20.6603C28.523 20.0671 28.0422 19.5861 27.4488 19.5861H16.8778V18.8691C16.8778 18.276 16.397 17.7949 15.8036 17.7949C15.2102 17.7949 14.7294 18.276 14.7294 18.8691V19.5861H4.1582C3.5648 19.5861 3.08398 20.0671 3.08398 20.6603C3.08398 21.2535 3.5648 21.7345 4.1582 21.7345H14.7292V25.8299H12.0883C11.4949 25.8299 11.0141 26.3109 11.0141 26.9041V43.3278C11.0141 45.9687 13.1627 48.1171 15.8036 48.1171C18.4445 48.1171 20.5929 45.9687 20.5929 43.3278V40.8253H38.2735C28.0136 46.521 21.1266 56.9044 19.9378 68.6197H16.3686C14.3472 68.6197 12.7025 70.2643 12.7025 72.2857C12.7025 74.3072 14.3472 75.9516 16.3686 75.9516H23.4185C25.44 75.9516 27.0844 74.3072 27.0844 72.2857C27.0844 61.5425 33.1789 51.6438 42.6992 46.7718L43.8663 49.2468C44.7755 51.1756 46.5918 52.3272 48.7243 52.3272H51.9102V54.4623H50.2965C48.5196 54.4623 47.0739 55.908 47.0739 57.685V63.8901C47.0739 65.667 48.5196 67.1127 50.2965 67.1127H61.1438C62.9208 67.1127 64.3664 65.667 64.3664 63.8901V57.685C64.3664 55.908 62.9208 54.4623 61.1438 54.4623H59.5301V52.3272H62.7162C64.8486 52.3272 66.6646 51.1756 67.5743 49.2468L68.7432 46.7675C78.2677 51.6375 84.366 61.541 84.366 72.2857C84.366 74.3072 86.0107 75.9518 88.0336 75.9518L95.082 75.9417C97.0981 75.9417 98.7382 74.3016 98.7382 72.2855C98.7382 70.2696 97.0981 68.6295 95.082 68.6295H91.5143C90.3282 56.9096 83.4409 46.5228 73.1776 40.8251H90.8479V43.3276C90.8479 45.9685 92.9963 48.1169 95.6372 48.1169C98.278 48.1169 100.427 45.9685 100.427 43.3276V26.9039C100.427 26.3107 99.9459 25.8296 99.3525 25.8296H96.7114V21.7343H107.283C107.877 21.7343 108.357 21.2533 108.357 20.6601C108.357 20.0669 107.876 19.5861 107.283 19.5861ZM18.4445 43.328C18.4445 44.7842 17.2598 45.9689 15.8036 45.9689C14.3474 45.9689 13.1625 44.7842 13.1625 43.328V27.9785H18.4445V43.328ZM37.4564 33.2314C37.4564 27.9005 41.7935 23.5635 47.1244 23.5635H64.317C69.6479 23.5635 73.985 27.9005 73.985 33.2314V36.5287C73.985 37.7133 73.0212 38.6771 71.8366 38.6771H39.6048C38.4202 38.6771 37.4564 37.7133 37.4564 36.5287V33.2314ZM20.5929 33.8831H35.308V36.5284C35.308 37.3115 35.522 38.0439 35.8893 38.6769H20.5929V33.8831ZM29.84 55.6087C26.6319 60.5832 24.9364 66.3503 24.9364 72.286C24.9364 73.1228 24.2555 73.8034 23.4189 73.8034H16.3686C15.5316 73.8034 14.851 73.1226 14.851 72.286C14.851 71.4489 15.5318 70.7683 16.3686 70.7683H20.9218C21.4845 70.7683 21.952 70.3341 21.993 69.7727C22.8623 57.9346 29.915 47.4206 40.4876 42.0817L41.7823 44.8274C36.9204 47.299 32.8065 51.0085 29.84 55.6087ZM62.2187 57.685V63.8901C62.2187 64.4824 61.7368 64.9643 61.1444 64.9643H50.2972C49.7049 64.9643 49.223 64.4824 49.223 63.8901V57.685C49.223 57.0926 49.7049 56.6107 50.2972 56.6107H61.1444C61.7365 56.6107 62.2187 57.0926 62.2187 57.685ZM57.3823 54.4623H54.0591V52.3272H57.3823V54.4623ZM65.6317 48.3307C65.086 49.488 63.9963 50.179 62.7169 50.179H48.7247C47.4451 50.179 46.3557 49.488 45.81 48.3307L42.2708 40.8253H69.1706L65.6317 48.3307ZM89.4591 69.7824C89.4999 70.3438 89.9674 70.7784 90.5303 70.7784H95.0827C95.9139 70.7784 96.5904 71.4545 96.5904 72.286C96.5904 73.1174 95.9141 73.7937 95.0814 73.7937L88.033 73.8038C87.196 73.8038 86.5153 73.123 86.5153 72.2862C86.5153 66.3541 84.8213 60.5899 81.6165 55.6169C78.6482 51.0108 74.5292 47.2973 69.6606 44.8242L70.9555 42.0779C81.5363 47.4169 88.5927 57.9365 89.4591 69.7824ZM75.5521 38.6771C75.9195 38.0442 76.1334 37.3118 76.1334 36.5287V33.8831H90.8485V38.6769H75.5521V38.6771ZM98.2789 43.328C98.2789 44.7842 97.094 45.9689 95.6378 45.9689C94.1816 45.9689 92.997 44.7842 92.997 43.328V27.9785H98.2789V43.328ZM69.9567 84.7987C70.3763 85.218 70.3763 85.8982 69.9567 86.3176C66.0317 90.2428 60.8761 92.205 55.7207 92.205C50.5651 92.205 45.4095 90.2426 41.4845 86.3176C41.0649 85.8982 41.0649 85.218 41.4845 84.7987C41.9037 84.3791 42.5843 84.3791 43.0035 84.7987C46.4008 88.1956 50.9168 90.0662 55.7207 90.0662C60.5246 90.0662 65.0408 88.1956 68.4377 84.7987C68.8569 84.3791 69.5375 84.3791 69.9567 84.7987ZM48.8844 78.9182C52.654 82.687 58.787 82.6874 62.557 78.9182C62.9762 78.4986 63.6568 78.4986 64.076 78.9182C64.4956 79.3376 64.4956 80.0178 64.076 80.4373C61.7724 82.7407 58.7466 83.8925 55.7205 83.8925C52.6946 83.8925 49.6688 82.7407 47.3652 80.4373C46.9456 80.0178 46.9456 79.3376 47.365 78.9182C47.7848 78.4986 48.4652 78.4986 48.8844 78.9182ZM55.7207 73.8006C54.7741 73.8006 54.002 73.0285 54.002 72.0819C54.002 71.1353 54.7741 70.3631 55.7207 70.3631C56.6673 70.3631 57.4395 71.1353 57.4395 72.0819C57.4395 73.0285 56.6675 73.8006 55.7207 73.8006ZM55.7207 64.1069C57.5512 64.1069 59.04 62.6178 59.04 60.7875C59.04 58.9573 57.551 57.4684 55.7207 57.4684C53.8904 57.4684 52.4014 58.9575 52.4014 60.7875C52.4014 62.6178 53.8904 64.1069 55.7207 64.1069ZM55.7207 59.6168C56.3663 59.6168 56.8916 60.1419 56.8916 60.7875C56.8916 61.4331 56.3663 61.9584 55.7207 61.9584C55.0751 61.9584 54.5498 61.4331 54.5498 60.7875C54.5498 60.1419 55.0753 59.6168 55.7207 59.6168Z" fill="#151515"/>
</g>
<defs>
<clipPath id="clip0_97_9365">
<rect width="110" height="110" fill="white" transform="translate(0.720703)"/>
</clipPath>
</defs>
</svg>
