<svg width="110" height="110" viewBox="0 0 110 110" fill="none" xmlns="http://www.w3.org/2000/svg">
<g clip-path="url(#clip0_97_28068)">
<path fill-rule="evenodd" clip-rule="evenodd" d="M11.4522 35.5767C9.33384 35.5767 7.60841 37.3009 7.60841 39.4197L7.60872 62.5218C7.60872 64.6405 9.33323 66.3643 11.4514 66.3643L48.2572 66.3639V35.5767H11.4522ZM49.3466 68.5426H11.4522C8.13041 68.5426 5.42969 65.842 5.42969 62.5219L5.42999 39.4193C5.42999 36.0993 8.13029 33.3985 11.4514 33.3985L49.3466 33.3984C49.9483 33.3984 50.4357 33.886 50.4357 34.4879L50.436 67.4533C50.436 68.055 49.9479 68.5431 49.3466 68.5426Z" fill="white"/>
<path fill-rule="evenodd" clip-rule="evenodd" d="M13.1402 60.8544H30.2389V41.0889H13.1402V60.8544ZM31.3283 63.0332H12.0508C11.4491 63.0332 10.9609 62.5458 10.9609 61.9441L10.9615 39.9995C10.9615 39.3979 11.4488 38.9103 12.0503 38.9103L31.3283 38.9102C31.93 38.9102 32.4172 39.3982 32.4172 39.9997L32.4176 61.9438C32.4176 62.5455 31.9292 63.0335 31.3277 63.0335L31.3283 63.0332Z" fill="white"/>
<path fill-rule="evenodd" clip-rule="evenodd" d="M56.3815 42.7139H49.3474C48.744 42.7139 48.2578 42.2265 48.2578 41.6249C48.2581 41.0232 48.744 40.5355 49.3473 40.5355L56.3815 40.5352C56.9849 40.5352 57.4703 41.0233 57.4703 41.6249C57.4709 42.2262 56.9841 42.7142 56.3809 42.7142L56.3815 42.7139ZM56.3815 61.4113H49.3474C48.744 61.4113 48.2578 60.9236 48.2578 60.322C48.2581 59.7202 48.744 59.2326 49.3473 59.2326L56.3815 59.2326C56.9849 59.2326 57.4703 59.7204 57.4703 60.322C57.4709 60.9233 56.9841 61.4113 56.3815 61.4113Z" fill="white"/>
<path fill-rule="evenodd" clip-rule="evenodd" d="M57.4684 59.5927L68.4956 64.194V37.0501L57.4684 42.3089V59.5927ZM69.5849 66.9186C69.4437 66.9186 69.2993 66.891 69.1651 66.8347L55.9611 61.3237C55.5543 61.1548 55.2891 60.7582 55.2891 60.3187L55.2897 41.6212C55.2897 41.2017 55.5311 40.8192 55.9093 40.6383L69.116 34.3403C69.453 34.1795 69.8497 34.203 70.1656 34.4024C70.482 34.6016 70.6743 34.9498 70.6743 35.3237V65.8289C70.6743 66.1935 70.4927 66.5337 70.1882 66.7359C70.007 66.8565 69.7968 66.9188 69.5849 66.9186Z" fill="white"/>
<path fill-rule="evenodd" clip-rule="evenodd" d="M18.8002 23.0418C15.9347 23.0418 13.6006 25.3649 13.6006 28.2201C13.601 31.0753 15.9345 33.3984 18.7998 33.3984C21.6674 33.3983 23.9988 31.0753 23.9988 28.2201C23.9994 25.3648 21.6669 23.0419 18.8002 23.0418ZM18.8002 35.5766C14.7321 35.5766 11.4219 32.2767 11.4219 28.2201C11.4223 24.1634 14.7316 20.8633 18.7998 20.8633C22.8683 20.863 26.1775 24.1635 26.1775 28.2201C26.1781 32.2766 22.8678 35.5769 18.8002 35.5766Z" fill="white"/>
<path fill-rule="evenodd" clip-rule="evenodd" d="M38.7315 26.358C36.7818 26.358 35.1943 27.9376 35.1943 29.8788C35.1945 31.8198 36.7811 33.3994 38.7309 33.3994C40.6814 33.3993 42.2676 31.82 42.2676 29.8788C42.2677 27.9376 40.6808 26.3583 38.7309 26.3583L38.7315 26.358ZM38.7315 35.5776C35.5801 35.5776 33.0156 33.0213 33.0156 29.8788C33.0158 26.736 35.5801 24.1797 38.7309 24.1797C41.8822 24.1793 44.4463 26.7363 44.4463 29.8788C44.4465 33.021 41.8818 35.5779 38.7309 35.5779L38.7315 35.5776Z" fill="white"/>
<path fill-rule="evenodd" clip-rule="evenodd" d="M38.729 26.3598C38.6686 26.3598 38.6075 26.3555 38.5471 26.3454L20.6694 23.3709C20.0754 23.2722 19.6743 22.7112 19.7726 22.1177C19.8728 21.5241 20.4326 21.1237 21.0265 21.2218L38.9052 24.196C39.4984 24.2947 39.8992 24.8561 39.8009 25.4496C39.712 25.9823 39.2505 26.3602 38.729 26.3598Z" fill="white"/>
<path fill-rule="evenodd" clip-rule="evenodd" d="M43.6695 41.0889H36.1401C35.5392 41.0889 35.0508 40.6013 35.0508 39.9997C35.0516 39.3979 35.5387 38.9103 36.1401 38.9103L43.6695 38.9102C44.2711 38.9102 44.7585 39.3982 44.7585 39.9997C44.7588 40.6013 44.2707 41.0891 43.6695 41.0889Z" fill="white"/>
<path fill-rule="evenodd" clip-rule="evenodd" d="M43.6695 45.4756H36.1401C35.5392 45.4756 35.0508 44.9879 35.0508 44.3863C35.0516 43.7845 35.5387 43.2971 36.1401 43.2971L43.6695 43.2969C44.2711 43.2969 44.7585 43.7847 44.7585 44.3863C44.7588 44.9875 44.2707 45.4757 43.6695 45.4756Z" fill="white"/>
<path fill-rule="evenodd" clip-rule="evenodd" d="M43.6695 63.0342H36.1401C35.5392 63.0342 35.0508 62.5468 35.0508 61.9451C35.0516 61.3432 35.5387 60.8558 36.1401 60.8558L43.6695 60.8555C44.2711 60.8555 44.7585 61.3435 44.7585 61.9451C44.7588 62.5465 44.2707 63.0345 43.6695 63.0342Z" fill="white"/>
<path fill-rule="evenodd" clip-rule="evenodd" d="M43.6695 49.8658H36.1401C35.5392 49.8658 35.0508 49.3786 35.0508 48.7768C35.0516 48.1752 35.5387 47.6876 36.1401 47.6876L43.6695 47.6875C44.2711 47.6875 44.7585 48.1753 44.7585 48.7768C44.7588 49.3786 44.2707 49.8662 43.6695 49.8658Z" fill="white"/>
<path fill-rule="evenodd" clip-rule="evenodd" d="M43.6695 54.2564H36.1401C35.5392 54.2564 35.0508 53.7691 35.0508 53.1674C35.0516 52.5653 35.5387 52.0782 36.1401 52.0782L43.6695 52.0781C44.2711 52.0781 44.7585 52.5658 44.7585 53.1674C44.7588 53.7688 44.2707 54.2568 43.6695 54.2564Z" fill="white"/>
<path fill-rule="evenodd" clip-rule="evenodd" d="M43.6695 58.6436H36.1401C35.5392 58.6436 35.0508 58.1563 35.0508 57.5546C35.0516 56.9529 35.5387 56.4652 36.1401 56.4652L43.6695 56.4648C44.2711 56.4648 44.7585 56.953 44.7585 57.5546C44.7588 58.1559 44.2707 58.6439 43.6695 58.6436Z" fill="white"/>
<path fill-rule="evenodd" clip-rule="evenodd" d="M14.2043 86.0108C13.4767 86.0108 12.7383 85.8269 12.0631 85.4387C11.0707 84.867 10.3611 83.9414 10.0622 82.8311C9.766 81.7223 9.91669 80.568 10.4897 79.5797L17.8315 66.9066C18.1328 66.3862 18.7979 66.2085 19.3199 66.5104C19.84 66.8117 20.0178 67.4784 19.717 67.9989L12.3754 80.6713C12.0954 81.1551 12.0216 81.7218 12.1672 82.2671C12.315 82.8138 12.6627 83.2699 13.1507 83.5501C14.1643 84.1334 15.4637 83.7865 16.048 82.7777L25.2418 66.9066C25.5447 66.3862 26.2097 66.2087 26.7298 66.5104C27.2502 66.8117 27.4277 67.4784 27.1269 67.9989L17.9336 83.8695C17.1379 85.2423 15.6906 86.0112 14.2043 86.0108Z" fill="white"/>
<path fill-rule="evenodd" clip-rule="evenodd" d="M41.6603 86.0108C40.1735 86.0108 38.7267 85.2428 37.9304 83.87L28.7377 67.9989C28.4347 67.4781 28.6123 66.812 29.1342 66.5104C29.6543 66.2083 30.32 66.3865 30.6227 66.9069L39.816 82.7776C40.4007 83.7866 41.6997 84.133 42.7135 83.5504C43.2015 83.2695 43.5494 82.8141 43.6969 82.2669C43.8432 81.7215 43.7688 81.1553 43.4887 80.6716L36.147 67.9989C35.8466 67.4781 36.024 66.812 36.5442 66.5104C37.0646 66.2083 37.7319 66.3865 38.0326 66.9069L45.3752 79.5793C45.9463 80.5675 46.0987 81.7224 45.8018 82.8309C45.5036 83.941 44.7919 84.8674 43.8009 85.4387C43.1257 85.8265 42.3881 86.0112 41.6603 86.0108Z" fill="white"/>
<path fill-rule="evenodd" clip-rule="evenodd" d="M78.749 65.8718C78.4691 65.8718 78.1908 65.7653 77.9772 65.5518C77.5541 65.1254 77.5535 64.4359 77.981 64.0111L91.0631 50.9727L77.9814 37.9349C77.5541 37.5101 77.5535 36.8207 77.9772 36.3945C78.4036 35.9684 79.091 35.9673 79.5185 36.3921L93.3746 50.2012C93.5789 50.4054 93.6934 50.6836 93.6934 50.973C93.6937 51.2625 93.5781 51.5403 93.3739 51.7447L79.5193 65.5544C79.3057 65.7658 79.0269 65.8721 78.749 65.8718Z" fill="white"/>
<path fill-rule="evenodd" clip-rule="evenodd" d="M84.6117 60.0293C84.3828 60.0293 84.1535 59.9585 83.9568 59.8115C81.1445 57.7 79.5312 54.4782 79.5312 50.9718C79.5317 47.4655 81.1445 44.2439 83.9568 42.1325C84.4398 41.7706 85.1218 41.8688 85.4829 42.3498C85.845 42.8306 85.746 43.5138 85.2656 43.8749C83.0058 45.5706 81.71 48.1576 81.71 50.9718C81.7104 53.786 83.0054 56.3731 85.2656 58.0689C85.7462 58.4298 85.8443 59.1129 85.4829 59.594C85.2696 59.8791 84.9422 60.0296 84.6117 60.0293Z" fill="white"/>
<path fill-rule="evenodd" clip-rule="evenodd" d="M99.4832 81.9547C99.3155 81.9551 99.1466 81.9166 98.9933 81.839L69.0969 66.8041C68.5598 66.5335 68.3418 65.8789 68.6123 65.3414C68.8832 64.8036 69.537 64.5874 70.076 64.8576L98.3938 79.0986V22.8032L70.056 36.3088C69.5113 36.5675 68.8619 36.3374 68.6028 35.794C68.3437 35.2509 68.5744 34.6008 69.1173 34.3421L99.0142 20.0939C99.3513 19.9335 99.7478 19.957 100.064 20.1565C100.38 20.3557 100.572 20.7038 100.572 21.0777L100.573 80.8653C100.573 81.2437 100.376 81.5948 100.054 81.7933C99.879 81.9007 99.6818 81.9551 99.4832 81.9547Z" fill="white"/>
</g>
<defs>
<clipPath id="clip0_97_28068">
<rect width="106" height="106" fill="white"/>
</clipPath>
</defs>
</svg>
