<svg width="63" height="63" viewBox="0 0 63 63" fill="none" xmlns="http://www.w3.org/2000/svg">
<path d="M60.2813 52.0975H2.15631C1.9644 52.095 1.78105 52.0176 1.64533 51.8819C1.50962 51.7462 1.43226 51.5628 1.42975 51.3709V11.6522C1.42847 11.5555 1.44625 11.4595 1.48207 11.3697C1.51789 11.2799 1.57106 11.198 1.63853 11.1287C1.70599 11.0595 1.78645 11.0042 1.87529 10.966C1.96413 10.9278 2.05963 10.9075 2.15631 10.9062H60.2813C60.4732 10.9088 60.6566 10.9861 60.7923 11.1218C60.928 11.2575 61.0054 11.4409 61.0079 11.6328V51.3516C61.0092 51.4482 60.9914 51.5442 60.9556 51.6341C60.9197 51.7239 60.8666 51.8058 60.7991 51.875C60.7316 51.9443 60.6512 51.9996 60.5623 52.0378C60.4735 52.0759 60.378 52.0962 60.2813 52.0975ZM54.6819 50.6444H59.5257V45.8006H54.6819V50.6444ZM43.3185 50.6444H53.2288V45.8006H43.3185V50.6444ZM31.9454 50.6444H41.8751V45.8006H31.9454V50.6444ZM20.5626 50.6444H30.4923V45.8006H20.5626V50.6444ZM9.19913 50.6444H19.1191V45.8006H9.20881L9.19913 50.6444ZM2.87319 50.6444H7.71694V45.8006H2.87319V50.6444ZM2.87319 44.3184H59.5451V41.4122H50.4776C50.2849 41.4122 50.1001 41.3356 49.9638 41.1994C49.8275 41.0631 49.751 40.8783 49.751 40.6856V22.3569C49.751 22.1642 49.8275 21.9794 49.9638 21.8431C50.1001 21.7069 50.2849 21.6303 50.4776 21.6303H59.5547V18.7241H2.88288V21.6303H11.9601C12.1528 21.6303 12.3376 21.7069 12.4738 21.8431C12.6101 21.9794 12.6866 22.1642 12.6866 22.3569V40.6469C12.6866 40.8396 12.6101 41.0244 12.4738 41.1606C12.3376 41.2969 12.1528 41.3734 11.9601 41.3734H2.88288L2.87319 44.3184ZM51.1944 39.9203H59.5451V23.0834H51.2041L51.1944 39.9203ZM2.87319 39.9203H11.2238V23.0834H2.88288L2.87319 39.9203ZM54.6819 17.2322H59.5257V12.3884H54.6819V17.2322ZM43.3185 17.2322H53.2288V12.3884H43.3185V17.2322ZM31.9454 17.2322H41.8751V12.3884H31.9454V17.2322ZM20.5626 17.2322H30.4923V12.3884H20.5626V17.2322ZM9.19913 17.2322H19.1191V12.3884H9.20881L9.19913 17.2322ZM2.87319 17.2322H7.71694V12.3884H2.87319V17.2322ZM46.0698 41.3734H16.3679C16.1752 41.3734 15.9904 41.2969 15.8541 41.1606C15.7179 41.0244 15.6413 40.8396 15.6413 40.6469V22.3569C15.6413 22.1642 15.7179 21.9794 15.8541 21.8431C15.9904 21.7069 16.1752 21.6303 16.3679 21.6303H46.0698C46.2624 21.6303 46.4473 21.7069 46.5835 21.8431C46.7198 21.9794 46.7963 22.1642 46.7963 22.3569V40.6469C46.7963 40.8396 46.7198 41.0244 46.5835 41.1606C46.4473 41.2969 46.2624 41.3734 46.0698 41.3734ZM17.0944 39.9203H45.3432V23.0834H17.0944V39.9203ZM26.4429 37.6825C26.2511 37.6783 26.0678 37.6023 25.9294 37.4694L21.2988 32.8387C20.2952 31.9174 19.6472 30.6727 19.4679 29.3222C19.4015 28.7817 19.4595 28.2333 19.6374 27.7186C19.8153 27.204 20.1084 26.7368 20.4944 26.3527C20.8803 25.9686 21.3489 25.6777 21.8644 25.5023C22.3799 25.327 22.9287 25.2716 23.4688 25.3406C24.5682 25.4672 25.6026 25.9269 26.4332 26.6581C27.051 26.0501 27.8277 25.6285 28.6741 25.4418C29.5206 25.255 30.4025 25.3106 31.2188 25.6022C32.0328 25.3168 32.9103 25.2645 33.7524 25.451C34.5945 25.6376 35.3678 26.0557 35.9851 26.6581C38.2326 24.7787 40.6351 25.0209 41.9429 26.3191C43.2507 27.6172 43.5316 30.4072 41.1485 32.8L36.4985 37.4306C36.3623 37.5667 36.1776 37.6431 35.9851 37.6431C35.7925 37.6431 35.6079 37.5667 35.4716 37.4306L31.2188 33.2262L26.9563 37.4694C26.8179 37.6023 26.6347 37.6783 26.4429 37.6825ZM32.2554 32.1606L36.0335 35.9291L40.1701 31.8119C41.9623 30.01 41.8363 28.2566 40.9644 27.3944C40.0926 26.5322 38.3391 26.4256 36.5469 28.1887C36.4801 28.2573 36.4003 28.3118 36.3121 28.349C36.2239 28.3862 36.1292 28.4053 36.0335 28.4053C35.9378 28.4053 35.8431 28.3862 35.7549 28.349C35.6667 28.3118 35.5869 28.2573 35.5201 28.1887C34.8173 27.3987 33.8483 26.8952 32.7979 26.7744C33.1254 27.2325 33.3441 27.7593 33.4373 28.3147C33.5183 29.0079 33.4487 29.7105 33.233 30.3743C33.0173 31.0381 32.6607 31.6475 32.1876 32.1606H32.2554ZM23.1201 26.7744C22.8332 26.7675 22.5479 26.8189 22.2815 26.9255C22.0151 27.0321 21.7731 27.1916 21.5701 27.3944C21.3413 27.6288 21.1678 27.9114 21.0622 28.2214C20.9566 28.5315 20.9216 28.8612 20.9598 29.1866C21.1119 30.1994 21.612 31.1277 22.3741 31.8119L26.4913 35.9291L30.7538 31.6859C31.1579 31.3083 31.4786 30.8504 31.6955 30.3416C31.9124 29.8328 32.0206 29.2843 32.0132 28.7312C32.0179 28.6765 32.0179 28.6214 32.0132 28.5666C31.9661 28.2846 31.8641 28.0147 31.7129 27.7722C31.6279 27.6294 31.5199 27.5018 31.3932 27.3944C30.4244 26.5031 28.6419 26.5031 27.0241 28.1984C26.9586 28.269 26.8791 28.3253 26.7907 28.3636C26.7024 28.4019 26.607 28.4216 26.5107 28.4212C26.4133 28.4254 26.3162 28.4085 26.2259 28.3717C26.1356 28.335 26.0543 28.2792 25.9876 28.2081C25.3064 27.4489 24.3811 26.952 23.3719 26.8034L23.1201 26.7744Z" fill="#A6A182"/>
</svg>
