<svg width="57" height="43" viewBox="0 0 57 43" fill="none" xmlns="http://www.w3.org/2000/svg">
<g clip-path="url(#clip0_97_50051)">
<path d="M32.7559 42.2831H24.6786C24.3466 42.2831 24.0789 42.014 24.0789 41.6834V38.7468L1.35904 38.8023C1.03582 38.8096 0.750638 38.5259 0.75795 38.2012V8.41017C0.75795 8.07818 1.02705 7.81055 1.35757 7.81055C1.68956 7.81055 1.95866 8.07965 1.95866 8.41017V37.6002L24.6786 37.546C25.0018 37.5387 25.287 37.8225 25.2796 38.1457V41.0824H32.1563V37.957C32.1505 37.6338 32.4342 37.3501 32.7559 37.3574L55.4773 37.3618V8.41017C55.4773 8.07818 55.7464 7.81055 56.0769 7.81055C56.4089 7.81055 56.6766 8.07965 56.6766 8.41017V37.9629C56.6824 38.2861 56.3987 38.5698 56.0769 38.5625L33.3556 38.5581V41.6849C33.3556 42.014 33.0879 42.2831 32.7559 42.2831Z" fill="#A6A182"/>
<path d="M51.4988 0.293441H31.1467C30.2078 0.289053 29.3127 0.739502 28.7496 1.48976C28.2012 0.758515 27.3296 0.283203 26.3468 0.283203H5.99611C5.66412 0.283203 5.39648 0.552303 5.39648 0.882827V33.4439C5.39648 33.7759 5.66705 34.0435 5.99757 34.0435C6.05168 34.0435 23.8839 34.0318 23.8839 34.0318C25.5804 34.0333 27.2067 34.8332 28.2451 36.1729C28.4498 36.5166 28.9866 36.5444 29.225 36.2153C30.2604 34.8683 31.8911 34.064 33.5905 34.064H33.5934L51.4988 34.0727C51.8206 34.0786 52.1057 33.7949 52.0999 33.4731V0.894527C52.0984 0.56254 51.8308 0.293441 51.4988 0.293441ZM28.1471 34.3623C26.9552 33.3868 25.4444 32.8325 23.8839 32.8311L6.59573 32.8238V1.48391H26.3468C27.3398 1.48391 28.1471 2.29121 28.1471 3.28279V34.3623ZM50.8992 32.8735L33.5949 32.8647C33.5934 32.8647 33.592 32.8647 33.592 32.8647C32.0417 32.8647 30.5383 33.4146 29.3507 34.3799L29.3478 3.29449C29.3273 2.32631 30.18 1.47368 31.1467 1.49415H50.8977V32.8735H50.8992Z" fill="#A6A182"/>
<path d="M32.7747 14.3383V5.62625H47.4728V14.3383H32.7747Z" fill="#A6A182" stroke="white" stroke-width="0.877499"/>
<path d="M32.7747 28.7212V20.0091H47.4728V28.7212H32.7747Z" fill="#A6A182" stroke="white" stroke-width="0.877499"/>
<path d="M25.1596 6.49414H9.584C9.25201 6.49414 8.98438 6.76324 8.98438 7.09376V27.2309C8.98438 27.5614 9.25347 27.8305 9.584 27.8305H25.1596C25.4916 27.8305 25.7592 27.5614 25.7592 27.2309V7.09376C25.7607 6.76324 25.4916 6.49414 25.1596 6.49414ZM18.6339 26.6313L17.7886 25.002L20.3992 20.8398L24.07 26.6327H18.6339V26.6313ZM24.56 25.1644L20.9037 19.3934C20.6858 19.0248 20.1052 19.0263 19.8888 19.3963L17.148 23.7662L14.6486 18.9444C14.4497 18.5276 13.8092 18.5159 13.5942 18.9254L10.1851 24.9538V7.69631H24.5614V25.1644H24.56Z" fill="#A6A182"/>
<path d="M19.9003 13.7587C19.9003 14.9507 18.9336 15.9159 17.7402 15.9159C16.5468 15.9159 15.5801 14.9507 15.5801 13.7587C15.5801 12.5668 16.5468 11.6016 17.7402 11.6016C18.9336 11.6016 19.9003 12.5668 19.9003 13.7587Z" fill="#A6A182"/>
<path d="M56.7988 5.18722C56.7988 5.61866 56.4492 5.9682 56.0193 5.9682C55.5878 5.9682 55.2383 5.61866 55.2383 5.18722C55.2383 4.75579 55.5878 4.40625 56.0193 4.40625C56.4492 4.40771 56.7988 4.75725 56.7988 5.18722Z" fill="#A6A182"/>
<path d="M2.19916 5.18722C2.19916 5.61866 1.84962 5.9682 1.41818 5.9682C0.986746 5.9682 0.638672 5.61866 0.638672 5.18722C0.638672 4.75579 0.988209 4.40625 1.41818 4.40625C1.84816 4.40625 2.19916 4.75725 2.19916 5.18722Z" fill="#A6A182"/>
</g>
<defs>
<clipPath id="clip0_97_50051">
<rect width="56.1599" height="42" fill="white" transform="translate(0.638672 0.285156)"/>
</clipPath>
</defs>
</svg>
