<svg width="110" height="110" viewBox="0 0 110 110" fill="none" xmlns="http://www.w3.org/2000/svg">
<g clip-path="url(#clip0_97_28047)">
<path d="M90 28H50.5V21L54 18.5H86.5L90 21V28Z" fill="#B90808"/>
<circle cx="47" cy="45" r="3" fill="#B90808"/>
<circle cx="61" cy="45" r="3" fill="#B90808"/>
<path d="M99.7188 31.8127H98.0625V28.5002C98.0625 28.061 97.888 27.6397 97.5774 27.3291C97.2668 27.0185 96.8455 26.844 96.4062 26.844H91.4375V23.5315C91.447 22.6588 91.2822 21.793 90.9526 20.985C90.6231 20.1769 90.1354 19.4427 89.5183 18.8256C88.9012 18.2085 88.1671 17.7209 87.359 17.3913C86.5509 17.0618 85.6852 16.8969 84.8125 16.9065H55C54.1273 16.8969 53.2616 17.0618 52.4535 17.3913C51.6454 17.7209 50.9113 18.2085 50.2942 18.8256C49.6771 19.4427 49.1894 20.1769 48.8599 20.985C48.5303 21.793 48.3655 22.6588 48.375 23.5315V26.844H31.8125C31.8895 25.5188 31.6852 24.1924 31.2131 22.9518C30.7409 21.7112 30.0116 20.5846 29.073 19.646C28.1344 18.7074 27.0077 17.9781 25.7672 17.5059C24.5266 17.0337 23.2002 16.8295 21.875 16.9065H6.96875C6.52949 16.9065 6.10821 17.081 5.7976 17.3916C5.487 17.7022 5.3125 18.1235 5.3125 18.5627V71.5627C5.3125 72.002 5.487 72.4233 5.7976 72.7339C6.10821 73.0445 6.52949 73.219 6.96875 73.219H21.875C23.2002 73.296 24.5266 73.0917 25.7672 72.6195C27.0077 72.1474 28.1344 71.418 29.073 70.4794C30.0116 69.5408 30.7409 68.4142 31.2131 67.1736C31.6852 65.9331 31.8895 64.6066 31.8125 63.2815H35.125V71.5627C35.125 72.8805 35.6485 74.1443 36.5803 75.0762C37.5121 76.008 38.776 76.5315 40.0938 76.5315H46.7188C47.158 76.5314 47.5792 76.3568 47.8897 76.0462L60.6544 63.2815H79.1581L88.125 72.2484V91.4377C88.125 91.877 88.2995 92.2983 88.6101 92.6089C88.9207 92.9195 89.342 93.094 89.7812 93.094H96.4062C96.8455 93.094 97.2668 92.9195 97.5774 92.6089C97.888 92.2983 98.0625 91.877 98.0625 91.4377V58.3127H99.7188C100.383 58.3588 101.05 58.2619 101.673 58.0286C102.297 57.7952 102.864 57.4307 103.335 56.9598C103.805 56.4889 104.17 55.9224 104.403 55.2987C104.637 54.6749 104.734 54.0084 104.688 53.344V36.7815C104.734 36.1171 104.637 35.4505 104.403 34.8268C104.17 34.203 103.805 33.6366 103.335 33.1657C102.864 32.6947 102.297 32.3303 101.673 32.0969C101.05 31.8635 100.383 31.7666 99.7188 31.8127ZM28.5 63.2815C28.583 64.1722 28.4686 65.0702 28.165 65.9117C27.8614 66.7532 27.376 67.5174 26.7435 68.1499C26.1109 68.7825 25.3467 69.2679 24.5052 69.5715C23.6638 69.8751 22.7657 69.9894 21.875 69.9065H8.625V20.219H21.875C22.7657 20.136 23.6638 20.2504 24.5052 20.554C25.3467 20.8576 26.1109 21.3429 26.7435 21.9755C27.376 22.6081 27.8614 23.3723 28.165 24.2137C28.4686 25.0552 28.583 25.9533 28.5 26.844V63.2815ZM51.6875 23.5315C51.6722 23.0924 51.7475 22.6548 51.9086 22.246C52.0696 21.8372 52.3131 21.4659 52.6238 21.1552C52.9344 20.8445 53.3057 20.6011 53.7145 20.44C54.1233 20.279 54.5609 20.2037 55 20.219H84.8125C85.2516 20.2037 85.6892 20.279 86.098 20.44C86.5068 20.6011 86.8781 20.8445 87.1887 21.1552C87.4994 21.4659 87.7429 21.8372 87.9039 22.246C88.065 22.6548 88.1403 23.0924 88.125 23.5315V26.844H51.6875V23.5315ZM46.0331 73.219H40.0938C39.6545 73.219 39.2332 73.0445 38.9226 72.7339C38.612 72.4233 38.4375 72.002 38.4375 71.5627V63.2815H55.9706L46.0331 73.219ZM88.125 67.5645L83.8419 63.2815H88.125V67.5645ZM94.75 89.7815H91.4375V63.2815H94.75V89.7815ZM94.75 59.969H31.8125V30.1565H94.75V59.969ZM101.375 53.344C101.375 54.5514 100.926 55.0002 99.7188 55.0002H98.0625V35.1252H99.7188C100.926 35.1252 101.375 35.5741 101.375 36.7815V53.344Z" fill="white"/>
<path d="M86.4688 33.4688H36.7812C36.342 33.4688 35.9207 33.6432 35.6101 33.9539C35.2995 34.2645 35.125 34.6857 35.125 35.125V55C35.125 55.4393 35.2995 55.8605 35.6101 56.1711C35.9207 56.4818 36.342 56.6562 36.7812 56.6562H86.4688C86.908 56.6562 87.3293 56.4818 87.6399 56.1711C87.9505 55.8605 88.125 55.4393 88.125 55V35.125C88.125 34.6857 87.9505 34.2645 87.6399 33.9539C87.3293 33.6432 86.908 33.4688 86.4688 33.4688ZM84.8125 53.3438H38.4375V36.7812H84.8125V53.3438Z" fill="white"/>
<path d="M46.7187 50.0313C47.7015 50.0313 48.6621 49.7398 49.4792 49.1939C50.2963 48.6479 50.9332 47.8719 51.3093 46.964C51.6853 46.056 51.7837 45.057 51.592 44.0931C51.4003 43.1293 50.9271 42.244 50.2322 41.5491C49.5373 40.8542 48.6519 40.3809 47.6881 40.1892C46.7243 39.9975 45.7252 40.0959 44.8173 40.472C43.9094 40.848 43.1334 41.4849 42.5874 42.302C42.0414 43.1191 41.75 44.0798 41.75 45.0625C41.75 46.3803 42.2735 47.6441 43.2053 48.5759C44.1371 49.5078 45.401 50.0313 46.7187 50.0313ZM46.7187 43.4063C47.0463 43.4063 47.3665 43.5034 47.6389 43.6854C47.9113 43.8674 48.1236 44.126 48.2489 44.4287C48.3743 44.7313 48.4071 45.0643 48.3432 45.3856C48.2793 45.7069 48.1215 46.002 47.8899 46.2336C47.6583 46.4653 47.3632 46.623 47.0419 46.6869C46.7206 46.7508 46.3876 46.718 46.0849 46.5927C45.7823 46.4673 45.5236 46.255 45.3416 45.9827C45.1596 45.7103 45.0625 45.3901 45.0625 45.0625C45.0625 44.6232 45.237 44.202 45.5476 43.8914C45.8582 43.5807 46.2795 43.4063 46.7187 43.4063Z" fill="white"/>
<path d="M59.9688 50.0313C60.9515 50.0313 61.9121 49.7398 62.7292 49.1939C63.5463 48.6479 64.1832 47.8719 64.5593 46.964C64.9353 46.056 65.0337 45.057 64.842 44.0931C64.6503 43.1293 64.1771 42.244 63.4822 41.5491C62.7873 40.8542 61.9019 40.3809 60.9381 40.1892C59.9743 39.9975 58.9752 40.0959 58.0673 40.472C57.1594 40.848 56.3834 41.4849 55.8374 42.302C55.2914 43.1191 55 44.0798 55 45.0625C55 46.3803 55.5235 47.6441 56.4553 48.5759C57.3871 49.5078 58.651 50.0313 59.9688 50.0313ZM59.9688 43.4063C60.2963 43.4063 60.6165 43.5034 60.8889 43.6854C61.1613 43.8674 61.3736 44.126 61.4989 44.4287C61.6243 44.7313 61.6571 45.0643 61.5932 45.3856C61.5293 45.7069 61.3715 46.002 61.1399 46.2336C60.9083 46.4653 60.6132 46.623 60.2919 46.6869C59.9706 46.7508 59.6376 46.718 59.3349 46.5927C59.0323 46.4673 58.7736 46.255 58.5916 45.9827C58.4096 45.7103 58.3125 45.3901 58.3125 45.0625C58.3125 44.6232 58.487 44.202 58.7976 43.8914C59.1082 43.5807 59.5295 43.4063 59.9688 43.4063Z" fill="white"/>
<path d="M68.25 43.4062H81.5V46.7188H68.25V43.4062Z" fill="white"/>
<path d="M41.75 66.5938H45.0625V69.9062H41.75V66.5938Z" fill="white"/>
<path d="M11.9375 23.5312H15.25V36.7812H11.9375V23.5312Z" fill="white"/>
</g>
<defs>
<clipPath id="clip0_97_28047">
<rect width="110" height="110" fill="white"/>
</clipPath>
</defs>
</svg>
