<svg width="51" height="51" viewBox="0 0 51 51" fill="none" xmlns="http://www.w3.org/2000/svg">
<path d="M48.6094 6.57422H46.8164V3.98438C46.8164 3.40318 46.5855 2.84579 46.1746 2.43482C45.7636 2.02385 45.2062 1.79297 44.625 1.79297C44.0438 1.79297 43.4864 2.02385 43.0754 2.43482C42.6645 2.84579 42.4336 3.40318 42.4336 3.98438V6.57422H37.2539V3.98438C37.2539 3.40318 37.023 2.84579 36.6121 2.43482C36.2011 2.02385 35.6437 1.79297 35.0625 1.79297C34.4813 1.79297 33.9239 2.02385 33.5129 2.43482C33.102 2.84579 32.8711 3.40318 32.8711 3.98438V6.57422H27.6914V3.98438C27.6914 3.40318 27.4605 2.84579 27.0496 2.43482C26.6386 2.02385 26.0812 1.79297 25.5 1.79297C24.9188 1.79297 24.3614 2.02385 23.9504 2.43482C23.5395 2.84579 23.3086 3.40318 23.3086 3.98438V6.57422H18.1289V3.98438C18.1289 3.40318 17.898 2.84579 17.4871 2.43482C17.0761 2.02385 16.5187 1.79297 15.9375 1.79297C15.3563 1.79297 14.7989 2.02385 14.3879 2.43482C13.977 2.84579 13.7461 3.40318 13.7461 3.98438V6.57422H8.56641V3.98438C8.56641 3.40318 8.33553 2.84579 7.92456 2.43482C7.51359 2.02385 6.9562 1.79297 6.375 1.79297C5.7938 1.79297 5.23641 2.02385 4.82544 2.43482C4.41447 2.84579 4.18359 3.40318 4.18359 3.98438V6.57422H2.39062C1.80956 6.57464 1.25241 6.80566 0.841533 7.21653C0.430656 7.62741 0.199641 8.18456 0.199219 8.76562V15.1406C0.200773 15.616 0.357173 16.078 0.644742 16.4566C0.932312 16.8352 1.33539 17.1098 1.79297 17.2388V47.0156C1.79339 47.5967 2.02441 48.1538 2.43528 48.5647C2.84616 48.9756 3.40331 49.2066 3.98438 49.207H47.0156C47.5967 49.2066 48.1538 48.9756 48.5647 48.5647C48.9756 48.1538 49.2066 47.5967 49.207 47.0156V17.2388C49.6646 17.1098 50.0677 16.8352 50.3553 16.4566C50.6428 16.078 50.7992 15.616 50.8008 15.1406V8.76562C50.8004 8.18456 50.5693 7.62741 50.1585 7.21653C49.7476 6.80566 49.1904 6.57464 48.6094 6.57422ZM43.6289 3.98438C43.6289 3.72019 43.7339 3.46683 43.9207 3.28003C44.1075 3.09323 44.3608 2.98828 44.625 2.98828C44.8892 2.98828 45.1425 3.09323 45.3293 3.28003C45.5161 3.46683 45.6211 3.72019 45.6211 3.98438V6.57422H43.6289V3.98438ZM34.0664 3.98438C34.0664 3.72019 34.1714 3.46683 34.3582 3.28003C34.545 3.09323 34.7983 2.98828 35.0625 2.98828C35.3267 2.98828 35.58 3.09323 35.7668 3.28003C35.9536 3.46683 36.0586 3.72019 36.0586 3.98438V6.57422H34.0664V3.98438ZM24.5039 3.98438C24.5039 3.72019 24.6089 3.46683 24.7957 3.28003C24.9825 3.09323 25.2358 2.98828 25.5 2.98828C25.7642 2.98828 26.0175 3.09323 26.2043 3.28003C26.3911 3.46683 26.4961 3.72019 26.4961 3.98438V6.57422H24.5039V3.98438ZM14.9414 3.98438C14.9414 3.72019 15.0464 3.46683 15.2332 3.28003C15.42 3.09323 15.6733 2.98828 15.9375 2.98828C16.2017 2.98828 16.455 3.09323 16.6418 3.28003C16.8286 3.46683 16.9336 3.72019 16.9336 3.98438V6.57422H14.9414V3.98438ZM5.37891 3.98438C5.37891 3.72019 5.48385 3.46683 5.67066 3.28003C5.85746 3.09323 6.11082 2.98828 6.375 2.98828C6.63918 2.98828 6.89254 3.09323 7.07934 3.28003C7.26615 3.46683 7.37109 3.72019 7.37109 3.98438V6.57422H5.37891V3.98438ZM48.0117 47.0156C48.0113 47.2797 47.9062 47.5328 47.7195 47.7195C47.5328 47.9062 47.2797 48.0113 47.0156 48.0117H3.98438C3.72032 48.0113 3.46721 47.9062 3.2805 47.7195C3.09378 47.5328 2.9887 47.2797 2.98828 47.0156V17.332H48.0117V47.0156ZM49.6055 15.1406C49.605 15.4047 49.5 15.6578 49.3133 15.8445C49.1265 16.0312 48.8734 16.1363 48.6094 16.1367H2.39062C2.12657 16.1363 1.87346 16.0312 1.68675 15.8445C1.50003 15.6578 1.39495 15.4047 1.39453 15.1406V8.76562C1.39495 8.50157 1.50003 8.24846 1.68675 8.06175C1.87346 7.87503 2.12657 7.76995 2.39062 7.76953H7.37109V10.3594C7.37067 10.6234 7.26559 10.8765 7.07888 11.0633C6.89217 11.25 6.63905 11.355 6.375 11.3555C6.21649 11.3555 6.06448 11.4184 5.95239 11.5305C5.84031 11.6426 5.77734 11.7946 5.77734 11.9531C5.77734 12.1116 5.84031 12.2636 5.95239 12.3757C6.06448 12.4878 6.21649 12.5508 6.375 12.5508C6.95607 12.5504 7.51321 12.3193 7.92409 11.9085C8.33497 11.4976 8.56598 10.9404 8.56641 10.3594V7.76953H16.9336V10.3594C16.9332 10.6234 16.8281 10.8765 16.6414 11.0633C16.4547 11.25 16.2016 11.355 15.9375 11.3555C15.779 11.3555 15.627 11.4184 15.5149 11.5305C15.4028 11.6426 15.3398 11.7946 15.3398 11.9531C15.3398 12.1116 15.4028 12.2636 15.5149 12.3757C15.627 12.4878 15.779 12.5508 15.9375 12.5508C16.5186 12.5504 17.0757 12.3193 17.4866 11.9085C17.8975 11.4976 18.1285 10.9404 18.1289 10.3594V7.76953H26.4961V10.3594C26.4957 10.6234 26.3906 10.8765 26.2039 11.0633C26.0172 11.25 25.7641 11.355 25.5 11.3555C25.3415 11.3555 25.1895 11.4184 25.0774 11.5305C24.9653 11.6426 24.9023 11.7946 24.9023 11.9531C24.9023 12.1116 24.9653 12.2636 25.0774 12.3757C25.1895 12.4878 25.3415 12.5508 25.5 12.5508C26.0811 12.5504 26.6382 12.3193 27.0491 11.9085C27.46 11.4976 27.691 10.9404 27.6914 10.3594V7.76953H36.0586V10.3594C36.0582 10.6234 35.9531 10.8765 35.7664 11.0633C35.5797 11.25 35.3266 11.355 35.0625 11.3555C34.904 11.3555 34.752 11.4184 34.6399 11.5305C34.5278 11.6426 34.4648 11.7946 34.4648 11.9531C34.4648 12.1116 34.5278 12.2636 34.6399 12.3757C34.752 12.4878 34.904 12.5508 35.0625 12.5508C35.6436 12.5504 36.2007 12.3193 36.6116 11.9085C37.0225 11.4976 37.2535 10.9404 37.2539 10.3594V7.76953H45.6211V10.3594C45.6207 10.6234 45.5156 10.8765 45.3289 11.0633C45.1422 11.25 44.8891 11.355 44.625 11.3555C44.4665 11.3555 44.3145 11.4184 44.2024 11.5305C44.0903 11.6426 44.0273 11.7946 44.0273 11.9531C44.0273 12.1116 44.0903 12.2636 44.2024 12.3757C44.3145 12.4878 44.4665 12.5508 44.625 12.5508C45.2061 12.5504 45.7632 12.3193 46.1741 11.9085C46.585 11.4976 46.816 10.9404 46.8164 10.3594V7.76953H48.6094C48.8734 7.76995 49.1265 7.87503 49.3133 8.06175C49.5 8.24846 49.605 8.50157 49.6055 8.76562V15.1406Z" fill="#F85623"/>
<path d="M13.5469 46.0195H37.4531C38.2453 46.0185 39.0048 45.7033 39.565 45.1431C40.1252 44.5829 40.4404 43.8235 40.4414 43.0312V30.2812C40.4404 29.489 40.1252 28.7296 39.565 28.1694C39.0048 27.6092 38.2453 27.294 37.4531 27.293H32.4727V25.2075C32.9302 25.0785 33.3333 24.8039 33.6209 24.4253C33.9085 24.0468 34.0649 23.5848 34.0664 23.1094V21.5156C34.066 20.9346 33.835 20.3774 33.4241 19.9665C33.0132 19.5557 32.4561 19.3246 31.875 19.3242H23.9062C23.3252 19.3246 22.768 19.5557 22.3572 19.9665C21.9463 20.3774 21.7153 20.9346 21.7148 21.5156V23.1094C21.7164 23.5848 21.8728 24.0468 22.1604 24.4253C22.4479 24.8039 22.851 25.0785 23.3086 25.2075V27.293H13.5469C12.7547 27.294 11.9952 27.6092 11.435 28.1694C10.8748 28.7296 10.5596 29.489 10.5586 30.2812V43.0312C10.5596 43.8235 10.8748 44.5829 11.435 45.1431C11.9952 45.7033 12.7547 46.0185 13.5469 46.0195ZM22.9102 23.1094V21.5156C22.9106 21.2516 23.0157 20.9985 23.2024 20.8117C23.3891 20.625 23.6422 20.52 23.9062 20.5195H31.875C32.1391 20.52 32.3922 20.625 32.5789 20.8117C32.7656 20.9985 32.8707 21.2516 32.8711 21.5156V23.1094C32.8707 23.3734 32.7656 23.6265 32.5789 23.8133C32.3922 24 32.1391 24.105 31.875 24.1055H23.9062C23.6422 24.105 23.3891 24 23.2024 23.8133C23.0157 23.6265 22.9106 23.3734 22.9102 23.1094ZM31.2773 25.3008V27.293H24.5039V25.3008H31.2773ZM18.9258 28.4883H37.4531C37.9285 28.4889 38.3841 28.678 38.7202 29.0141C39.0564 29.3502 39.2455 29.8059 39.2461 30.2812V43.0312C39.2455 43.5066 39.0564 43.9623 38.7202 44.2984C38.3841 44.6345 37.9285 44.8236 37.4531 44.8242H33.3181C34.8434 43.9002 36.0243 42.5024 36.6806 40.8443C37.3369 39.1861 37.4326 37.3587 36.9529 35.6411C36.4732 33.9236 35.4446 32.4102 34.0241 31.332C32.6036 30.2539 30.8692 29.6703 29.0859 29.6703C27.3026 29.6703 25.5683 30.2539 24.1478 31.332C22.7273 32.4102 21.6987 33.9236 21.219 35.6411C20.7393 37.3587 20.8349 39.1861 21.4912 40.8443C22.1475 42.5024 23.3285 43.9002 24.8537 44.8242H18.9258V28.4883ZM29.0859 44.8242C27.7069 44.8242 26.3588 44.4153 25.2121 43.6491C24.0655 42.8829 23.1718 41.794 22.644 40.5199C22.1163 39.2458 21.9782 37.8438 22.2473 36.4913C22.5163 35.1387 23.1804 33.8963 24.1555 32.9212C25.1307 31.946 26.3731 31.2819 27.7256 31.0129C29.0782 30.7438 30.4802 30.8819 31.7543 31.4097C33.0283 31.9374 34.1173 32.8311 34.8835 33.9778C35.6497 35.1244 36.0586 36.4725 36.0586 37.8516C36.0565 39.7002 35.3212 41.4725 34.014 42.7796C32.7069 44.0868 30.9346 44.8221 29.0859 44.8242ZM11.7539 30.2812C11.7545 29.8059 11.9436 29.3502 12.2798 29.0141C12.6159 28.678 13.0715 28.4889 13.5469 28.4883H17.7305V44.8242H13.5469C13.0715 44.8236 12.6159 44.6345 12.2798 44.2984C11.9436 43.9623 11.7545 43.5066 11.7539 43.0312V30.2812Z" fill="#F85623"/>
<path d="M29.0859 32.0742C27.9433 32.0742 26.8263 32.4131 25.8762 33.0479C24.9261 33.6827 24.1856 34.585 23.7484 35.6407C23.3111 36.6963 23.1967 37.858 23.4196 38.9787C23.6425 40.0994 24.1928 41.1288 25.0007 41.9368C25.8087 42.7447 26.8381 43.295 27.9588 43.5179C29.0795 43.7408 30.2412 43.6264 31.2968 43.1891C32.3525 42.7519 33.2548 42.0114 33.8896 41.0613C34.5244 40.1112 34.8633 38.9942 34.8633 37.8516C34.8616 36.3198 34.2524 34.8513 33.1693 33.7682C32.0862 32.6851 30.6177 32.0759 29.0859 32.0742ZM29.0859 42.4336C28.1797 42.4336 27.2938 42.1649 26.5403 41.6614C25.7868 41.1579 25.1995 40.4423 24.8527 39.605C24.5059 38.7678 24.4152 37.8465 24.592 36.9577C24.7688 36.0688 25.2051 35.2524 25.846 34.6116C26.4868 33.9708 27.3032 33.5344 28.192 33.3576C29.0809 33.1808 30.0021 33.2715 30.8394 33.6183C31.6767 33.9651 32.3923 34.5524 32.8958 35.3059C33.3992 36.0594 33.668 36.9453 33.668 37.8516C33.6665 39.0663 33.1833 40.2309 32.3243 41.0899C31.4653 41.9489 30.3007 42.4321 29.0859 42.4336Z" fill="#F85623"/>
<path d="M14.7422 33.2695C15.0968 33.2695 15.4435 33.1644 15.7383 32.9674C16.0332 32.7703 16.263 32.4903 16.3987 32.1627C16.5344 31.8351 16.5699 31.4746 16.5007 31.1268C16.4315 30.779 16.2608 30.4595 16.01 30.2087C15.7593 29.958 15.4398 29.7872 15.092 29.718C14.7442 29.6489 14.3837 29.6844 14.056 29.8201C13.7284 29.9558 13.4484 30.1856 13.2514 30.4804C13.0544 30.7753 12.9492 31.1219 12.9492 31.4766C12.9499 31.9519 13.139 32.4076 13.4751 32.7437C13.8112 33.0798 14.2669 33.2689 14.7422 33.2695ZM14.7422 30.8789C14.8604 30.8789 14.9759 30.914 15.0742 30.9796C15.1725 31.0453 15.2491 31.1386 15.2943 31.2478C15.3396 31.3571 15.3514 31.4772 15.3284 31.5932C15.3053 31.7091 15.2484 31.8156 15.1648 31.8992C15.0812 31.9828 14.9747 32.0397 14.8588 32.0627C14.7429 32.0858 14.6227 32.074 14.5135 32.0287C14.4043 31.9835 14.3109 31.9069 14.2453 31.8086C14.1796 31.7103 14.1445 31.5948 14.1445 31.4766C14.1447 31.3181 14.2078 31.1662 14.3198 31.0542C14.4319 30.9422 14.5837 30.8791 14.7422 30.8789Z" fill="#F85623"/>
</svg>
