<svg width="98" height="97" viewBox="0 0 98 97" fill="none" xmlns="http://www.w3.org/2000/svg">
<g clip-path="url(#clip0_97_9377)">
<path d="M32.7213 41.9995C36.3213 38.3995 39.888 40.4995 41.2213 41.9995L43.7213 40.4995H46.2213H48.7213L51.7213 43.4995V46.9995L48.7213 50.4995L43.7213 54.4995L41.2213 56.9995L34.2213 49.4995C32.7213 47.6662 30.3213 43.5995 32.7213 41.9995Z" fill="#B90808"/>
<path d="M94.6896 80.7217H3.75205C3.4518 80.7178 3.16494 80.5968 2.95261 80.3844C2.74028 80.1721 2.61926 79.8852 2.61534 79.585V17.4444C2.61333 17.2931 2.64115 17.1429 2.69719 17.0024C2.75323 16.8619 2.83641 16.7338 2.94197 16.6254C3.04752 16.517 3.17339 16.4305 3.31239 16.3708C3.45138 16.3111 3.60078 16.2793 3.75205 16.2773H94.6896C94.9898 16.2813 95.2767 16.4023 95.489 16.6146C95.7013 16.827 95.8223 17.1138 95.8263 17.4141V79.5547C95.8283 79.706 95.8005 79.8561 95.7444 79.9967C95.6884 80.1372 95.6052 80.2653 95.4996 80.3736C95.3941 80.482 95.2682 80.5685 95.1292 80.6283C94.9902 80.688 94.8408 80.7197 94.6896 80.7217ZM85.9292 78.4483H93.5074V70.8701H85.9292V78.4483ZM68.151 78.4483H83.6558V70.8701H68.151V78.4483ZM50.3575 78.4483H65.8927V70.8701H50.3575V78.4483ZM32.5489 78.4483H48.0841V70.8701H32.5489V78.4483ZM14.7706 78.4483H30.2906V70.8701H14.7858L14.7706 78.4483ZM4.87362 78.4483H12.4517V70.8701H4.87362V78.4483ZM4.87362 68.5512H93.5377V64.0044H79.3514C79.0499 64.0044 78.7608 63.8846 78.5476 63.6714C78.3345 63.4583 78.2147 63.1691 78.2147 62.8677V34.192C78.2147 33.8906 78.3345 33.6014 78.5476 33.3883C78.7608 33.1751 79.0499 33.0553 79.3514 33.0553H93.5528V28.5084H4.88877V33.0553H19.0902C19.3917 33.0553 19.6808 33.1751 19.894 33.3883C20.1071 33.6014 20.2269 33.8906 20.2269 34.192V62.807C20.2269 63.1085 20.1071 63.3976 19.894 63.6108C19.6808 63.824 19.3917 63.9437 19.0902 63.9437H4.88877L4.87362 68.5512ZM80.473 61.6703H93.5377V35.3287H80.4881L80.473 61.6703ZM4.87362 61.6703H17.9383V35.3287H4.88877L4.87362 61.6703ZM85.9292 26.1744H93.5074V18.5963H85.9292V26.1744ZM68.151 26.1744H83.6558V18.5963H68.151V26.1744ZM50.3575 26.1744H65.8927V18.5963H50.3575V26.1744ZM32.5489 26.1744H48.0841V18.5963H32.5489V26.1744ZM14.7706 26.1744H30.2906V18.5963H14.7858L14.7706 26.1744ZM4.87362 26.1744H12.4517V18.5963H4.87362V26.1744ZM72.4553 63.9437H25.9863C25.6848 63.9437 25.3957 63.824 25.1825 63.6108C24.9693 63.3976 24.8496 63.1085 24.8496 62.807V34.192C24.8496 33.8906 24.9693 33.6014 25.1825 33.3883C25.3957 33.1751 25.6848 33.0553 25.9863 33.0553H72.4553C72.7568 33.0553 73.0459 33.1751 73.2591 33.3883C73.4723 33.6014 73.5921 33.8906 73.5921 34.192V62.807C73.5921 63.1085 73.4723 63.3976 73.2591 63.6108C73.0459 63.824 72.7568 63.9437 72.4553 63.9437ZM27.123 61.6703H71.3186V35.3287H27.123V61.6703ZM41.7488 58.1692C41.4487 58.1627 41.162 58.0437 40.9455 57.8358L33.7008 50.5911C32.1307 49.1496 31.1168 47.2023 30.8363 45.0894C30.7324 44.2438 30.8232 43.3857 31.1015 42.5806C31.3798 41.7754 31.8384 41.0445 32.4422 40.4436C33.0461 39.8426 33.7792 39.3876 34.5857 39.1132C35.3922 38.8388 36.2508 38.7522 37.0958 38.8602C38.8158 39.0581 40.4341 39.7774 41.7336 40.9214C42.7002 39.9702 43.9153 39.3106 45.2396 39.0184C46.5639 38.7262 47.9437 38.8132 49.2208 39.2694C50.4943 38.8229 51.8671 38.741 53.1846 39.0329C54.5021 39.3248 55.7119 39.9789 56.6777 40.9214C60.1939 37.9811 63.9527 38.36 65.9988 40.3909C68.0449 42.4219 68.4844 46.7869 64.756 50.5305L57.481 57.7752C57.2678 57.988 56.9789 58.1076 56.6777 58.1076C56.3764 58.1076 56.0875 57.988 55.8744 57.7752L49.2208 51.1973L42.5521 57.8358C42.3356 58.0437 42.0489 58.1627 41.7488 58.1692ZM50.8425 49.5302L56.7535 55.4259L63.2252 48.9845C66.0291 46.1655 65.8321 43.4222 64.468 42.0733C63.1039 40.7244 60.3606 40.5577 57.5567 43.3161C57.4522 43.4233 57.3273 43.5086 57.1894 43.5668C57.0514 43.625 56.9032 43.6549 56.7535 43.6549C56.6037 43.6549 56.4555 43.625 56.3175 43.5668C56.1796 43.5086 56.0547 43.4233 55.9502 43.3161C54.8508 42.0801 53.3346 41.2924 51.6913 41.1033C52.2037 41.82 52.5459 42.6442 52.6916 43.5131C52.8185 44.5977 52.7094 45.6969 52.372 46.7354C52.0345 47.774 51.4766 48.7273 50.7364 49.5302H50.8425ZM36.5502 41.1033C36.1014 41.0926 35.6551 41.173 35.2383 41.3397C34.8214 41.5065 34.4428 41.756 34.1252 42.0733C33.7672 42.44 33.4958 42.8821 33.3306 43.3672C33.1654 43.8523 33.1106 44.3682 33.1703 44.8772C33.4083 46.4618 34.1908 47.9141 35.3831 48.9845L41.8246 55.4259L48.4933 48.7875C49.1255 48.1966 49.6273 47.4802 49.9666 46.6842C50.3059 45.8882 50.4752 45.0301 50.4636 44.1648C50.4709 44.0791 50.4709 43.9929 50.4636 43.9072C50.39 43.4661 50.2304 43.0438 49.9938 42.6644C49.8609 42.441 49.6919 42.2413 49.4936 42.0733C47.978 40.6789 45.1892 40.6789 42.6581 43.3312C42.5556 43.4417 42.4313 43.5297 42.293 43.5897C42.1548 43.6496 42.0056 43.6804 41.8549 43.6798C41.7025 43.6864 41.5505 43.6599 41.4093 43.6024C41.268 43.5449 41.1409 43.4575 41.0364 43.3464C39.9707 42.1586 38.523 41.3812 36.9442 41.1487L36.5502 41.1033Z" fill="#151515"/>
</g>
<defs>
<clipPath id="clip0_97_9377">
<rect width="97" height="97" fill="white" transform="translate(0.720703)"/>
</clipPath>
</defs>
</svg>
